<svg width="167" height="88" viewBox="0 0 167 88" fill="none" xmlns="http://www.w3.org/2000/svg">
<path d="M71.5322 18.8992H83.6429V25.9502C85.1459 21.6292 89.6549 18.373 94.6093 18.373C95.9329 18.373 97.1762 18.4597 98.6792 18.8992V31.144C96.8236 30.5249 95.234 30.1721 93.1991 30.1721C87.453 30.1721 83.6491 34.5797 83.6491 41.8906V62.9506H71.5384V18.8992H71.5322Z" fill="#00023B"/>
<path d="M119.386 18.9004H107.275V62.9579H119.386V18.9004Z" fill="#00023B"/>
<path d="M161.885 21.7419C158.675 19.2657 154.326 18.0586 148.593 18.0586C143.014 18.0586 138.3 19.3029 134.954 21.6614C131.293 24.2429 129.177 28.1367 128.831 32.9281H140.212C140.898 28.731 143.391 26.6943 147.826 26.6943C153.881 26.6943 155.118 29.969 155.118 34.8905V36.7662H150.021C142.834 36.7662 137.274 37.8371 133.501 39.9543C129.27 42.3252 127.13 45.9776 127.13 50.8185C127.13 55.1642 128.596 58.5133 131.484 60.7666C134.088 62.7909 137.657 63.8618 141.82 63.8618C147.9 63.8618 151.994 61.9552 155.093 57.6714L155.285 57.4052V62.9333H167V34.3024C167 28.5824 165.324 24.4719 161.885 21.7419ZM155.118 47.618C155.118 52.3661 151.234 55.5604 145.457 55.5604C141.183 55.5604 138.925 53.6909 138.925 50.1438C138.925 45.7609 142.426 43.8047 150.275 43.8047H155.118V47.618Z" fill="#00023B"/>
<path d="M119.212 0.398438H107.441V12.1294H119.212V0.398438Z" fill="#00023B"/>
<path d="M0.847376 61.0033L0 62.9595H13.2611L17.3681 53.3086L0.668004 61.4119L0.847376 61.0033Z" fill="#00023B"/>
<path d="M65.6069 62.9593L38.46 0.398438H27.0544L7.91113 44.6602L24.4937 36.5445L32.7139 17.2303L40.5196 35.585L41.0144 36.7426L48.1336 53.4817L52.1664 62.9593H65.6069Z" fill="#00023B"/>
<path d="M41.0148 36.7422L47.6453 52.3298L48.134 53.4812L41.0148 36.7422Z" fill="#0AA761"/>
<path d="M47.6408 52.3293L41.0103 36.7417L32.5675 32.5879L7.90696 44.6593L0.664062 61.4107L32.5675 45.9283L48.1295 53.4807L47.6408 52.3293Z" fill="#0AA761"/>
<path d="M0.0947266 80.1384C0.0947266 77.2412 2.30285 75.0312 5.26557 75.0312C7.65307 75.0312 9.55193 76.5789 10.0467 78.5103H8.28396C7.86337 77.3836 6.66343 76.6036 5.26557 76.6036C3.19971 76.6036 1.74618 78.1512 1.74618 80.1384C1.74618 82.1317 3.19971 83.6731 5.26557 83.6731C6.66343 83.6731 7.86337 82.8931 8.28396 81.7665H10.0467C9.55812 83.7041 7.65925 85.2455 5.26557 85.2455C2.30285 85.2517 0.0947266 83.0355 0.0947266 80.1384Z" fill="#00023B"/>
<path d="M12.8419 79.4911H10.7451V78.123H16.5716V79.4911H14.382V85.0873H12.8419V79.4911Z" fill="#00023B"/>
<path d="M17.8857 87.9924V78.1186H19.4197V79.0534C19.8093 78.4962 20.6629 77.9824 21.6711 77.9824C23.5823 77.9824 25.0359 79.6105 25.0359 81.6038C25.0359 83.5972 23.5823 85.2253 21.6711 85.2253C20.6629 85.2253 19.8155 84.7115 19.4197 84.1543V87.9986H17.8857V87.9924ZM23.471 81.6038C23.471 80.3534 22.6174 79.3753 21.3866 79.3753C20.1434 79.3753 19.2898 80.3472 19.2898 81.6038C19.2898 82.8543 20.1434 83.8324 21.3866 83.8324C22.6174 83.8262 23.471 82.8543 23.471 81.6038Z" fill="#00023B"/>
<path d="M26.1299 81.6038C26.1299 79.6105 27.5834 77.9824 29.4946 77.9824C30.5028 77.9824 31.3378 78.4962 31.7275 79.0534V78.1186H33.2614V85.0829H31.7337V84.1481C31.344 84.7053 30.5028 85.2191 29.5008 85.2191C27.5834 85.2191 26.1299 83.591 26.1299 81.6038ZM31.8636 81.6038C31.8636 80.3534 31.01 79.3753 29.7792 79.3753C28.5483 79.3753 27.6947 80.3472 27.6947 81.6038C27.6947 82.8543 28.5483 83.8324 29.7792 83.8324C31.01 83.8262 31.8636 82.8543 31.8636 81.6038Z" fill="#00023B"/>
<path d="M38.1747 82.7349L36.2882 85.0873H34.4141L37.1912 81.6207L34.5687 78.123H36.3995L38.1561 80.463L39.9189 78.123H41.7621L39.1334 81.6207L41.9167 85.0873H40.0612L38.1747 82.7349Z" fill="#00023B"/>
<path d="M42.2119 81.6038C42.2119 79.5857 43.8077 77.9824 45.8736 77.9824C47.9394 77.9824 49.5352 79.5857 49.5352 81.6038C49.5352 83.6219 47.9394 85.2253 45.8736 85.2253C43.8015 85.2191 42.2119 83.6219 42.2119 81.6038ZM47.9642 81.6038C47.9642 80.3657 47.0982 79.4062 45.8674 79.4062C44.6242 79.4062 43.7582 80.3657 43.7582 81.6038C43.7582 82.8419 44.6242 83.8015 45.8674 83.8015C47.0982 83.8015 47.9642 82.8419 47.9642 81.6038Z" fill="#00023B"/>
<path d="M51.1077 78.123H54.2931C55.9693 78.123 56.7796 79.0392 56.7796 80.1164C56.7796 80.6178 56.5817 81.0326 56.2044 81.3854C56.86 81.7321 57.2249 82.3449 57.2249 83.0259C57.2249 84.0845 56.5136 85.0873 54.6952 85.0873H51.1016V78.123H51.1077ZM54.355 80.9397C54.788 80.9397 55.2519 80.7416 55.2519 80.1473C55.2519 79.5469 54.788 79.3673 54.355 79.3673H52.6479V80.9397H54.355ZM54.689 83.7935C55.289 83.7935 55.6972 83.484 55.6972 82.933C55.6972 82.3635 55.289 82.054 54.689 82.054H52.6479V83.7935H54.689Z" fill="#00023B"/>
<path d="M58.3193 81.6038C58.3193 79.6105 59.7729 77.9824 61.6841 77.9824C62.6923 77.9824 63.5273 78.4962 63.917 79.0534V78.1186H65.4509V85.0829H63.917V84.1481C63.5273 84.7053 62.6861 85.2191 61.6841 85.2191C59.7729 85.2191 58.3193 83.591 58.3193 81.6038ZM64.0468 81.6038C64.0468 80.3534 63.1933 79.3753 61.9624 79.3753C60.7316 79.3753 59.878 80.3472 59.878 81.6038C59.878 82.8543 60.7316 83.8324 61.9624 83.8324C63.1933 83.8262 64.0468 82.8543 64.0468 81.6038Z" fill="#00023B"/>
<path d="M69.048 82.413C68.0955 82.0787 67.5512 81.3421 67.5512 80.3949C67.5512 79.1135 68.448 78.123 70.1057 78.123H72.9261V85.0873H71.3922V82.704H70.6128L68.2501 85.0873H66.4316L69.048 82.413ZM71.3922 81.4226V79.4169H70.1922C69.4253 79.4169 69.0294 79.7945 69.0294 80.4445C69.0294 81.0697 69.5057 81.4164 70.1922 81.4164H71.3922V81.4226Z" fill="#00023B"/>
<path d="M77.8369 81.6038C77.8369 79.5857 79.4327 77.9824 81.4986 77.9824C83.5644 77.9824 85.1602 79.5857 85.1602 81.6038C85.1602 83.6219 83.5644 85.2253 81.4986 85.2253C79.4265 85.2191 77.8369 83.6219 77.8369 81.6038ZM83.5892 81.6038C83.5892 80.3657 82.7232 79.4062 81.4924 79.4062C80.2491 79.4062 79.3832 80.3657 79.3832 81.6038C79.3832 82.8419 80.2491 83.8015 81.4924 83.8015C82.7232 83.8015 83.5892 82.8419 83.5892 81.6038Z" fill="#00023B"/>
<path d="M86.7383 87.9924V78.1186H88.2722V79.0534C88.6619 78.4962 89.5154 77.9824 90.5236 77.9824C92.4349 77.9824 93.8884 79.6105 93.8884 81.6038C93.8884 83.5972 92.4349 85.2253 90.5236 85.2253C89.5154 85.2253 88.6681 84.7115 88.2722 84.1543V87.9986H86.7383V87.9924ZM92.3235 81.6038C92.3235 80.3534 91.47 79.3753 90.2391 79.3753C88.9959 79.3753 88.1423 80.3472 88.1423 81.6038C88.1423 82.8543 88.9959 83.8324 90.2391 83.8324C91.4762 83.8262 92.3235 82.8543 92.3235 81.6038Z" fill="#00023B"/>
<path d="M95.4854 78.123H100.069V79.4911H97.0193V85.0873H95.4854V78.123Z" fill="#00023B"/>
<path d="M100.657 81.6038C100.657 79.6105 102.111 77.9824 104.022 77.9824C105.03 77.9824 105.865 78.4962 106.255 79.0534V78.1186H107.789V85.0829H106.255V84.1481C105.865 84.7053 105.024 85.2191 104.022 85.2191C102.111 85.2191 100.657 83.591 100.657 81.6038ZM106.385 81.6038C106.385 80.3534 105.531 79.3753 104.3 79.3753C103.069 79.3753 102.216 80.3472 102.216 81.6038C102.216 82.8543 103.069 83.8324 104.3 83.8324C105.531 83.8262 106.385 82.8543 106.385 81.6038Z" fill="#00023B"/>
<path d="M109.908 78.123H111.448V80.884H114.813V78.123H116.347V85.0873H114.813V82.2459H111.448V85.0873H109.908V78.123Z" fill="#00023B"/>
<path d="M118.441 85.0873V78.123H119.982V82.7597L123.544 78.123H124.911V85.0873H123.377V80.4507L119.815 85.0873H118.441Z" fill="#00023B"/>
<path d="M126.377 83.0684H127.954C128.164 83.6688 128.696 83.9598 129.42 83.9598C130.317 83.9474 130.75 83.5265 130.75 82.9879C130.75 82.3874 130.305 82.0531 129.519 82.0531H128.696V80.9265H129.494C130.125 80.9265 130.54 80.6479 130.54 80.0784C130.54 79.5336 130.107 79.2179 129.395 79.2179C128.74 79.2179 128.251 79.5212 128.084 80.066H126.55C126.841 78.5927 128.127 77.9922 129.426 77.9922C131.189 77.9922 132.012 78.9641 132.012 79.9669C132.012 80.5674 131.801 81.0812 131.257 81.4279C131.913 81.7622 132.302 82.3193 132.302 83.0993C132.302 84.1703 131.337 85.2288 129.426 85.2288C128.016 85.2227 126.674 84.5417 126.377 83.0684Z" fill="#00023B"/>
<path d="M133.422 81.6038C133.422 79.6105 134.875 77.9824 136.787 77.9824C137.795 77.9824 138.63 78.4962 139.019 79.0534V78.1186H140.553V85.0829H139.019V84.1481C138.63 84.7053 137.789 85.2191 136.787 85.2191C134.875 85.2191 133.422 83.591 133.422 81.6038ZM139.149 81.6038C139.149 80.3534 138.296 79.3753 137.065 79.3753C135.834 79.3753 134.981 80.3472 134.981 81.6038C134.981 82.8543 135.834 83.8324 137.065 83.8324C138.296 83.8262 139.149 82.8543 139.149 81.6038Z" fill="#00023B"/>
<path d="M150.047 86.8268H148.649V85.0873H142.668V78.123H144.208V83.7192H147.406V78.123H148.946V83.7192H150.047V86.8268Z" fill="#00023B"/>
<path d="M151.545 85.0873V78.123H153.079V82.7597L156.642 78.123H158.015V85.0873H156.475V80.4507L152.912 85.0873H151.545Z" fill="#00023B"/>
<path d="M161.586 82.413C160.634 82.0787 160.09 81.3421 160.09 80.3949C160.09 79.1135 160.986 78.123 162.644 78.123H165.465V85.0873H163.931V82.704H163.145L160.782 85.0873H158.964L161.586 82.413ZM163.931 81.4226V79.4169H162.731C161.964 79.4169 161.574 79.7945 161.574 80.4445C161.574 81.0697 162.05 81.4164 162.731 81.4164H163.931V81.4226Z" fill="#00023B"/>
</svg>
