<svg viewBox="0 0 100 52" fill="none" xmlns="http://www.w3.org/2000/svg">
                <path d="M42.4629 10.9832H49.6518V15.1687C50.544 12.6038 53.2206 10.6709 56.1615 10.6709C56.9472 10.6709 57.6852 10.7223 58.5774 10.9832V18.2518C57.4759 17.8843 56.5323 17.6748 55.3244 17.6748C51.9135 17.6748 49.6555 20.2912 49.6555 24.631V37.1323H42.4666V10.9832H42.4629Z" fill="white" />
                <path d="M70.8667 10.9834H63.6777V37.1361H70.8667V10.9834Z" fill="white" />
                <path
                    d="M96.0954 12.6689C94.1899 11.199 91.6087 10.4824 88.2052 10.4824C84.8934 10.4824 82.0957 11.221 80.1094 12.6211C77.9358 14.1534 76.6801 16.4648 76.4745 19.309H83.2302C83.6378 16.8176 85.1174 15.6086 87.7499 15.6086C91.3444 15.6086 92.0787 17.5525 92.0787 20.4739V21.5873H89.0533C84.787 21.5873 81.4862 22.223 79.2466 23.4798C76.7352 24.8872 75.4648 27.0552 75.4648 29.9288C75.4648 32.5084 76.335 34.4964 78.0496 35.834C79.5954 37.0356 81.7139 37.6714 84.1848 37.6714C87.794 37.6714 90.2246 36.5396 92.064 33.9967L92.1778 33.8387V37.1202H99.1318V20.1248C99.1318 16.7294 98.1368 14.2894 96.0954 12.6689ZM92.0787 28.029C92.0787 30.8475 89.773 32.7436 86.3437 32.7436C83.8067 32.7436 82.4665 31.6339 82.4665 29.5283C82.4665 26.9266 84.5446 25.7654 89.2039 25.7654H92.0787V28.029Z"
                    fill="white" />
                <path d="M70.7643 0H63.7773V6.96352H70.7643V0Z" fill="white" />
                <path d="M0.503005 35.9758L0 37.137H7.87184L10.3098 31.4082L0.396529 36.2184L0.503005 35.9758Z" fill="white" />
                <path d="M38.9437 37.1363L22.8292 0H16.0588L4.69531 26.274L14.5388 21.4564L19.4183 9.99145L24.0518 20.8869L24.3455 21.574L28.5715 31.5104L30.9654 37.1363H38.9437Z" fill="white" />
                <path d="M24.3457 21.5742L28.2816 30.8271L28.5717 31.5105L24.3457 21.5742Z" fill="#0AA761" />
                <path d="M28.2801 30.8269L24.3442 21.5741L19.3325 19.1084L4.69394 26.274L0.394531 36.2177L19.3325 27.0273L28.5702 31.5104L28.2801 30.8269Z" fill="#0AA761" />
                <path
                    d="M0.0546875 47.3353C0.0546875 45.6156 1.36544 44.3037 3.12412 44.3037C4.54134 44.3037 5.66852 45.2224 5.96224 46.3689H4.91584C4.66618 45.7001 3.95389 45.2371 3.12412 45.2371C1.89782 45.2371 1.035 46.1557 1.035 47.3353C1.035 48.5186 1.89782 49.4336 3.12412 49.4336C3.95389 49.4336 4.66618 48.9706 4.91584 48.3018H5.96224C5.67219 49.4519 4.54502 50.3669 3.12412 50.3669C1.36544 50.3706 0.0546875 49.0551 0.0546875 47.3353Z"
                    fill="white" />
                <path d="M7.62357 46.9488H6.37891V46.1367H9.83753V46.9488H8.53779V50.2707H7.62357V46.9488Z" fill="white" />
                <path
                    d="M10.6172 51.9957V46.1346H11.5277V46.6894C11.759 46.3587 12.2657 46.0537 12.8642 46.0537C13.9987 46.0537 14.8615 47.0201 14.8615 48.2034C14.8615 49.3866 13.9987 50.3531 12.8642 50.3531C12.2657 50.3531 11.7627 50.0481 11.5277 49.7174V51.9993H10.6172V51.9957ZM13.9326 48.2034C13.9326 47.4611 13.4259 46.8805 12.6953 46.8805C11.9573 46.8805 11.4506 47.4574 11.4506 48.2034C11.4506 48.9457 11.9573 49.5263 12.6953 49.5263C13.4259 49.5226 13.9326 48.9457 13.9326 48.2034Z"
                    fill="white" />
                <path
                    d="M15.5098 48.2034C15.5098 47.0202 16.3726 46.0537 17.5071 46.0537C18.1056 46.0537 18.6012 46.3587 18.8325 46.6894V46.1346H19.7431V50.2686H18.8362V49.7137C18.6049 50.0444 18.1056 50.3494 17.5108 50.3494C16.3726 50.3494 15.5098 49.383 15.5098 48.2034ZM18.9133 48.2034C18.9133 47.4611 18.4066 46.8805 17.676 46.8805C16.9453 46.8805 16.4387 47.4574 16.4387 48.2034C16.4387 48.9457 16.9453 49.5263 17.676 49.5263C18.4066 49.5226 18.9133 48.9457 18.9133 48.2034Z"
                    fill="white" />
                <path d="M22.66 48.8744L21.5402 50.2707H20.4277L22.0763 48.2129L20.5195 46.1367H21.6063L22.649 47.5257L23.6954 46.1367H24.7896L23.2291 48.2129L24.8813 50.2707H23.7799L22.66 48.8744Z" fill="white" />
                <path
                    d="M25.0566 48.2034C25.0566 47.0055 26.0039 46.0537 27.2302 46.0537C28.4565 46.0537 29.4038 47.0055 29.4038 48.2034C29.4038 49.4013 28.4565 50.3531 27.2302 50.3531C26.0002 50.3494 25.0566 49.4013 25.0566 48.2034ZM28.4712 48.2034C28.4712 47.4685 27.9572 46.8989 27.2265 46.8989C26.4886 46.8989 25.9745 47.4685 25.9745 48.2034C25.9745 48.9383 26.4886 49.5079 27.2265 49.5079C27.9572 49.5079 28.4712 48.9383 28.4712 48.2034Z"
                    fill="white" />
                <path
                    d="M30.3377 46.1367H32.2285C33.2235 46.1367 33.7045 46.6806 33.7045 47.32C33.7045 47.6176 33.587 47.8638 33.363 48.0733C33.7522 48.2791 33.9688 48.6428 33.9688 49.0471C33.9688 49.6754 33.5466 50.2707 32.4672 50.2707H30.334V46.1367H30.3377ZM32.2652 47.8087C32.5222 47.8087 32.7976 47.6911 32.7976 47.3383C32.7976 46.9819 32.5222 46.8753 32.2652 46.8753H31.2519V47.8087H32.2652ZM32.4635 49.5027C32.8196 49.5027 33.062 49.319 33.062 48.9919C33.062 48.6539 32.8196 48.4701 32.4635 48.4701H31.2519V49.5027H32.4635Z"
                    fill="white" />
                <path
                    d="M34.6191 48.2034C34.6191 47.0202 35.482 46.0537 36.6165 46.0537C37.2149 46.0537 37.7106 46.3587 37.9419 46.6894V46.1346H38.8525V50.2686H37.9419V49.7137C37.7106 50.0444 37.2113 50.3494 36.6165 50.3494C35.482 50.3494 34.6191 49.383 34.6191 48.2034ZM38.019 48.2034C38.019 47.4611 37.5123 46.8805 36.7817 46.8805C36.0511 46.8805 35.5444 47.4574 35.5444 48.2034C35.5444 48.9457 36.0511 49.5263 36.7817 49.5263C37.5123 49.5226 38.019 48.9457 38.019 48.2034Z"
                    fill="white" />
                <path d="M40.9886 48.6833C40.4232 48.4848 40.1001 48.0476 40.1001 47.4853C40.1001 46.7247 40.6325 46.1367 41.6165 46.1367H43.2907V50.2707H42.3801V48.856H41.9175L40.515 50.2707H39.4355L40.9886 48.6833ZM42.3801 48.0953V46.9047H41.6679C41.2126 46.9047 40.9776 47.1289 40.9776 47.5147C40.9776 47.8859 41.2603 48.0916 41.6679 48.0916H42.3801V48.0953Z" fill="white" />
                <path
                    d="M46.2051 48.2034C46.2051 47.0055 47.1523 46.0537 48.3786 46.0537C49.6049 46.0537 50.5522 47.0055 50.5522 48.2034C50.5522 49.4013 49.6049 50.3531 48.3786 50.3531C47.1487 50.3494 46.2051 49.4013 46.2051 48.2034ZM49.6196 48.2034C49.6196 47.4685 49.1056 46.8989 48.375 46.8989C47.637 46.8989 47.123 47.4685 47.123 48.2034C47.123 48.9383 47.637 49.5079 48.375 49.5079C49.1056 49.5079 49.6196 48.9383 49.6196 48.2034Z"
                    fill="white" />
                <path
                    d="M51.4883 51.9957V46.1346H52.3988V46.6894C52.6301 46.3587 53.1368 46.0537 53.7353 46.0537C54.8698 46.0537 55.7326 47.0201 55.7326 48.2034C55.7326 49.3866 54.8698 50.3531 53.7353 50.3531C53.1368 50.3531 52.6338 50.0481 52.3988 49.7174V51.9993H51.4883V51.9957ZM54.8037 48.2034C54.8037 47.4611 54.297 46.8805 53.5664 46.8805C52.8284 46.8805 52.3217 47.4574 52.3217 48.2034C52.3217 48.9457 52.8284 49.5263 53.5664 49.5263C54.3007 49.5226 54.8037 48.9457 54.8037 48.2034Z"
                    fill="white" />
                <path d="M56.6816 46.1367H59.4023V46.9488H57.5922V50.2707H56.6816V46.1367Z" fill="white" />
                <path
                    d="M59.75 48.2034C59.75 47.0202 60.6128 46.0537 61.7473 46.0537C62.3458 46.0537 62.8415 46.3587 63.0728 46.6894V46.1346H63.9833V50.2686H63.0728V49.7137C62.8415 50.0444 62.3421 50.3494 61.7473 50.3494C60.6128 50.3494 59.75 49.383 59.75 48.2034ZM63.1499 48.2034C63.1499 47.4611 62.6432 46.8805 61.9126 46.8805C61.1819 46.8805 60.6752 47.4574 60.6752 48.2034C60.6752 48.9457 61.1819 49.5263 61.9126 49.5263C62.6432 49.5226 63.1499 48.9457 63.1499 48.2034Z"
                    fill="white" />
                <path d="M65.2422 46.1367H66.1564V47.7756H68.1537V46.1367H69.0643V50.2707H68.1537V48.5841H66.1564V50.2707H65.2422V46.1367Z" fill="white" />
                <path d="M70.3086 50.2707V46.1367H71.2228V48.889L73.3376 46.1367H74.1491V50.2707H73.2385V47.5184L71.1237 50.2707H70.3086Z" fill="white" />
                <path
                    d="M75.0176 49.0728H75.9538C76.0787 49.4293 76.3944 49.602 76.824 49.602C77.3564 49.5946 77.6134 49.3447 77.6134 49.025C77.6134 48.6686 77.349 48.4702 76.8827 48.4702H76.3944V47.8014H76.868C77.2425 47.8014 77.4885 47.636 77.4885 47.2979C77.4885 46.9746 77.2315 46.7872 76.8093 46.7872C76.4201 46.7872 76.1301 46.9672 76.0309 47.2906H75.1204C75.2929 46.416 76.0566 46.0596 76.8277 46.0596C77.8741 46.0596 78.3624 46.6365 78.3624 47.2318C78.3624 47.5882 78.2375 47.8932 77.9144 48.099C78.3036 48.2975 78.5349 48.6282 78.5349 49.0912C78.5349 49.7269 77.9622 50.3553 76.8277 50.3553C75.9905 50.3516 75.1938 49.9474 75.0176 49.0728Z"
                    fill="white" />
                <path
                    d="M79.1992 48.2034C79.1992 47.0202 80.062 46.0537 81.1965 46.0537C81.795 46.0537 82.2907 46.3587 82.522 46.6894V46.1346H83.4325V50.2686H82.522V49.7137C82.2907 50.0444 81.7913 50.3494 81.1965 50.3494C80.062 50.3494 79.1992 49.383 79.1992 48.2034ZM82.5991 48.2034C82.5991 47.4611 82.0924 46.8805 81.3618 46.8805C80.6311 46.8805 80.1245 47.4574 80.1245 48.2034C80.1245 48.9457 80.6311 49.5263 81.3618 49.5263C82.0924 49.5226 82.5991 48.9457 82.5991 48.2034Z"
                    fill="white" />
                <path d="M89.0677 51.3033H88.2379V50.2707H84.6875V46.1367H85.6017V49.4586H87.4999V46.1367H88.4141V49.4586H89.0677V51.3033Z" fill="white" />
                <path d="M89.959 50.2707V46.1367H90.8695V48.889L92.9844 46.1367H93.7994V50.2707H92.8852V47.5184L90.7704 50.2707H89.959Z" fill="white" />
                <path d="M95.9181 48.6833C95.3527 48.4848 95.0295 48.0476 95.0295 47.4853C95.0295 46.7247 95.5619 46.1367 96.5459 46.1367H98.2201V50.2707H97.3096V48.856H96.8433L95.4408 50.2707H94.3613L95.9181 48.6833ZM97.3096 48.0953V46.9047H96.5973C96.142 46.9047 95.9107 47.1289 95.9107 47.5147C95.9107 47.8859 96.1934 48.0916 96.5973 48.0916H97.3096V48.0953Z" fill="white" />
            </svg>