<svg width="80" height="80" viewBox="0 0 80 80" fill="none" xmlns="http://www.w3.org/2000/svg">
<g clip-path="url(#clip0)">
<path d="M30.7949 33.1328V33.2071H30.8896C30.858 33.1821 30.8257 33.1582 30.7949 33.1328Z" fill="#00023B"/>
<path d="M14.5 65L18.5 62L27.5 56L35 66.5L21.5 75.5L14.5 65Z" fill="#17C86B"/>
<path d="M36.0308 33.2071H38.6886C42.5625 32.5722 45.518 29.2113 45.518 25.1583C45.518 20.6524 41.866 17 37.3597 17C32.8542 17 29.2014 20.6524 29.2014 25.1583C29.2014 29.2117 32.1576 32.5722 36.0308 33.2071Z" fill="#00023B"/>
<path d="M27.5533 98.5172C27.5533 100.994 29.5609 103 32.036 103C34.5118 103 36.5194 100.994 36.5194 98.5172V65.7858H38.2V98.5172C38.2 100.994 40.2077 103 42.6827 103C45.1585 103 47.1662 100.994 47.1662 98.5172V62.9833V56.1162V44.2178C47.8464 45.6467 48.5317 47.7516 49.0027 50.8169C49.0031 50.8209 49.0045 50.8245 49.0052 50.8282C49.3925 53.3427 49.6372 56.486 49.6365 60.3795C49.6372 62.3785 49.5731 64.5747 49.4313 66.9867C49.3475 68.4229 50.3247 69.6738 51.683 69.982V71.4647H50.2022C49.4012 71.4647 48.7518 72.1141 48.7518 72.915V87.6609C48.7518 88.4619 49.4012 89.1113 50.2022 89.1113H54.7947C55.5957 89.1113 56.2451 88.4619 56.2451 87.6609V72.915C56.2451 72.1141 55.5957 71.4647 54.7947 71.4647H53.3146V69.8816C54.3705 69.4983 55.153 68.519 55.223 67.3268C55.3705 64.8119 55.4387 62.5025 55.4387 60.3799C55.4387 56.2388 55.1802 52.8032 54.7367 49.9326C53.7856 43.7888 51.9872 40.1488 49.8718 37.9576C47.7641 35.7527 45.392 35.3234 44.3615 35.3513C44.1295 35.3521 43.9533 35.3673 43.8391 35.3825H30.8743C30.8728 35.3825 30.8713 35.3818 30.8703 35.3818V35.3811C30.7618 35.368 30.5878 35.3528 30.3576 35.3521C29.4239 35.3267 27.3898 35.6809 25.4477 37.3869C25.2461 37.5639 25.0452 37.7506 24.8473 37.958C23.0006 39.8703 21.3958 42.8882 20.3852 47.7095C20.238 48.4119 20.1031 49.1516 19.9824 49.9322C19.9824 49.9322 19.9824 49.9326 19.9824 49.9329V49.9322C19.5393 52.8032 19.2808 56.2388 19.2808 60.3795C19.2808 62.5021 19.3482 64.8119 19.4961 67.3264C19.5864 68.8674 20.8646 70.0575 22.3896 70.0575C22.4465 70.0575 22.5038 70.0556 22.5619 70.052C24.1609 69.9585 25.381 68.5853 25.2878 66.9863C25.1457 64.5747 25.0819 62.3781 25.0826 60.3792C25.0819 56.4879 25.3266 53.3456 25.7135 50.8318C25.7142 50.8264 25.7157 50.8216 25.7168 50.8162C26.1885 47.7472 26.8734 45.6417 27.5536 44.2134V55.3845L25.897 56.5071C25.8756 56.9483 25.8589 57.3987 25.8451 57.8559L27.3999 56.8029L33.9066 66.4094L21.7478 74.6442L15.2415 65.0377L18.5864 62.7723C18.5766 62.3343 18.5694 61.9013 18.5646 61.4731L13.7302 64.7473L21.4574 76.1555L25.3781 73.4999L27.5536 72.0263V98.5172H27.5533ZM35.9813 38.35H37.3596H38.737L39.426 41.0694L39.3212 41.2347C38.7534 41.7083 38.0579 41.9454 37.3588 41.9461C36.6597 41.9454 35.9658 41.709 35.3983 41.2366L35.2924 41.0694L35.9813 38.35ZM35.899 42.766C36.3693 42.9422 36.8643 43.0343 37.3588 43.0339H37.3596H37.3617C37.8559 43.0339 38.3501 42.9418 38.8197 42.7656L40.8045 57.386L37.3599 61.7371L33.9153 57.386L35.899 42.766Z" fill="#00023B"/>
<path d="M26.5907 60.29L25.9963 60.7054L29.987 66.4146L30.5814 65.9991L26.5907 60.29Z" fill="#00023B"/>
<path d="M25.8999 64.6536C25.918 65.1006 25.9391 65.5528 25.9626 66.0093L27.4493 68.137L28.0435 67.7222L25.8999 64.6536Z" fill="#00023B"/>
</g>
<defs>
<clipPath id="clip0">
<rect width="80" height="80" fill="white"/>
</clipPath>
</defs>
</svg>
