<svg width="80" height="80" viewBox="0 0 80 80" fill="none" xmlns="http://www.w3.org/2000/svg">
<g clip-path="url(#clip0)">
<g clip-path="url(#clip1)">
<path d="M44.9274 49.9524C40.841 49.9524 37.5242 53.2374 37.5242 57.3032C37.5242 61.3544 40.8386 64.6491 44.9274 64.6491C49.0162 64.6491 52.3282 61.3641 52.3282 57.3032C52.3282 53.2398 49.0138 49.9524 44.9274 49.9524ZM44.9444 61.3037C42.6748 61.3037 40.8337 59.4762 40.8337 57.2234C40.8337 54.9657 42.6748 53.1407 44.9444 53.1407C47.2141 53.1407 49.0552 54.9681 49.0552 57.2234C49.0552 59.4762 47.2117 61.3037 44.9444 61.3037Z" fill="#00023B"/>
<path d="M128.384 49.2974C127.893 48.8115 127.267 48.1831 127.267 47.4941C127.267 46.8004 127.267 40.5567 126.149 39.5874C125.029 38.6181 117.199 39.5874 114.406 38.8937C111.61 38.1999 103.36 32.6258 99.2975 31.1513C90.5573 27.9847 71.7619 30.7017 67.846 31.5332C63.9325 32.3648 50.2122 41.2142 48.1324 41.5236C35.1305 43.4671 27.021 47.2137 26.4634 48.461C25.9033 49.7132 25.482 50.4069 24.3642 50.8227C23.2464 51.2433 24.3642 53.878 24.2254 54.7071C24.0865 55.5435 25.2043 54.7071 25.2043 55.4057C25.2043 56.0995 25.2043 58.1807 25.2043 58.1807H35.9707C35.9707 58.1807 36.6672 49.0218 44.6402 49.0218C53.4486 49.0218 53.7238 58.0381 53.7238 58.0381V59.7035H98.4622V57.6199C98.4622 57.6199 99.4436 49.4328 107.619 49.3627C115.801 49.2974 115.943 57.6199 116.364 57.6199C116.783 57.6199 126.709 56.0946 127.549 55.1229C128.384 54.156 128.871 49.7784 128.384 49.2974ZM28.7014 50.3682C27.4424 51.0305 26.5997 51.2384 26.8822 50.2329C27.1647 49.2273 28.7014 48.4635 28.7014 48.4635H29.2591C30.6569 48.461 29.9556 49.7132 28.7014 50.3682ZM76.2233 46.6578C73.1305 46.7956 74.28 45.5483 74.9789 45.5483C75.6802 45.5483 78.0571 45.5483 78.0571 45.5483C79.1724 45.5483 79.3137 46.5224 76.2233 46.6578ZM79.4549 41.8016C79.5937 42.3576 62.6759 42.3576 62.6759 42.3576V38.7511C62.6759 38.7511 67.5708 34.7288 70.6441 33.8924C73.7174 33.0585 79.4549 32.6427 80.9916 32.6427C80.9891 32.6427 79.3137 41.248 79.4549 41.8016ZM98.7447 41.526C98.7447 41.526 83.7848 42.0796 83.7848 41.526C83.7848 40.9725 84.625 32.6452 84.625 32.6452C84.625 32.6452 91.3342 32.6452 92.5908 32.6452C93.8547 32.6452 96.6479 33.0633 97.9045 34.8642C99.1611 36.6674 98.7447 41.526 98.7447 41.526ZM126.29 46.3846C126.219 47.2863 124.052 47.7721 123.628 46.3846C123.207 44.9972 125.306 41.1103 125.306 41.1103C126.353 41.1078 126.353 45.4806 126.29 46.3846Z" fill="#00023B"/>
</g>
<path d="M23.7261 10C18.3628 10 14 14.4857 14 20C14 25.5143 18.3628 30 23.7261 30C29.0894 30 33.4522 25.5143 33.4522 20C33.4522 14.4857 29.0894 10 23.7261 10ZM28.5047 10.0521C32.0654 11.8707 34.5328 15.6424 34.5328 20C34.5328 24.3598 32.0654 28.1293 28.5047 29.9479C33.3973 29.4314 37.2345 25.1649 37.2345 20C37.2345 14.8351 33.3973 10.5707 28.5047 10.0521ZM32.2871 10.0521C35.8478 11.8707 38.2983 15.6424 38.2983 20C38.2983 24.3598 35.8478 28.1293 32.2871 29.9479C37.1796 29.4293 41 25.1649 41 20C41 14.8351 37.1796 10.5707 32.2871 10.0521ZM23.1857 13.8889H24.2664V15.1736C25.8326 15.4514 26.3729 16.556 26.6979 17.7778H25.6173C25.4547 16.888 24.9123 16.1632 23.7767 16.1632C22.1557 16.1632 21.9362 17.2786 21.9362 17.7778C21.9362 18.9453 22.962 19.2188 24.0976 19.4965C25.5033 19.8307 26.9681 20.3364 26.9681 22.1701C26.9681 24.3924 25.0769 24.9957 24.2664 25.0521V26.1111H23.1857V25.0521C22.2676 24.885 20.6466 24.3338 20.4841 21.9444H21.5647C21.5647 22.6671 22.0502 23.9931 23.7261 23.9931C25.402 23.9931 25.7861 23.1641 25.7861 22.2743C25.7861 19.6072 20.7542 21.4366 20.7542 17.8819C20.7542 15.9939 22.3204 15.2148 23.1857 15.1042V13.8889Z" fill="#17C86B"/>
</g>
<defs>
<clipPath id="clip0">
<rect width="80" height="80" fill="white"/>
</clipPath>
<clipPath id="clip1">
<rect width="114" height="48" fill="white" transform="translate(20 29)"/>
</clipPath>
</defs>
</svg>
