<svg width="80" height="80" viewBox="0 0 80 80" fill="none" xmlns="http://www.w3.org/2000/svg">
<g clip-path="url(#clip0)">
<path d="M75.5023 63.7509V63.5736V63.0415C75.5023 62.5094 75.6807 61.9774 75.6807 61.4453C76.0376 59.8491 76.3944 58.2528 76.3944 56.834C76.5728 51.6906 73.8967 47.434 69.2582 45.3057C68.723 45.1283 68.1878 44.9509 67.6526 44.5962C64.7981 43.5321 61.9437 43 58.9108 43C58.1972 43 57.662 43 56.9484 43C55.1643 43.1774 52.6667 43.1774 50.5258 44.2415C50.3474 44.4189 49.9906 44.4189 49.8122 44.5962C48.9202 45.1283 48.2066 45.8377 47.6714 46.7245C47.6714 46.7245 47.6714 46.7245 47.493 46.7245C46.6009 47.2566 45.8873 47.966 45.3521 48.6755C44.4601 49.0302 43.7465 49.7396 43.2113 50.6264C42.4977 51.8679 42.1408 53.2868 42.1408 55.0604C42.1408 56.834 42.1408 58.7849 42.3192 60.0264C42.3192 60.7358 42.4977 61.2679 42.6761 61.9774C42.6761 62.5094 42.8545 62.8641 42.8545 63.2189H42.6761C40.892 63.5736 40 65.5245 40 67.1208C40 67.4755 40 68.0075 40 68.5396C40 69.0717 40.1784 69.7811 40.1784 70.3132C40.1784 70.6679 40.1784 70.8453 40.3568 71.2C40.7136 73.683 41.9624 75.8113 43.9249 76.8755C43.9249 76.8755 43.9249 77.0528 44.1033 77.0528C45.8873 83.7924 51.2394 88.7585 57.4836 89.8226C58.1972 90 58.9108 90 59.6244 90C64.4413 90 68.723 87.3396 71.7559 82.7283C72.2911 81.8415 72.8263 80.7774 73.3615 79.7132C73.5399 79.3585 73.7183 78.8264 73.7183 78.4717C73.8967 77.9396 73.8967 77.5849 74.0751 77.2302C74.2535 76.8755 74.6103 76.6981 74.9671 76.3434L75.5023 75.8113C77.108 74.3925 77.4648 72.6189 77.6432 71.3774C77.6432 71.0226 77.6432 70.8453 77.8216 70.4906C77.8216 69.9585 78 69.4264 78 68.717C78 68.3623 78 67.8302 78 67.2981C78 66.0566 77.108 64.283 75.5023 63.7509ZM74.7887 67.6528V67.8302C74.7887 68.1849 74.7887 68.5396 74.7887 68.8943C74.7887 69.4264 74.6103 69.7811 74.6103 70.3132C74.6103 70.6679 74.4319 71.0226 74.4319 71.2C74.2535 72.4415 74.0751 73.1509 73.3615 73.683C73.1831 73.8604 73.0047 74.0377 72.8263 74.2151L72.6479 74.3925C72.4695 74.5698 72.4695 74.7472 72.4695 74.7472C72.1127 75.4566 71.5775 76.5208 71.5775 76.5208C70.6854 78.6491 69.615 80.7774 68.0094 82.5509C65.3333 85.9208 61.7653 87.517 57.8404 86.9849C56.0563 86.6302 54.4507 86.0981 53.0235 85.034C50.3474 83.6151 48.2066 80.7774 47.1361 78.117C46.9577 77.7623 46.0657 75.4566 45.7089 74.3925L45.5305 74.2151C45.5305 74.2151 45.3521 74.2151 45.3521 74.0377C44.1033 73.3283 43.7465 71.7321 43.5681 70.8453C43.5681 70.4906 43.5681 70.1358 43.3897 69.9585C43.3897 69.4264 43.2113 69.0717 43.2113 68.5396C43.2113 68.1849 43.2113 67.8302 43.2113 67.4755V67.1208C43.2113 66.766 43.3897 66.4113 43.3897 66.4113C43.5681 66.4113 43.5681 66.4113 43.7465 66.4113C43.9249 66.4113 44.1033 66.4113 44.1033 66.4113C44.2817 66.4113 44.2817 66.4113 44.4601 66.4113L44.8169 66.234C44.9953 66.0566 45.1737 65.8792 45.3521 65.7019C45.7089 65.3472 45.8873 64.9925 45.8873 64.4604C45.8873 63.7509 45.8873 63.0415 45.7089 62.3321C49.277 62.3321 52.6667 62.3321 56.0563 61.6226C57.1268 61.4453 58.0188 61.2679 59.0892 60.9132C62.1221 60.2038 64.9765 58.9623 67.4742 56.834C68.723 58.6075 70.507 59.6717 72.4695 60.3811C72.6479 60.3811 72.6479 60.3811 72.8263 60.5585C72.6479 61.0906 72.6479 61.8 72.6479 62.3321L72.4695 63.0415C72.2911 63.5736 72.2911 64.283 72.4695 64.9925C72.6479 65.1698 72.6479 65.3472 72.8263 65.5245C73.3615 66.234 74.2535 66.234 74.6103 66.234C74.6103 66.766 74.7887 67.1208 74.7887 67.6528Z" fill="#00023B"/>
<path d="M51.0718 36.4915L14 49.6218L18.4531 62.066L55.5249 48.9356L51.0718 36.4915Z" fill="#17C86B"/>
<path d="M32.1865 36.2016C32.7865 36.2016 33.1865 36.0073 33.1865 35.7159V9.48574C33.1865 9.1943 32.7865 9 32.1865 9C31.5865 9 31.1865 9.1943 31.1865 9.48574V35.7159C31.1865 36.0073 31.5865 36.2016 32.1865 36.2016Z" fill="#17C86B"/>
<path d="M47.9348 31.9067C48.5348 31.9067 48.9348 31.729 48.9348 31.4624V19.466C48.9348 19.1995 48.5348 19.0217 47.9348 19.0217C47.3348 19.0217 46.9348 19.1995 46.9348 19.466V31.4624C46.9348 31.729 47.3348 31.9067 47.9348 31.9067Z" fill="#17C86B"/>
<path d="M17.8699 39.065C18.4699 39.065 18.8699 38.8741 18.8699 38.5877V23.7939C18.8699 23.5075 18.4699 23.3167 17.8699 23.3167C17.2699 23.3167 16.8699 23.5075 16.8699 23.7939V38.5877C16.8699 38.8741 17.2699 39.065 17.8699 39.065Z" fill="#17C86B"/>
</g>
<defs>
<clipPath id="clip0">
<rect width="80" height="80" fill="white"/>
</clipPath>
</defs>
</svg>
