<svg width="80" height="80" viewBox="0 0 80 80" fill="none" xmlns="http://www.w3.org/2000/svg">
<path d="M57.2509 63.8842C57.013 62.4568 56.2991 61.1484 55.3474 60.1968C54.7525 59.4831 53.9197 59.0073 53.0869 58.5315C50.4695 57.1041 47.4953 55.7957 44.521 54.7251C44.283 54.6062 44.1641 54.6062 43.9261 54.4872C43.6882 54.3683 43.4502 54.3683 43.2123 54.2493C42.4985 54.0114 41.7846 53.8925 41.0708 53.6546C40.8329 54.0114 40.5949 54.2493 40.4759 54.6062C39.7621 55.5578 39.1673 56.5094 38.4534 57.461C37.3827 58.8884 36.312 60.3158 35.2412 61.6242C34.6464 62.3379 34.0515 63.0516 33.4566 63.7653L33.3377 63.8842C33.3377 63.8842 33.3377 63.8842 33.3377 64.0032C33.2187 64.1221 33.0997 64.2411 32.9808 64.479C32.9808 64.1221 32.8618 63.7653 32.8618 63.5274C32.5049 60.7916 32.148 58.2936 32.148 58.0557V57.9368C32.2669 57.6989 32.3859 57.342 32.5049 57.1041C32.5049 57.1041 32.5049 57.1041 32.5049 56.9852V56.8662C32.5049 56.7473 32.6238 56.6283 32.6238 56.5094C32.6238 56.5094 32.6238 56.3904 32.7428 56.3904C32.7428 56.3904 32.7428 56.3904 32.7428 56.2715V56.1525C32.8618 55.9146 32.9808 55.6767 32.9808 55.4388C32.9808 55.2009 32.8618 54.963 32.8618 54.7251L32.7428 54.6062C32.7428 54.6062 32.7428 54.6062 32.7428 54.4872C32.7428 54.4872 32.7428 54.3683 32.6238 54.2493C32.6238 54.1304 32.5049 54.1304 32.3859 54.0114C32.5049 53.7735 32.3859 53.7735 32.2669 53.7735H32.148C32.029 53.7735 31.91 53.7735 31.91 53.7735C31.791 53.7735 31.5531 53.7735 31.1962 53.7735C30.9582 53.7735 30.7203 53.7735 30.4824 53.7735C30.1254 53.7735 29.7685 53.7735 29.4116 53.7735C29.2926 53.7735 29.2926 53.7735 29.1737 53.7735H29.0547H28.9357C28.8168 53.7735 28.8168 53.7735 28.6978 53.7735H28.5788C28.5788 53.7735 28.5788 53.7735 28.4599 53.7735C28.4599 53.7735 28.3409 53.7735 28.2219 53.7735C28.1029 53.7735 27.984 53.7735 27.865 53.8925C27.746 54.0114 27.746 54.0114 27.6271 54.1304C27.6271 54.2493 27.5081 54.2493 27.5081 54.3683C27.5081 54.3683 27.5081 54.3683 27.5081 54.4872L27.3891 54.6062C27.2701 54.8441 27.2701 54.963 27.2701 55.3199C27.2701 55.5578 27.3891 55.9146 27.5081 56.0336V56.1525C27.5081 56.1525 27.5081 56.1525 27.5081 56.2715C27.5081 56.2715 27.5081 56.3904 27.6271 56.3904C27.6271 56.5094 27.746 56.6283 27.746 56.7473V56.8662C27.746 56.8662 27.746 56.8662 27.746 56.9852C27.865 57.2231 27.984 57.461 28.1029 57.8178V57.9368C28.1029 58.2936 27.746 60.6726 27.3891 63.4084C27.3891 63.7653 27.2701 64.1221 27.2701 64.36C27.1512 64.2411 27.0322 64.1221 26.9132 63.8842C26.3184 63.0516 25.6045 62.3379 25.0097 61.5052C23.9389 60.1968 22.8682 58.7694 21.7975 57.342C20.9647 56.1525 20.0129 54.8441 19.1801 53.5356C18.2283 53.7735 17.2766 54.0114 16.3248 54.3683C13.1126 55.4388 10.0193 56.8662 7.16399 58.2936C6.3312 58.7694 5.4984 59.3642 4.90354 59.9589C3.95177 61.0295 3.11897 62.2189 3 63.6463C3 63.8842 3 64.1221 3 64.36V72.9244C3.47589 78.1582 6.92605 78.1582 7.16399 78.1582H53.2059C53.2059 78.1582 53.2059 78.1582 53.3248 78.1582H53.4438C53.8007 78.1582 54.5146 77.9203 55.3474 77.3255C55.4663 77.2066 55.4663 77.2066 55.5853 77.0876C55.5853 77.0876 55.5853 77.0876 55.7043 76.9687C55.9422 76.7308 56.2991 76.255 56.5371 75.8981C56.5371 75.7792 56.656 75.6602 56.656 75.6602C56.656 75.5413 56.775 75.4223 56.775 75.3034C57.013 74.7086 57.2509 73.876 57.3699 72.9244V64.36C57.2509 64.36 57.2509 64.1221 57.2509 63.8842ZM50.2316 68.8801H47.9711V71.1401C47.9711 72.0917 47.2573 72.8054 46.3055 72.8054C45.3538 72.8054 44.6399 72.0917 44.6399 71.1401V68.8801H42.4985C41.5467 68.8801 40.8329 68.1664 40.8329 67.2148C40.8329 66.2632 41.5467 65.5495 42.4985 65.5495H44.6399V63.2895C44.6399 62.3379 45.3538 61.6242 46.3055 61.6242H46.4245C47.3763 61.6242 48.0901 62.3379 48.0901 63.2895V65.6685H50.3506C50.8264 65.6685 51.1834 65.9064 51.5403 66.1443C51.8972 66.5011 52.0162 66.858 52.0162 67.3338C51.8972 68.1664 51.1834 68.8801 50.2316 68.8801Z" fill="#00023B"/>
<path d="M41.3088 31.8868V31.7678V31.411C41.3088 31.0542 41.4278 30.6973 41.4278 30.3405C41.6657 29.2699 41.9037 28.1994 41.9037 27.2478C42.0226 23.7982 40.2381 20.9435 37.1448 19.5161C36.7879 19.3971 36.431 19.2782 36.0741 19.0403C34.1705 18.3266 32.267 17.9697 30.2445 17.9697C29.7686 17.9697 29.4117 17.9697 28.9358 17.9697C27.7461 18.0887 26.0805 18.0887 24.6528 18.8024C24.5339 18.9213 24.2959 18.9213 24.177 19.0403C23.5821 19.3971 23.1062 19.8729 22.7493 20.4677C22.7493 20.4677 22.7493 20.4677 22.6303 20.4677C22.0355 20.8245 21.5596 21.3003 21.2027 21.7761C20.6078 22.014 20.1319 22.4898 19.775 23.0845C19.2991 23.9172 19.0612 24.8688 19.0612 26.0583C19.0612 27.2478 19.0612 28.5562 19.1802 29.3889C19.1802 29.8647 19.2991 30.2215 19.4181 30.6973C19.4181 31.0542 19.5371 31.292 19.5371 31.5299H19.4181C18.2284 31.7678 17.6335 33.0763 17.6335 34.1468C17.6335 34.3847 17.6335 34.7416 17.6335 35.0984C17.6335 35.4553 17.7525 35.9311 17.7525 36.2879C17.7525 36.5258 17.7525 36.6448 17.8715 36.8827C18.1094 38.548 18.9422 39.9754 20.2509 40.689C20.2509 40.689 20.2509 40.808 20.3699 40.808C21.5596 45.3281 25.1287 48.6586 29.2927 49.3723C29.7686 49.4913 30.2445 49.4913 30.7204 49.4913C33.9326 49.4913 36.7879 47.7071 38.8104 44.6144C39.1673 44.0196 39.5243 43.3059 39.8812 42.5922C40.0001 42.3543 40.1191 41.9975 40.1191 41.7596C40.2381 41.4027 40.2381 41.1648 40.357 40.9269C40.476 40.689 40.714 40.5701 40.9519 40.3322L41.3088 39.9753C42.3796 39.0238 42.6175 37.8343 42.7365 37.0016C42.7365 36.7637 42.7365 36.6448 42.8554 36.4069C42.8554 36.05 42.9744 35.6932 42.9744 35.2174C42.9744 34.9795 42.9744 34.6226 42.9744 34.2658C42.9744 33.4331 42.3796 32.2436 41.3088 31.8868ZM40.8329 34.5037V34.6226C40.8329 34.8605 40.8329 35.0984 40.8329 35.3363C40.8329 35.6932 40.714 35.9311 40.714 36.2879C40.714 36.5258 40.595 36.7637 40.595 36.8827C40.476 37.7153 40.357 38.1911 39.8812 38.548C39.7622 38.6669 39.6432 38.7859 39.5243 38.9048L39.4053 39.0238C39.2863 39.1427 39.2863 39.2617 39.2863 39.2617C39.0484 39.7375 38.6915 40.4511 38.6915 40.4511C38.0966 41.8785 37.3828 43.3059 36.312 44.4954C34.5275 46.7555 32.148 47.826 29.5307 47.4692C28.341 47.2313 27.2702 46.8744 26.3184 46.1607C24.5339 45.2091 23.1062 43.3059 22.3924 41.5217C22.2734 41.2838 21.6786 39.7375 21.4406 39.0238L21.3217 38.9048C21.3217 38.9048 21.2027 38.9048 21.2027 38.7859C20.3699 38.3101 20.1319 37.2395 20.013 36.6448C20.013 36.4069 20.013 36.169 19.894 36.05C19.894 35.6932 19.775 35.4553 19.775 35.0984C19.775 34.8605 19.775 34.6226 19.775 34.3847V34.1468C19.775 33.9089 19.894 33.671 19.894 33.671C20.013 33.671 20.013 33.671 20.1319 33.671C20.2509 33.671 20.3699 33.671 20.3699 33.671C20.4889 33.671 20.4889 33.671 20.6078 33.671L20.8458 33.5521C20.9647 33.4331 21.0837 33.3142 21.2027 33.1952C21.4406 32.9573 21.5596 32.7194 21.5596 32.3626C21.5596 31.8868 21.5596 31.411 21.4406 30.9352C23.82 30.9352 26.0805 30.9352 28.341 30.4594C29.0548 30.3405 29.6496 30.2215 30.3635 29.9836C32.386 29.5078 34.2895 28.6752 35.9551 27.2478C36.7879 28.4373 37.9776 29.151 39.2863 29.6268C39.4053 29.6268 39.4053 29.6268 39.5243 29.7457C39.4053 30.1026 39.4053 30.5784 39.4053 30.9352L39.2863 31.411C39.1673 31.7678 39.1673 32.2436 39.2863 32.7194C39.4053 32.8384 39.4053 32.9573 39.5243 33.0763C39.8812 33.5521 40.476 33.5521 40.714 33.5521C40.714 33.9089 40.8329 34.1468 40.8329 34.5037Z" fill="#00023B"/>
<path d="M61.8906 10C53.5626 10 46.7812 16.7801 46.7812 25.1066C46.7812 28.9129 48.2089 32.6004 50.8263 35.3362L51.4211 36.0499L50.8263 36.8825C50.8263 36.8825 50.7073 37.0015 50.5883 37.1204C50.2314 37.5962 49.8745 38.072 49.6366 38.4289C49.2796 38.9047 48.8038 39.2615 48.6848 39.8563C48.5658 40.451 48.9227 40.9268 49.5176 40.9268C50.5883 41.0458 51.5401 41.0458 52.6108 40.8079C53.5626 40.57 54.5144 40.451 55.3472 39.9752C55.942 39.7373 56.5369 39.2615 57.2507 39.4994C58.7974 39.9752 60.344 40.2131 61.8906 40.2131C70.2186 40.3321 77 33.552 77 25.2255C77 16.8991 70.2186 10 61.8906 10ZM61.8906 37.5962C54.9903 37.5962 49.3986 32.0056 49.3986 25.1066C49.3986 18.2075 54.9903 12.6169 61.8906 12.6169C68.7909 12.6169 74.3826 18.2075 74.3826 25.1066C74.3826 32.0056 68.7909 37.5962 61.8906 37.5962Z" fill="#17C86B"/>
<path d="M68.9104 23.9169L62.6049 27.4854C62.367 28.0801 61.8911 28.437 61.2962 28.6749C61.0583 28.6749 60.9393 28.7938 60.7014 28.7938C59.8686 28.7938 59.1547 28.318 58.7978 27.4854L54.8718 25.4632C54.2769 25.2253 53.92 24.5116 54.2769 23.7979C54.3959 23.4411 54.7528 23.2032 55.1097 23.0842C55.3477 22.9653 55.7046 22.9653 55.9425 23.0842L60.3445 24.7495C60.7014 24.6306 60.9393 24.6306 61.2962 24.7495L67.7207 21.5379C67.9586 21.4189 68.0776 21.4189 68.3155 21.4189C68.7914 21.4189 69.2673 21.6568 69.3863 22.1326C69.3863 22.2516 69.5052 22.2516 69.5052 22.3705C69.7432 23.0842 69.5052 23.679 68.9104 23.9169Z" fill="#17C86B"/>
</svg>
