<svg width="80" height="80" viewBox="0 0 80 80" fill="none" xmlns="http://www.w3.org/2000/svg">
<path fill-rule="evenodd" clip-rule="evenodd" d="M55.4556 57.8616L54.2344 50.3368C54.0871 49.6589 54.0418 48.9869 54.1261 48.3237L54.4174 43.2884C54.449 42.7509 54.2918 42.5291 54.0057 42.1005L50.4119 36.7146L46.698 39.0608C46.0714 39.4119 45.3741 39.5636 44.6668 39.4253L39.4333 38.6536C39.2641 38.6284 39.1085 38.5875 38.9666 38.5337L38.6553 39.0724L39.8854 39.3532C41.2829 39.6727 43.1346 40.4028 44.3713 41.1222C44.9009 41.4763 45.2357 41.8608 45.4443 42.286C45.7848 42.9797 45.7713 44.4106 45.7457 45.2118L45.4897 47.8479L45.9493 48.4978C46.1599 48.8772 46.2299 49.3572 46.1799 49.9234L45.5571 53.9647C45.4254 54.9282 44.7057 55.6329 43.679 55.8157C40.8311 56.3247 38.506 56.3344 35.6662 56.3346C34.6331 57.884 33.0834 59.06 31.2622 59.6174H47.6047C47.0329 59.1598 46.7962 58.402 46.9584 57.4713L48.0863 48.4033C48.2002 47.8145 48.4516 47.3766 48.813 47.0587L53.443 42.5177C53.6237 42.7849 53.7381 42.9105 53.7181 43.2476L53.4275 48.2598C53.4165 48.3544 53.4072 48.4484 53.4006 48.5426L51.808 49.8578L50.8713 58.1555C50.795 58.7564 50.5349 59.2726 50.1467 59.6172H56.3582C55.9277 59.2714 55.5874 58.6978 55.4556 57.8616ZM26.4723 59.6174C24.6517 59.06 23.1026 57.8845 22.0695 56.3358L4 56.3369V38.1027L17.4868 38.4958C18.3063 38.5814 19.4163 37.3044 17.6185 36.369L7.82359 32.5211C6.55732 32.0724 5.28867 31.8197 4.00011 31.6598V29.4188C5.52186 29.6047 6.99262 29.9011 8.55171 30.4287C12.5754 31.9164 16.7826 33.645 20.8496 34.9708L30.1386 21.9935C30.9726 20.8288 32.361 19.4044 33.5024 18.5425C34.0334 18.1912 34.5181 18.0307 34.9912 18.0028C35.2928 17.9844 35.677 18.0591 36.0767 18.1773L23.6285 35.6409L36.7185 38.6302L39.5223 33.7832L39.2907 32.5696L39.9216 31.4566L41.0395 30.8838L41.2689 31.0136L40.5373 32.3065C40.4895 32.3912 40.5188 32.4998 40.6042 32.5482L41.6892 33.162C41.7746 33.2101 41.8838 33.1792 41.9311 33.0952L42.6628 31.8021L42.8924 31.9318L42.9773 33.1856L42.3464 34.2982L41.164 34.7354L40.6191 35.6769L44.6392 36.0126C44.8043 36.018 44.9347 35.967 45.0421 35.8759C45.9179 35.0851 48.4732 32.9151 49.5045 32.0142C50.5623 31.0902 51.4358 30.4239 52.9551 30.6187C54.103 30.7652 55.1106 31.4743 55.5952 32.5263L58.9965 39.3194C59.4542 40.536 59.5735 41.7675 59.3518 43.0153L58.4131 47.6139C58.3132 48.1573 58.3113 48.7628 58.3811 49.4152L59.4346 57.1275C59.6982 58.2726 59.3189 59.1412 58.702 59.6175H66V61.957H4V59.6175L26.4723 59.6174ZM28.8674 46.3659C31.8853 46.3659 34.3319 48.8091 34.3319 51.8225C34.3319 54.8359 31.8853 57.2791 28.8674 57.2791C25.8494 57.2791 23.4029 54.8359 23.4029 51.8225C23.4029 48.8091 25.8494 46.3659 28.8674 46.3659ZM45.709 28.5356C45.7156 28.5629 45.722 28.5907 45.7294 28.6186C46.1781 30.2887 47.8979 31.2792 49.5704 30.8312C51.2433 30.3834 52.2354 28.6662 51.7863 26.9955C51.4219 22.4258 44.9428 23.3448 45.0936 27.1612C45.1011 27.3419 45.0477 27.5563 44.8695 27.6384L43.3389 28.3447C42.9944 28.5031 43.3383 28.86 43.5889 29.0431C43.7135 29.1344 43.8504 29.1187 44.0855 29.0448L45.709 28.5356Z" fill="#00023B"/>
<path fill-rule="evenodd" clip-rule="evenodd" d="M45.709 28.5357C45.7156 28.563 45.722 28.5908 45.7294 28.6187C46.1781 30.2888 47.8979 31.2794 49.5704 30.8313C51.2433 30.3835 52.2354 28.6663 51.7863 26.9956C51.4219 22.426 44.9428 23.345 45.0936 27.1614C45.1011 27.342 45.0477 27.5564 44.8695 27.6385L43.3389 28.3448C42.9944 28.5033 43.3383 28.8601 43.5889 29.0432C43.7135 29.1345 43.8504 29.1188 44.0855 29.045L45.709 28.5357Z" fill="#17C86B"/>
</svg>
