<svg width="80" height="80" viewBox="0 0 80 80" fill="none" xmlns="http://www.w3.org/2000/svg">
<g clip-path="url(#clip0)">
<path d="M32.5 36.5L36 32.5H41.5L42.5 53L37.5 59.5L32.5 54V36.5Z" fill="#17C86B"/>
<path d="M30.7949 32.1328V32.2071H30.8896C30.858 32.1821 30.8257 32.1582 30.7949 32.1328Z" fill="#00023B"/>
<path d="M36.0308 32.2071H38.6886C42.5625 31.5722 45.518 28.2113 45.518 24.1583C45.518 19.6524 41.866 16 37.3597 16C32.8542 16 29.2014 19.6524 29.2014 24.1583C29.2014 28.2117 32.1576 31.5722 36.0308 32.2071Z" fill="#00023B"/>
<path d="M27.5533 97.5172C27.5533 99.9937 29.5609 102 32.036 102C34.5118 102 36.5194 99.9937 36.5194 97.5172V64.7858H38.2V97.5172C38.2 99.9937 40.2077 102 42.6827 102C45.1585 102 47.1662 99.9937 47.1662 97.5172V61.9833V55.1162V43.2178C47.8464 44.6467 48.5317 46.7516 49.0027 49.8169C49.0031 49.8209 49.0045 49.8245 49.0052 49.8282C49.3925 52.3427 49.6372 55.486 49.6365 59.3795C49.6372 61.3785 49.5731 63.5747 49.4313 65.9867C49.3475 67.4229 50.3247 68.6738 51.683 68.982V70.4647H50.2022C49.4012 70.4647 48.7518 71.1141 48.7518 71.915V86.6609C48.7518 87.4619 49.4012 88.1113 50.2022 88.1113H54.7947C55.5957 88.1113 56.2451 87.4619 56.2451 86.6609V71.915C56.2451 71.1141 55.5957 70.4647 54.7947 70.4647H53.3146V68.8816C54.3705 68.4983 55.153 67.519 55.223 66.3268C55.3705 63.8119 55.4387 61.5025 55.4387 59.3799C55.4387 55.2388 55.1802 51.8032 54.7367 48.9326C53.7856 42.7888 51.9872 39.1488 49.8718 36.9576C47.7641 34.7527 45.392 34.3234 44.3615 34.3513C44.1295 34.3521 43.9533 34.3673 43.8391 34.3825H30.8743C30.8728 34.3825 30.8713 34.3818 30.8703 34.3818V34.3811C30.7618 34.368 30.5878 34.3528 30.3576 34.3521C29.4239 34.3267 27.3898 34.6809 25.4477 36.3869C25.2461 36.5639 25.0452 36.7506 24.8473 36.958C23.0006 38.8703 21.3958 41.8882 20.3852 46.7095C20.238 47.4119 20.1031 48.1516 19.9824 48.9322C19.9824 48.9322 19.9824 48.9326 19.9824 48.9329V48.9322C19.5393 51.8032 19.2808 55.2388 19.2808 59.3795C19.2808 61.5021 19.3482 63.8119 19.4961 66.3264C19.5864 67.8674 20.8646 69.0575 22.3896 69.0575C22.4465 69.0575 22.5038 69.0556 22.5619 69.052C24.1609 68.9585 25.381 67.5853 25.2878 65.9863C25.1457 63.5747 25.0819 61.3781 25.0826 59.3792C25.0819 55.4879 25.3266 52.3456 25.7135 49.8318C25.7142 49.8264 25.7157 49.8216 25.7168 49.8162C26.1885 46.7472 26.8734 44.6417 27.5536 43.2134V54.3845L25.897 55.5071C25.8756 55.9483 25.8589 56.3987 25.8451 56.8559L27.3999 55.8029L33.9066 65.4094L21.7478 73.6442L15.2415 64.0377L18.5864 61.7723C18.5766 61.3343 18.5694 60.9013 18.5646 60.4731L13.7302 63.7473L21.4574 75.1555L25.3781 72.4999L27.5536 71.0263V97.5172H27.5533ZM35.9813 37.35H37.3596H38.737L39.426 40.0694L39.3212 40.2347C38.7534 40.7083 38.0579 40.9454 37.3588 40.9461C36.6597 40.9454 35.9658 40.709 35.3983 40.2366L35.2924 40.0694L35.9813 37.35ZM35.899 41.766C36.3693 41.9422 36.8643 42.0343 37.3588 42.0339H37.3596H37.3617C37.8559 42.0339 38.3501 41.9418 38.8197 41.7656L40.8045 56.386L37.3599 60.7371L33.9153 56.386L35.899 41.766Z" fill="#00023B"/>
<path d="M26.5907 59.29L25.9963 59.7054L29.987 65.4146L30.5814 64.9991L26.5907 59.29Z" fill="#00023B"/>
<path d="M25.8999 63.6536C25.918 64.1006 25.9391 64.5528 25.9626 65.0093L27.4493 67.137L28.0435 66.7222L25.8999 63.6536Z" fill="#00023B"/>
</g>
<defs>
<clipPath id="clip0">
<rect width="80" height="80" fill="white"/>
</clipPath>
</defs>
</svg>
