<svg width="80" height="80" viewBox="0 0 80 80" fill="none" xmlns="http://www.w3.org/2000/svg">
<g clip-path="url(#clip0)">
<path d="M42.3743 55.094L56.8042 57.8819L59.0418 53.3241L61.4656 48.387L68.7079 33.6349C69.9268 31.1521 73.3798 30.3405 76.4052 31.8258L92.7103 39.8306C92.9777 39.9619 93.0861 40.2894 92.9522 40.5621L88.5893 49.4489C88.4555 49.7215 88.1301 49.8361 87.8627 49.7049L77.2089 44.4745C76.942 44.3435 76.6159 44.4583 76.4823 44.7305L72.1194 53.6173L69.6956 58.5544L66.5446 64.9727L64.3632 69.4161C63.695 70.7771 62.065 71.3513 60.73 70.6959L60.2452 71.6833C59.9779 72.2279 59.3261 72.4575 58.7919 72.1953L57.8234 71.7198C57.2892 71.4576 57.0723 70.8015 57.3396 70.2569L57.8244 69.2695L56.3716 68.5562L55.8868 69.5437C55.6195 70.0882 54.9677 70.3178 54.4336 70.0556L53.465 69.5801C52.9309 69.3179 52.7139 68.6618 52.9813 68.1172L53.466 67.1298L52.0132 66.4165L51.5285 67.404C51.2611 67.9486 50.6093 68.1781 50.0752 67.9159L49.1067 67.4404C48.5725 67.1782 48.3556 66.5221 48.6229 65.9775L49.1077 64.9901L47.6549 64.2769L47.1701 65.2643C46.9028 65.8089 46.251 66.0385 45.7168 65.7762L44.7483 65.3007C44.2141 65.0385 43.9972 64.3824 44.2645 63.8378L44.7493 62.8504L43.2965 62.1372L42.8118 63.1246C42.5444 63.6692 41.8926 63.8988 41.3585 63.6365L40.3899 63.1611C39.8558 62.8988 39.6388 62.2427 39.9062 61.6982L40.3909 60.7107C39.0559 60.0553 38.5133 58.4145 39.1815 57.0535L39.407 56.5942C39.9534 55.4812 41.1733 54.8643 42.3743 55.094ZM68.4847 58.5726L59.768 54.2933L57.7953 58.3114L65.8575 63.9239L68.4847 58.5726ZM77.6937 43.4871L87.8632 48.4797L91.7413 40.5803L75.9205 32.8133C73.4292 31.5902 70.6281 32.172 69.6765 34.1104L62.6765 48.3687L71.3933 52.6481L75.5137 44.255C75.9147 43.4383 76.8926 43.0938 77.6937 43.4871ZM58.3074 70.732L59.2767 71.2079L59.7614 70.2204L58.7927 69.7448L58.3074 70.732ZM53.9491 68.5923L54.9183 69.0682L55.4031 68.0807L54.4343 67.6051L53.9491 68.5923ZM49.5907 66.4527L50.56 66.9285L51.0447 65.9411L50.076 65.4655L49.5907 66.4527ZM45.2324 64.313L46.2016 64.7888L46.6864 63.8014L45.7176 63.3258L45.2324 64.313ZM40.874 62.1733L41.8432 62.6491L42.328 61.6617L41.3592 61.1861L40.874 62.1733Z" fill="#00023B"/>
<path d="M48.9182 58.4755L55.0355 59.2508C55.3503 59.2919 55.5991 59.5522 55.5935 59.8351C55.5878 60.1181 55.3291 60.315 55.0153 60.2754L48.8981 59.5001C48.8235 59.4904 48.7526 59.4687 48.6879 59.4369C48.4801 59.3349 48.336 59.1314 48.34 58.9158C48.3457 58.6328 48.6045 58.4359 48.9182 58.4755Z" fill="white"/>
<path d="M38 22C30.2799 22 24 28.2808 24 36C24 43.7192 30.2799 50 38 50C45.7192 50 52 43.7192 52 36C52 28.2808 45.7192 22 38 22ZM44.125 44.1314L42.3575 41.6997L44.3997 35.412L47.2111 34.4976L50.586 36.9494C50.3813 39.6724 49.3181 42.1583 47.6548 44.1296L44.125 44.1314ZM48.29 28.6946L46.8086 33.2534L43.7479 34.2483L38.6536 30.5479V27.3944L42.8598 24.3406C45.0516 25.2585 46.9259 26.7819 48.29 28.6946ZM33.142 24.3406L37.3464 27.3944V30.5479L32.2539 34.2483L29.1923 33.2525L27.7109 28.6946C29.0733 26.7819 30.9475 25.2585 33.142 24.3406ZM28.3426 44.1296C26.6801 42.1583 25.6179 39.6724 25.4131 36.9494L28.7871 34.4976L31.5985 35.412L33.6425 41.6997L31.875 44.1314L28.3426 44.1296ZM33.9242 47.9473L32.9338 44.8988L34.6094 42.5914H41.3889L43.0654 44.8988L42.0758 47.9473C40.7939 48.3848 39.4271 48.6341 38 48.6341C36.5737 48.6341 35.2044 48.3848 33.9242 47.9473Z" fill="#17C86B"/>
</g>
<defs>
<clipPath id="clip0">
<rect width="80" height="80" fill="white"/>
</clipPath>
</defs>
</svg>
