<svg width="80" height="80" viewBox="0 0 80 80" fill="none" xmlns="http://www.w3.org/2000/svg">
<g clip-path="url(#clip0)">
<path d="M64.7229 44.652H52.9183C52.8921 44.6372 52.8652 44.6228 52.8368 44.6091L41.9236 39.3307C42.8294 38.618 43.4116 37.5161 43.4116 36.2815C43.4116 34.4662 42.1532 32.9377 40.4578 32.5121V21.1078C43.042 20.6559 45.0117 18.4089 45.0117 15.7131C45.0117 14.3487 44.507 13.0993 43.6736 12.1393H46.0542C46.5869 12.1393 47.1286 11.8103 47.3715 11.3393L49.7806 6.66851C49.9716 6.2981 49.9619 5.87566 49.7545 5.53846C49.5472 5.20129 49.1734 5 48.7545 5H30.2455C29.8267 5 29.4528 5.20129 29.2455 5.53843C29.0381 5.87559 29.0284 6.29804 29.2194 6.66851L31.6285 11.3393C31.8714 11.8103 32.4131 12.1393 32.9458 12.1393H35.3264C34.493 13.0993 33.9883 14.3487 33.9883 15.7131C33.9883 18.4089 35.958 20.6559 38.5421 21.1078V33.3459C38.5421 33.8716 38.971 34.2978 39.5 34.2978C40.6006 34.2978 41.496 35.1877 41.496 36.2815C41.496 37.3753 40.6006 38.2652 39.5 38.2652C38.3994 38.2652 37.504 37.3753 37.504 36.2815C37.504 35.7557 37.0751 35.3295 36.5461 35.3295C36.0171 35.3295 35.5883 35.7557 35.5883 36.2815C35.5883 37.5161 36.1705 38.618 37.0763 39.3307L26.163 44.6091C26.1347 44.6228 26.1078 44.6372 26.0817 44.652H14.2771C13.5729 44.652 13 45.2236 13 45.9261V66.7259C13 67.4284 13.5729 68 14.2771 68H64.7229C65.4271 68 66 67.4284 66 66.7259V45.9261C66 45.2236 65.4271 44.652 64.7229 44.652ZM31.4935 6.90382H47.5065L45.7881 10.2355H33.2119L31.4935 6.90382ZM35.904 15.7131C35.904 13.7425 37.5171 12.1393 39.5 12.1393C41.4829 12.1393 43.096 13.7425 43.096 15.7131C43.096 17.6837 41.4829 19.2869 39.5 19.2869C37.5171 19.2869 35.904 17.6837 35.904 15.7131ZM26.4096 46.5558H26.6145H30.1133V66.0962H26.4096V46.5558ZM24.494 66.0962H20.7904V46.5558H24.494V66.0962ZM32.0289 46.5558H35.7325V66.0962H32.0289V46.5558ZM37.6482 46.5558H41.3518V66.0962H37.6482V46.5558ZM43.2675 46.5558H46.9711V66.0962H43.2675V46.5558ZM48.8867 46.5558H52.3855H52.5904V66.0962H48.8867V46.5558ZM54.506 46.5558H58.2096V66.0962H54.506V46.5558ZM39.5 40.2757L48.5479 44.652H30.4521L39.5 40.2757ZM14.9157 46.5558H18.8747V66.0962H14.9157V46.5558ZM64.0843 66.0962H60.1253V46.5558H64.0843V66.0962Z" fill="#00023B"/>
<path d="M12.5 58.5C7.3 58.1 3 61.3333 1.5 63L3 80.5L43.5 83.5L81.5 82L78.5 63C74.8333 64.5 66.7 66.9 63.5 64.5C59.5 61.5 51 58.5 48 58C45 57.5 40 63 35 65C31 66.6 26.6667 66 25 65.5C23 63.3333 17.7 58.9 12.5 58.5Z" fill="white"/>
<path fill-rule="evenodd" clip-rule="evenodd" d="M2.65047 63.5523C1.20195 65.0009 -0.970821 62.8281 0.477695 61.3796C6.36229 55.495 15.9587 55.5855 21.7528 61.3796C26.732 65.363 33.8841 65.363 38.8634 61.3796C44.6574 55.5855 54.1633 55.495 60.1384 61.3796C65.4798 65.7251 73.2656 65.5441 78.4259 60.8364C79.0597 60.2932 79.965 60.3837 80.5987 61.0174C81.1419 61.6512 81.0514 62.5565 80.4176 63.1902C74.0804 68.8032 64.5745 68.9843 58.0562 63.6429C52.9864 58.5731 46.0154 59.1163 40.8551 63.6429C34.7894 68.7127 25.7362 68.7127 19.6705 63.6429C14.9628 58.9352 7.44868 58.7541 2.65047 63.5523Z" fill="#17C86B"/>
</g>
<defs>
<clipPath id="clip0">
<rect width="80" height="80" fill="white"/>
</clipPath>
</defs>
</svg>
