<svg width="72" height="72" viewBox="0 0 72 72" fill="none" xmlns="http://www.w3.org/2000/svg">
<path d="M24.8317 6.26578H22.2528V3.66882C22.2528 3.36081 22.0049 3.11108 21.699 3.11108H19.1626C18.8568 3.11108 18.6088 3.36081 18.6088 3.66882V6.26578H16.0299C15.7241 6.26578 15.4761 6.51551 15.4761 6.82352V9.37745C15.4761 9.68546 15.7241 9.93519 16.0299 9.93519H18.6088V12.5324C18.6088 12.8404 18.8568 13.0902 19.1626 13.0902H21.699C22.0049 13.0902 22.2528 12.8404 22.2528 12.5324V9.93519H24.8317C25.1375 9.93519 25.3855 9.68546 25.3855 9.37745V6.82352C25.3855 6.51551 25.1375 6.26578 24.8317 6.26578Z" fill="#17C86B"/>
<path d="M0.553846 71.1H10.5444H30.0775H40.1411H69.4877C69.7935 71.1 70.0415 70.8503 70.0415 70.5423V32.0636H71.4462C71.752 32.0636 72 31.8139 72 31.5059V26.6589C72 26.3509 71.752 26.1012 71.4462 26.1012H40.695V15.6436C40.695 15.3356 40.447 15.0859 40.1411 15.0859H28.2456V3.0218C28.2456 1.35567 26.8997 0 25.2452 0H15.6164C13.9619 0 12.6157 1.35567 12.6157 3.0218V15.0859H0.553846C0.247987 15.0859 0 15.3356 0 15.6436V70.5423C0 70.8503 0.247987 71.1 0.553846 71.1ZM40.695 27.2166H70.8923V30.9481H69.4877H40.695V27.2166ZM40.695 32.0636H68.9338V69.9845H40.695V32.0636ZM19.7935 69.9845H11.0983V52.2688H19.7935V69.9845ZM29.5237 69.9845H20.9012V52.2688H29.5237V69.9845ZM30.0775 51.1481H10.5444C10.5354 51.1481 10.5279 51.1529 10.519 51.1533H8.92103V48.3766H31.8678V51.1533H30.103C30.0941 51.1529 30.0865 51.1481 30.0775 51.1481ZM13.7234 3.0218C13.7234 1.9706 14.5725 1.11547 15.6164 1.11547H25.2452C26.2888 1.11547 27.1379 1.9706 27.1379 3.0218V15.0859H13.7234V3.0218Z" fill="#00023B"/>
<path d="M12.4255 41.7316V34.2643C12.4255 33.9563 12.1775 33.7065 11.8717 33.7065H5.71473C5.40888 33.7065 5.16089 33.9563 5.16089 34.2643V41.7316C5.16089 42.0396 5.40888 42.2894 5.71473 42.2894H11.8717C12.1775 42.2894 12.4255 42.0396 12.4255 41.7316ZM11.3178 41.1739H6.26858V34.822H11.3178V41.1739Z" fill="white"/>
<path d="M17.2692 42.2894H23.4261C23.732 42.2894 23.98 42.0396 23.98 41.7316V34.2643C23.98 33.9563 23.732 33.7065 23.4261 33.7065H17.2692C16.9633 33.7065 16.7153 33.9563 16.7153 34.2643V41.7316C16.7153 42.0396 16.9633 42.2894 17.2692 42.2894ZM17.823 34.822H22.8723V41.1739H17.823V34.822Z" fill="white"/>
<path d="M28.8097 42.2894H34.9799C35.2858 42.2894 35.5337 42.0396 35.5337 41.7316V34.2643C35.5337 33.9563 35.2858 33.7065 34.9799 33.7065H28.8097C28.5038 33.7065 28.2559 33.9563 28.2559 34.2643V41.7316C28.2559 42.0396 28.5038 42.2894 28.8097 42.2894ZM29.3636 34.822H34.4261V41.1739H29.3636V34.822Z" fill="white"/>
<path d="M5.71473 27.9695H11.8717C12.1775 27.9695 12.4255 27.7198 12.4255 27.4118V19.9449C12.4255 19.6369 12.1775 19.3872 11.8717 19.3872H5.71473C5.40888 19.3872 5.16089 19.6369 5.16089 19.9449V27.4118C5.16089 27.7198 5.40888 27.9695 5.71473 27.9695ZM6.26858 20.5027H11.3178V26.854H6.26858V20.5027Z" fill="white"/>
<path d="M17.2692 27.9695H23.4261C23.732 27.9695 23.98 27.7198 23.98 27.4118V19.9449C23.98 19.6369 23.732 19.3872 23.4261 19.3872H17.2692C16.9633 19.3872 16.7153 19.6369 16.7153 19.9449V27.4118C16.7153 27.7198 16.9633 27.9695 17.2692 27.9695ZM17.823 20.5027H22.8723V26.854H17.823V20.5027Z" fill="white"/>
<path d="M28.8097 27.9695H34.9799C35.2858 27.9695 35.5337 27.7198 35.5337 27.4118V19.9449C35.5337 19.6369 35.2858 19.3872 34.9799 19.3872H28.8097C28.5038 19.3872 28.2559 19.6369 28.2559 19.9449V27.4118C28.2559 27.7198 28.5038 27.9695 28.8097 27.9695ZM29.3636 20.5027H34.4261V26.854H29.3636V20.5027Z" fill="white"/>
<path d="M65.3207 36.9055H44.2247C43.9189 36.9055 43.6709 37.1552 43.6709 37.4633V43.7743C43.6709 44.0823 43.9189 44.332 44.2247 44.332H65.3207C65.6265 44.332 65.8745 44.0823 65.8745 43.7743V37.4633C65.8745 37.1552 65.6265 36.9055 65.3207 36.9055ZM64.7668 43.2165H44.7786V38.021H64.7668V43.2165Z" fill="#9DC0BC"/>
<path d="M65.3207 51.5229H44.2247C43.9189 51.5229 43.6709 51.7727 43.6709 52.0807V58.392C43.6709 58.7 43.9189 58.9497 44.2247 58.9497H65.3207C65.6265 58.9497 65.8745 58.7 65.8745 58.392V52.0807C65.8745 51.7727 65.6265 51.5229 65.3207 51.5229ZM64.7668 57.8342H44.7786V52.6384H64.7668V57.8342Z" fill="#9DC0BC"/>
</svg>
