<svg width="80" height="80" viewBox="0 0 80 80" fill="none" xmlns="http://www.w3.org/2000/svg">
<path fill-rule="evenodd" clip-rule="evenodd" d="M50.9376 14.6279C51.7712 12.2778 52.3017 9.01796 51.9986 5C61.9262 12.4294 65.3364 26.1511 65.3364 32.7466C65.3364 41.3132 58.9706 45.4828 50.5587 45.2554C45.557 45.1037 40.4038 39.797 40.4038 34.7935C40.4038 33.6564 40.7069 32.595 41.3132 31.6853C46.1633 23.4219 48.2094 16.1441 46.6938 10.4584L50.9376 14.6279ZM50.0282 42.602C46.3907 42.2988 43.3049 38.1389 43.5322 34.5C44.0322 28.5 49.5322 25.6205 49.8767 23.2703C50.6345 24.1042 51.3165 24.8623 51.9228 25.6205C52.908 24.1042 53.9689 22.1332 54.8783 19.1008C60.4105 25.5446 61.9262 28.8803 61.623 33.2015C61.3199 39.1905 58.2128 43.2843 50.0282 42.602Z" fill="#17C86B"/>
<path fill-rule="evenodd" clip-rule="evenodd" d="M57.9096 46.1651V67.6195H37.2967V47.9087H25.7019V67.6195H20.776V45.4828L39.3428 29.4868L40.0248 30.0933L39.6459 30.6998C38.8881 31.9127 38.5092 33.2773 38.5092 34.7935C38.5092 40.8584 44.4203 46.999 50.4829 47.1506C53.1353 47.2264 55.6361 46.9232 57.9096 46.1651ZM11 42.9811L34.7958 22.5122L39.5702 18.4185L43.814 22.0574C43.0562 24.1042 42.1468 26.1511 41.1616 27.9706L39.5702 26.606L15.7743 47.0748L11 42.9811ZM65.2606 40.5551L68.0645 42.9811L63.2902 47.0748L60.7894 44.8763C62.6082 43.815 64.1238 42.3746 65.2606 40.5551ZM52.9079 60.6449H47.1484V54.8833H52.9079V60.6449ZM40.1764 60.6449H45.9359L46.0117 54.8833H40.1764V60.6449ZM52.9079 47.9087H47.1484V53.7461H52.9079V47.9087ZM40.1764 47.9087H45.9359L46.0117 53.7461H40.1764V47.9087Z" fill="#00023B"/>
</svg>
