<svg width="80" height="80" viewBox="0 0 80 80" fill="none" xmlns="http://www.w3.org/2000/svg">
<path d="M33.6964 62.5777C33.6964 63.1691 33.6964 63.9822 33.5498 64.7213L33.1833 72.0391C33.1833 72.5565 32.7435 73 32.2305 73L20.9426 72.9261C20.4296 72.9261 19.9898 72.4826 19.9898 71.9652L19.7699 65.9779L8.99515 52.8207C7.38261 51.1206 6.35644 49.1988 5.98996 46.9074L5.91666 46.2421L4.01092 27.9847C3.93762 27.0977 4.23081 26.1367 4.96379 25.6193C5.77006 24.9541 7.16272 24.6584 8.11558 25.8411C8.84856 26.6542 9.14175 29.1673 9.28834 29.8326C9.65483 32.1979 10.0946 35.672 10.1679 38.0374C10.1679 38.1852 10.1679 38.4069 10.1679 38.5548C10.2412 39.5896 10.4611 40.6244 10.9009 41.5854C13.3197 46.9074 18.1573 53.5599 18.1573 53.5599L18.4505 53.9295C18.6704 54.2251 19.0369 54.299 19.4034 54.1512C19.7699 53.9295 19.8432 53.486 19.6966 53.1164L13.2464 42.5463C12.5867 41.3636 12.9532 39.7374 14.1993 38.9244C15.4453 38.1113 17.1312 38.5548 17.7909 39.7374L24.4609 48.3857C24.9007 48.977 25.707 49.7901 26.2934 50.1597C32.3038 54.5208 33.11 58.9558 33.6231 61.2472C33.6231 61.3211 33.6964 61.8386 33.6964 62.5777ZM10.8276 27.0977C11.0475 27.7629 11.1208 28.3543 11.2674 29.0195C11.6339 31.0892 12.1469 34.785 12.1469 36.7808C12.1469 37.0025 12.1469 37.1504 12.1469 37.3721C12.3668 37.1504 12.5867 37.0025 12.8799 36.8547C13.1731 36.6329 13.5396 36.4851 13.9061 36.4112C13.9061 36.4112 13.9061 36.3373 13.9794 36.3373C13.7595 34.4154 13.0998 30.8674 12.5867 29.0195C12.2935 28.0586 11.7805 27.3933 10.8276 27.0977ZM14.4192 29.6848C14.7124 31.0892 15.5186 33.6023 15.6652 34.9328L15.8118 35.8198C15.8118 35.8938 15.8118 35.9677 15.8118 36.1155C16.3982 36.1155 16.9113 36.2634 17.4244 36.4112C17.2778 35.1546 16.4715 32.7153 16.105 31.6066C15.8851 30.6457 15.2987 29.9804 14.4192 29.6848ZM72.031 25.7672C71.298 26.5802 71.0048 29.0934 70.8583 29.7587C70.4918 32.124 70.052 35.5981 69.9787 37.9634C69.9787 38.1113 69.9787 38.333 69.9787 38.4809C69.9054 39.5157 69.6855 40.5505 69.2457 41.5114C66.8269 46.8335 61.9893 53.486 61.9893 53.486L61.6961 53.8555C61.4762 54.1512 61.1097 54.2251 60.7432 54.0773C60.3767 53.8556 60.3034 53.4121 60.45 53.0425L66.9002 42.4724C67.5599 41.2897 67.1934 39.6635 65.9473 38.8504C64.7013 38.0374 63.0154 38.4809 62.3557 39.6635L55.6857 48.3118C55.2459 48.9031 54.4396 49.7162 53.8532 50.0858C47.8428 54.4469 47.0366 58.8819 46.5235 61.1733C46.5235 61.1733 46.4502 61.6907 46.4502 62.4299C46.4502 63.0212 46.4502 63.7604 46.5968 64.5735L46.9633 71.8913C46.9633 72.4087 47.403 72.8522 47.9161 72.8522L59.2039 72.7783C59.717 72.7783 60.1568 72.3348 60.1568 71.8173L60.3767 65.8301L71.0781 52.8207C72.6907 51.1206 73.7169 49.1988 74.0833 46.9074L74.1566 46.2421L75.9891 27.9847C76.0624 27.0977 75.7692 26.1367 75.0362 25.6193C74.3765 24.8802 72.9839 24.6584 72.031 25.7672ZM67.6332 28.9456C67.1201 30.7935 66.4604 34.3415 66.2405 36.2633C66.2405 36.2633 66.2405 36.3373 66.3138 36.3373C66.6803 36.4851 66.9735 36.6329 67.34 36.7808C67.6332 36.9286 67.8531 37.1504 68.0729 37.2982C68.0729 37.0764 68.0729 36.9286 68.0729 36.7069C68.1462 34.7111 68.586 31.0153 68.9525 28.9456C69.0258 28.3543 69.1724 27.689 69.3923 27.0237C68.3661 27.3933 67.8531 28.0586 67.6332 28.9456ZM62.7955 36.4112C63.3086 36.1894 63.8217 36.1155 64.4081 36.1155C64.4081 36.0416 64.4081 35.9677 64.4081 35.8198L64.5547 34.9328C64.7013 33.6023 65.5075 31.0892 65.8007 29.6848C64.9212 29.9804 64.3348 30.6457 64.1149 31.6066C63.7484 32.7153 62.9421 35.1546 62.7955 36.4112Z" fill="#00023B"/>
<path d="M58 19.9695C58 17.277 56.9565 14.8028 55.0186 12.9108C53.0807 11.0188 50.5466 10 47.7888 10C45.0311 10 42.4969 11.0188 40.559 12.9108L40.0373 13.493L39.441 12.9108C37.5031 11.0188 34.9689 10 32.2112 10C29.5279 10 26.9193 11.0188 24.9814 12.9108C23.0435 14.8028 22 17.277 22 19.9695C22 22.662 23.0435 25.1362 24.9814 27.0282L38.8447 40.5634C39.1429 40.8545 39.5155 41 39.9627 41C40.4099 41 40.7826 40.8545 41.0807 40.5634L54.9441 27.0282C56.9565 25.1362 58 22.662 58 19.9695Z" fill="#17C86B"/>
</svg>
