<svg width="80" height="80" viewBox="0 0 80 80" fill="none" xmlns="http://www.w3.org/2000/svg">
<g clip-path="url(#clip0)">
<path d="M37.2786 34.4407H40.6674C40.6674 34.6222 40.6069 34.8643 40.6069 35.1063C40.6069 40.4316 44.9034 44.728 50.2286 44.728C55.5538 44.728 59.8503 40.4316 59.8503 35.1063C59.8503 33.5935 59.4872 32.1412 58.8821 30.8704C58.8216 30.8704 58.7005 30.8704 58.64 30.8704H41.5751C41.5751 30.8704 41.5751 30.8704 41.5751 30.9309L37.0366 33.3514C36.4314 33.5935 36.6735 34.4407 37.2786 34.4407Z" fill="#00023B"/>
<path d="M40.9698 28.6919C41.0909 28.9339 41.3934 29.1154 41.696 29.1154H58.5794C59.0635 29.1154 59.4266 28.7524 59.4266 28.2683V25.4241C59.4266 25.0005 59.0635 24.6374 58.6399 24.5769L39.2754 23.0035C38.6098 22.943 38.1257 23.6692 38.4888 24.2743L40.9698 28.6919Z" fill="#00023B"/>
<path d="M39.8806 69.1152L57.5507 46.7855H42.7853C39.7596 46.7855 36.9154 48.1168 34.9185 50.3558L29.4722 56.5888C28.8066 57.3755 27.7173 57.6175 26.7491 57.3149L19.911 54.8339C17.793 54.0472 15.433 55.197 14.6463 57.3149C13.8596 59.4329 14.9489 61.793 17.1274 62.5797L23.9655 65.0607C28.1409 66.5736 32.74 65.3633 35.6446 62.035L39.8806 57.1939V69.1152Z" fill="#00023B"/>
<path d="M61.242 47.6932L42.4222 71.5962H56.4614V75.106H39.8806V78.0107C39.8806 79.4025 40.9699 80.4918 42.3617 80.4918H62.1497C63.5416 80.4918 64.6308 79.4025 64.6308 78.0107V53.5631C64.6308 51.082 63.2995 48.9035 61.242 47.6932Z" fill="#00023B"/>
<path d="M16.6432 51.566H27.3541C28.2618 51.566 28.9275 50.8399 28.9275 49.9927V33.896C28.9275 32.9882 28.2013 32.3226 27.3541 32.3226H26.8095V30.5677C26.8095 29.7205 26.1438 29.1154 25.3572 29.1154C25.2361 29.1154 25.0546 29.1154 24.9336 29.1759C24.9336 29.1759 17.0668 31.5359 16.2196 31.8385C15.3724 32.0805 15.0093 32.6252 15.0093 33.1698V49.9927C15.0698 50.8399 15.7354 51.566 16.6432 51.566ZM25.2966 30.3861C25.2966 30.3861 25.3572 30.3861 25.2966 30.3861C25.4177 30.3861 25.5387 30.4467 25.5387 30.5677V32.2621H19.0032L25.2966 30.3861Z" fill="#17C86B"/>
</g>
<defs>
<clipPath id="clip0">
<rect width="80" height="80" fill="white"/>
</clipPath>
</defs>
</svg>
