<svg width="80" height="80" viewBox="0 0 80 80" fill="none" xmlns="http://www.w3.org/2000/svg">
<path fill-rule="evenodd" clip-rule="evenodd" d="M41.3862 31.4929C49.7788 29.2441 58.3366 33.3142 61.768 40.7455L59.1794 41.4392C59.0851 41.4644 58.9928 41.4938 58.9034 41.5272C55.9202 35.6035 48.9554 32.4075 42.1219 34.2385C35.2933 36.0683 30.8612 42.3108 31.2324 48.9275L28.3614 49.6968C27.6176 41.5453 32.9937 33.7416 41.3862 31.4929ZM67.4734 39.2168C63.181 28.7538 51.4313 22.9157 39.9149 26.0015C33.8831 27.6177 29.0198 31.386 25.9732 36.2189L22.8599 35.295C20.2162 34.5104 17.0578 35.6577 15.8949 38.5021C14.0296 43.0643 13.3423 48.1154 14.1047 53.1996C14.6202 56.6373 18.1066 58.3302 21.1298 57.5201L24.1274 56.7169L29.8327 55.1881L32.7038 54.4188L38.5492 52.8526C38.0072 52.0773 37.5896 51.1987 37.3316 50.236C36.1127 45.6867 38.916 40.9831 43.5933 39.7298C48.2707 38.4766 53.0502 41.1483 54.2692 45.6976C54.5271 46.6602 54.6048 47.63 54.523 48.5724L60.3685 47.0061C60.3681 47.0015 60.3678 46.9969 60.3678 46.9922C60.4619 46.9764 60.5565 46.9557 60.6508 46.9305L63.2394 46.2369L68.9448 44.7081L69.1196 44.6613C70.6787 44.2435 71.6131 42.6756 71.2068 41.1592C70.8005 39.6428 69.2073 38.7522 67.6482 39.1699L67.4734 39.2168ZM22.656 51.2256C22.2042 47.8814 22.5333 44.5619 23.5235 41.4681L21.2157 40.7832C19.8316 44.2776 19.3095 48.1132 19.8328 51.982L22.656 51.2256ZM48.6234 47.2104C49.0297 48.7268 48.0952 50.2947 46.5361 50.7125C44.977 51.1302 43.3838 50.2396 42.9775 48.7232C42.5712 47.2068 43.5056 45.6389 45.0647 45.2212C46.6238 44.8034 48.217 45.694 48.6234 47.2104Z" fill="#00023B"/>
<path d="M40.9595 55.1496L28.3582 58.5261L32.2727 60.7143C32.2727 60.7143 35.7087 62.4716 31.129 65.1406L38.1039 69.0396L43.6369 67.557C43.6369 67.557 47.3399 66.3588 45.7579 71.5206L53.6621 69.4027L56.5842 64.4998C56.5842 64.4998 58.4321 61.1207 61.1028 65.555L65.1938 58.691L63.7518 53.3095C63.7518 53.3095 62.5757 49.7107 67.8416 51.1836L67.0324 48.1634L53.5842 51.7668C52.4851 53.8673 50.5157 55.5318 48.0076 56.2039C45.4994 56.8759 42.9616 56.4191 40.9595 55.1496Z" fill="#17C86B"/>
<path d="M60.1577 4.89486C60.0259 4.84138 59.8796 4.82204 59.7412 4.86189C59.5965 4.90355 59.48 5.00535 59.4209 5.15086L54.0532 18.3751C53.9942 18.5206 54.0068 18.6748 54.0815 18.8055C54.1529 18.9306 54.2714 19.0187 54.4031 19.0722C54.5349 19.1257 54.6813 19.145 54.8196 19.1051C54.9643 19.0635 55.0808 18.9617 55.1399 18.8162L60.5076 5.59193C60.5667 5.44642 60.5541 5.29221 60.4794 5.16151C60.4079 5.03648 60.2895 4.94834 60.1577 4.89486Z" fill="#17C86B" stroke="#17C86B" stroke-width="0.5"/>
<path d="M50.0102 10.5207C49.8651 10.5238 49.7213 10.567 49.6099 10.6633C49.4944 10.7631 49.4319 10.9053 49.4353 11.0615L49.5962 18.5761C49.5995 18.7324 49.668 18.8718 49.7877 18.9666C49.903 19.058 50.0486 19.095 50.1937 19.0919C50.3388 19.0888 50.4827 19.0456 50.594 18.9493C50.7095 18.8495 50.772 18.7073 50.7686 18.551L50.6078 11.0364C50.6044 10.8802 50.5359 10.7408 50.4162 10.646C50.3009 10.5546 50.1553 10.5176 50.0102 10.5207Z" fill="#17C86B" stroke="#17C86B" stroke-width="0.5"/>
<path d="M64.596 15.9378C64.4977 15.8349 64.3719 15.7573 64.2291 15.7371C64.08 15.716 63.932 15.7614 63.8186 15.8699L57.8803 21.5476C57.7668 21.6561 57.7148 21.8019 57.7292 21.9518C57.743 22.0953 57.8149 22.2245 57.9133 22.3273C58.0116 22.4302 58.1374 22.5078 58.2802 22.528C58.4293 22.5491 58.5773 22.5037 58.6907 22.3952L64.629 16.7175C64.7425 16.609 64.7944 16.4633 64.7801 16.3133C64.7663 16.1698 64.6944 16.0407 64.596 15.9378Z" fill="#17C86B" stroke="#17C86B" stroke-width="0.5"/>
</svg>
