<svg width="80" height="80" viewBox="0 0 80 80" fill="none" xmlns="http://www.w3.org/2000/svg">
<g clip-path="url(#clip0)">
<g clip-path="url(#clip1)">
<path d="M23.5 56.5H53L62.5 73L56 85L30 86L19.5 80L23.5 56.5Z" fill="#17C86B"/>
<path d="M24.5647 75.9562H34.8572L29.7101 62.297L24.5647 75.9562Z" fill="#00023B"/>
<path d="M45.0852 75.9562H55.3803L50.2323 62.297L45.0852 75.9562Z" fill="#00023B"/>
<path d="M-3 53.4314V60.9864H5.0582V89.6H75.2445V60.9864H82.9467V53.4314H-3ZM57.0753 76.7813C57.0607 76.8652 57.0289 76.9449 56.9859 77.0228C56.9798 77.0287 56.9798 77.0424 56.973 77.0544C56.9695 77.0587 56.9626 77.0604 56.9592 77.0647C56.9102 77.1306 56.8526 77.1888 56.7829 77.2402C56.7829 77.2402 54.2175 80.2541 50.2323 80.2541C46.3236 80.2541 43.6825 77.2402 43.6825 77.2402C43.6146 77.188 43.5561 77.1306 43.5062 77.0647C43.5036 77.0604 43.4976 77.0587 43.4933 77.0544C43.4899 77.0424 43.4899 77.0287 43.4813 77.0228C43.4374 76.9449 43.4047 76.8644 43.3918 76.7813C43.3875 76.7574 43.3815 76.7394 43.3772 76.718C43.3686 76.6298 43.3729 76.54 43.3987 76.4561C43.403 76.4415 43.4133 76.4364 43.4133 76.4278C43.4176 76.4218 43.4133 76.4141 43.4176 76.4099L49.2183 61.0019H46.4414H41.1481L41.1318 82.2495H46.0664V84.5795H33.7469V82.2495H38.7934L38.7943 61.0019H33.4984H30.7223L36.5265 76.4099C36.5282 76.4141 36.5265 76.4218 36.5282 76.4278C36.5299 76.4364 36.5393 76.4424 36.5437 76.4561C36.5669 76.54 36.5738 76.6298 36.5626 76.718C36.5609 76.7394 36.5566 76.7574 36.5523 76.7813C36.5351 76.8652 36.5049 76.9449 36.4619 77.0228C36.4542 77.0287 36.4542 77.0424 36.4482 77.0544C36.4465 77.0587 36.4361 77.0604 36.4361 77.0647C36.3854 77.1306 36.3295 77.1888 36.2607 77.2402C36.2607 77.2402 33.6171 80.2541 29.7084 80.2541C25.7274 80.2541 23.1586 77.2402 23.1586 77.2402C23.0864 77.188 23.0305 77.1306 22.9798 77.0647C22.9798 77.0604 22.9763 77.0587 22.972 77.0544C22.9626 77.0424 22.9625 77.0287 22.9591 77.0228C22.9109 76.9449 22.8817 76.8644 22.8671 76.7813C22.8619 76.7574 22.8585 76.7394 22.8559 76.718C22.8456 76.6298 22.8525 76.54 22.8783 76.4561C22.8817 76.4415 22.886 76.4364 22.8911 76.4278C22.8929 76.4218 22.8912 76.4141 22.8929 76.4099L29.0513 60.0568C29.0513 60.0568 29.0565 60.0543 29.0608 60.0525C29.1588 59.7906 29.4117 59.604 29.7092 59.604H33.4124H38.7951V57.0386H38.8063H39.9682H39.9768H41.1352H41.1498V59.604H46.5334H50.234C50.5333 59.604 50.7861 59.7915 50.8833 60.0525C50.8876 60.0543 50.8919 60.0568 50.8919 60.0568L57.0512 76.4099C57.0555 76.4141 57.0512 76.4218 57.0555 76.4278C57.0598 76.4364 57.0633 76.4424 57.0701 76.4561C57.0934 76.54 57.0977 76.6298 57.0891 76.718C57.0839 76.7403 57.0796 76.7574 57.0753 76.7813Z" fill="#00023B"/>
<path d="M40.1807 17.4066C44.3542 17.4066 47.7315 20.7724 47.7315 24.924C47.7315 29.0756 44.3534 32.4414 40.1807 32.4414C36.0079 32.4414 32.6316 29.0756 32.6316 24.924C32.6316 20.7724 36.0079 17.4066 40.1807 17.4066Z" fill="#00023B"/>
<path d="M28.9163 50.2608V44.3698H30.8143V50.2608H49.6311L49.6337 44.3698H51.4896V50.2608H57.4004V43.8887C57.4004 38.8991 54.4514 34.0054 48.5845 34.0054L31.6563 34.002C26.3114 34.002 22.96 38.3393 22.96 43.7535V50.2617H28.9163V50.2608Z" fill="#00023B"/>
<path d="M9.82851 43.911V39.8887H5.04004V50.4449H9.82851V46.2727H20.262V43.911H9.82851Z" fill="#00023B"/>
</g>
</g>
<defs>
<clipPath id="clip0">
<rect width="80" height="80" fill="white"/>
</clipPath>
<clipPath id="clip1">
<rect width="86" height="107" fill="white" transform="translate(-3 4)"/>
</clipPath>
</defs>
</svg>
