<svg width="80" height="80" viewBox="0 0 80 80" fill="none" xmlns="http://www.w3.org/2000/svg">
<g clip-path="url(#clip0)">
<path d="M52.3 57.2999L45.2 61.5999L52.2 66.8999L42.9 71.7999L45.3 76.7999L36.9 71.8999L42.4 66.8999L33.5 60.4999L38.5 56.3999C20 55.2999 1.2 54.3999 -8 54.3999V82.0999H87V59.5999C87 59.5999 71.3 58.4999 52.3 57.2999Z" fill="#17C86B"/>
<path d="M14.5 34.7C15.2 35.3 16.3 35.1 16.9 34.4L19.6 30.8C19.7 30.7 19.8 30.6 20 30.5C20.9 30.1 21.7 29.7 22.3 29.4L21.5 35.3L20.9 43.4C20.9 44 20.6 44.5 20.1 44.9L15 49.4C14.2 50.1 14.1 51.2 14.7 52.1C14.7 52.2 14.8 52.2 14.9 52.3C15.6 53.1 16.9 53.2 17.8 52.5L22.9 48C24.1 46.9 24.9 45.4 25 43.7L25.2 40.5L28.4 43.7C28.7 44.1 29 44.5 29 45L29.9 51.9C29.9 52.2 30.1 52.5 30.2 52.8C30.6 53.4 31.3999 53.8 32.0999 53.7C33.1999 53.6 34 52.5 33.7999 51.4L32.9 44.5C32.7 43.1 32.0999 41.9 31.0999 40.9L27.5 37.3L29.0999 29.8C29.5999 30.2 30.2999 30.8 31.0999 31.5C32.3999 32.6 34.3 32.8 35.9 32.1L39.2 30.5C40 30.1 40.4 29.1 40 28.2C39.6 27.4 38.6 27 37.7 27.4L34.7 29C34.3 29.2 33.8999 29.1 33.5999 28.9C28.9999 25 28.5 25 27.9 25L25.0999 24.8C24.5999 24.8 24.1 24.7 18.4 27.4C17.7 27.7 17.2 28.2 16.7 28.8L14 32.4C13.6 33 13.6 33.8 14 34.4C14.2 34.5 14.3 34.6 14.5 34.7Z" fill="#00023B"/>
<path d="M30.7477 20.6756C30.9532 18.6426 29.4718 16.8278 27.4388 16.6223C25.4057 16.4167 23.591 17.8981 23.3854 19.9312C23.1798 21.9642 24.6613 23.779 26.6943 23.9845C28.7273 24.1901 30.5421 22.7086 30.7477 20.6756Z" fill="#00023B"/>
<path d="M27.7 14.3C27.7 14.3 27.8 14.3 27.7 14.3C28.2 14.3 28.5 14 28.5 13.6L28.8 10.8C28.8 10.4 28.5 10 28.1 10C27.7 10 27.3 10.3 27.3 10.7L27 13.5C27 13.9 27.3 14.3 27.7 14.3Z" fill="#00023B"/>
<path d="M23.8 14.9999C24 15.1999 24.2 15.2999 24.4 15.2999C24.6 15.2999 24.7 15.1999 24.9 15.0999C25.2 14.7999 25.3 14.2999 25 13.9999L23.2 11.7999C22.9 11.4999 22.4 11.3999 22.1 11.6999C21.8 11.9999 21.7 12.4999 22 12.7999L23.8 14.9999Z" fill="#00023B"/>
<path d="M30.9 16C31.1 16 31.2 15.9 31.4 15.8L33.6 14C33.9 13.7 34 13.2 33.7 12.9C33.4 12.6 32.9 12.5 32.6 12.8L30.4 14.6C30.1 14.9 30 15.4 30.3 15.7C30.5 15.9 30.7 16 30.9 16Z" fill="#00023B"/>
</g>
<defs>
<clipPath id="clip0">
<rect width="80" height="80" fill="white"/>
</clipPath>
</defs>
</svg>
