<svg width="80" height="80" viewBox="0 0 80 80" fill="none" xmlns="http://www.w3.org/2000/svg">
<path d="M42.9917 51.228L44.4357 49.3027L42.2698 48.1796L39.9434 47.0565L38.8203 44.9708L40.3445 41.2806L35.8521 37.43L29.0333 31.6541C28.3113 31.0124 27.1883 31.0124 26.4663 31.6541L15.8771 41.2806L24.1399 25.8782C24.6212 24.9156 24.3003 23.7123 23.2574 23.1507C22.2948 22.6694 21.0915 23.0705 20.5299 24.0332L9.21881 45.9334C8.73749 46.8961 9.05837 48.0994 10.1012 48.6609C10.4221 48.8214 10.743 48.9016 10.9837 48.9016C11.3848 48.9016 11.7859 48.7411 12.1068 48.5807V65.6677C12.1068 66.7908 12.9892 67.6732 14.1123 67.6732H41.3873C42.5104 67.6732 43.3928 66.7908 43.3928 65.6677V60.4534V59.7314L39.9434 55.239L42.9917 51.228ZM38.6598 48.7411L32.0015 52.2709L28.4718 45.6125L35.1301 42.0828L38.6598 48.7411ZM26.9476 47.1367L30.718 54.1159C30.8784 54.3566 31.0389 54.517 31.2795 54.5973C31.3597 54.5973 31.44 54.6775 31.6004 54.6775C31.7608 54.6775 31.9213 54.6775 32.0817 54.5973L32.7235 54.2764V56.9237C32.7235 57.0039 32.6433 57.1643 32.4828 57.1643H22.9366C22.8563 57.1643 22.6959 57.0841 22.6959 56.9237V47.3774C22.6959 47.2972 22.7761 47.1367 22.9366 47.1367H26.9476Z" fill="#00023B"/>
<path d="M22.6156 21.1451L44.917 30.2903C45.1577 30.3705 45.3983 30.4507 45.639 30.4507C46.4412 30.4507 47.1632 29.9694 47.4841 29.1672C47.8852 28.1243 47.4039 27.0012 46.361 26.5199L24.1398 17.455C23.097 17.0539 21.9739 17.5352 21.4926 18.5781C21.1717 19.5407 21.653 20.744 22.6156 21.1451Z" fill="#00023B"/>
<path d="M28.1509 26.6C27.83 27.0011 27.83 27.6429 28.3113 28.044L41.2269 38.6331C41.3873 38.7936 41.628 38.8738 41.8686 38.8738C42.1895 38.8738 42.4302 38.7134 42.6708 38.4727C42.9917 38.0716 42.9917 37.4298 42.5104 37.0287L29.5146 26.5198C29.1135 26.1187 28.4718 26.1989 28.1509 26.6Z" fill="#00023B"/>
<path d="M42.9114 45.2112L49.4093 48.019L52.939 41.12L44.9169 40.2375L42.9114 45.2112Z" fill="#00023B"/>
<path d="M45.1577 55.3995L48.8479 59.0896L53.6611 58.4479L54.1424 52.9928L48.3665 51.3884L45.1577 55.3995Z" fill="#00023B"/>
<path d="M54.9278 31.8897L50.3267 34.343L53.6104 40.5015L58.2115 38.0481L54.9278 31.8897Z" fill="#00023B"/>
<path d="M70.4273 36.3069L61.4426 32.2156L65.2932 23.0705L55.4261 24.0331L54.2228 14.166L46.1205 19.9419L40.1841 12L36.1731 20.7441L38.0182 21.5463L40.6655 15.8506L45.7996 22.6694L52.6986 17.7759L53.7414 26.1991L62.2448 25.3969L59.6778 31.4134L58.8756 33.2585L61.7635 34.6222L66.5768 36.8684L59.758 42.0026L64.6515 48.9818L59.8382 49.3829C59.2767 49.4631 58.8756 49.9444 58.9558 50.506C59.036 51.0675 59.5173 51.4686 60.0789 51.3884L68.2614 50.3455L62.4855 42.2432L70.4273 36.3069Z" fill="#17C86B"/>
<path d="M63.6083 56.7631L58.394 54.196C57.9127 53.9554 57.2709 54.1158 57.0302 54.5971C56.7896 55.0784 56.95 55.7202 57.4313 55.9609L62.6457 58.5279C62.8061 58.6082 62.9666 58.6884 63.127 58.6884C63.4479 58.6884 63.849 58.5279 64.0094 58.2071C64.2501 57.6455 64.0897 57.0037 63.6083 56.7631Z" fill="#17C86B"/>
<path d="M47.8052 31.4937C47.2436 31.4937 46.8425 31.8948 46.8425 32.4563C46.8425 33.0178 47.2436 33.4189 47.8052 33.4189C48.3667 33.4189 48.7678 33.0178 48.7678 32.4563C48.7678 31.8948 48.2865 31.4937 47.8052 31.4937Z" fill="#17C86B"/>
<path d="M56.6294 47.1367C57.1909 47.1367 57.592 46.7356 57.592 46.1741C57.592 45.6125 57.1909 45.2114 56.6294 45.2114C56.0678 45.2114 55.6667 45.6125 55.6667 46.1741C55.5865 46.6554 56.0678 47.1367 56.6294 47.1367Z" fill="#17C86B"/>
</svg>
