<svg width="24" height="22" viewBox="0 0 24 22" fill="none" xmlns="http://www.w3.org/2000/svg">
<path fill-rule="evenodd" clip-rule="evenodd" d="M7.5567 10.4904C6.239 10.4904 5.2143 9.94423 4.628 8.77593C4.1081 7.73993 4.2558 6.55783 4.8976 5.60073L5.152 5.30883C5.4267 4.99073 5.7256 4.80593 6.0998 4.61783C7.2003 4.06443 8.6594 4.33793 9.5939 5.26673C10.7666 6.43213 10.7604 8.40933 9.5939 9.56863C9.0769 10.0825 8.3353 10.4904 7.5567 10.4904ZM6.1455 1.65903C5.5515 1.79743 5.1211 1.95253 4.6433 2.20533C4.4684 2.08823 3.7088 1.06732 3.6418 1.06732C3.5199 1.06732 3.4882 1.16392 3.4026 1.23772L2.9502 1.60473C2.8456 1.68693 2.8307 1.71963 2.7038 1.81353L1.7754 2.61502C1.824 2.68762 1.9268 2.83003 1.991 2.90013L2.4918 3.49193C2.6132 3.62483 2.6346 3.65413 2.7314 3.79863C2.4924 4.15553 1.989 4.83152 1.9575 5.20982C1.7427 5.19192 1.3885 5.11883 1.1802 5.07663C0.924199 5.02483 0.654701 4.99373 0.409701 4.93673C0.376001 5.34123 0 7.03973 0 7.34933L1.5022 7.62252C1.5022 8.42592 1.7557 9.02463 1.7754 9.26133C1.6283 9.30063 1.2731 9.52553 1.1288 9.61623C0.9043 9.75733 0.685899 9.86763 0.455199 9.98973C0.556199 10.1806 0.6278 10.3239 0.7465 10.5178L1.3646 11.584C1.4714 11.7648 1.5703 11.959 1.6843 12.1292C1.8976 11.9864 2.1166 11.8897 2.3492 11.7471C2.5809 11.6052 2.7929 11.497 3.0045 11.3553C3.1906 11.48 3.1396 11.5275 3.268 11.6381C3.3337 11.6948 3.3396 11.6744 3.4264 11.7528C3.7238 12.0215 3.8905 12.1967 4.2791 12.4024C4.0678 12.8428 3.9442 13.4186 3.7329 13.8591C3.8866 13.9328 4.1139 13.9968 4.297 14.0688L4.8645 14.2752C5.0519 14.3413 5.8806 14.664 6.0545 14.6785L6.5552 13.2673L7.4657 13.3128C7.7954 13.3128 7.9216 13.2673 8.2396 13.2673L8.7403 14.6785L9.8838 14.2742C11.2361 13.7711 11.1374 14.0694 10.7613 13.1128L10.5157 12.4024C10.9073 12.1402 11.49 11.7358 11.7448 11.3553L13.1105 12.1292L13.7023 11.0822C13.8408 10.8119 14.2317 10.2572 14.2941 9.98973L13.0194 9.26133C13.0256 8.98733 13.2152 8.56143 13.2474 8.07812C13.2615 7.86713 13.2792 7.78342 13.2926 7.62252L14.7948 7.34933C14.7801 7.17243 14.7284 6.97602 14.6932 6.76813L14.3851 4.93673C14.0402 4.96543 13.1885 5.18062 12.8373 5.20982C12.7024 4.63062 12.0635 3.90863 12.0635 3.79863C12.0635 3.64993 12.9677 2.76313 13.0194 2.56953C12.8944 2.53613 12.4496 2.14932 12.3247 2.03522C12.2744 1.98932 12.2626 1.96563 12.2088 1.92343C11.8592 1.64863 11.5154 1.30992 11.153 1.06732C10.9845 1.18012 10.2509 2.10363 10.197 2.20533L9.4547 1.90062C9.2632 1.82202 8.8208 1.67713 8.6037 1.65903V0.111328H6.1455V1.65903Z" fill="#12B370"/>
<path fill-rule="evenodd" clip-rule="evenodd" d="M16.2969 18.8663C15.9065 18.8663 15.6578 18.7875 15.3797 18.6909C14.7938 18.4876 14.2487 17.8369 14.1014 17.2378C13.5643 15.0547 16.0989 13.6485 17.6058 14.9626C17.913 15.2305 17.9762 15.2585 18.2091 15.7249C18.5069 16.3214 18.4983 16.9101 18.2409 17.5327C17.9248 18.2976 17.0919 18.8663 16.2969 18.8663ZM14.6581 11.5826C14.6581 11.827 14.679 11.9514 14.7079 12.1702C14.7279 12.322 14.7598 12.5713 14.7946 12.7207C14.6362 12.7339 14.6316 12.755 14.5214 12.8116C14.4326 12.8572 14.3679 12.8741 14.2689 12.9234C13.7369 13.1882 13.8586 13.3607 13.5771 13.0733L12.9737 12.5386C12.8473 12.5386 12.5408 12.9386 12.3468 13.1408L11.7901 13.8133C11.8496 13.902 11.8781 13.9268 11.9601 14.0074C12.1193 14.1638 12.3536 14.2729 12.564 14.5871C12.4382 14.8249 12.1804 15.3211 12.1543 15.6341C11.7115 15.6341 11.4522 15.5886 11.0163 15.5886L10.9707 17.364C11.1831 17.364 11.8363 17.3477 12.012 17.4153C12.1369 17.4633 12.1221 17.5945 12.1633 17.7647C12.2191 17.9948 12.3285 18.2958 12.4275 18.5021L11.7899 19.0026C11.6945 19.0724 11.6583 19.1208 11.5625 19.1849L12.6551 20.5506C12.9567 20.3486 13.3133 20.0226 13.52 19.9133C13.7405 20.0299 13.8083 20.131 13.975 20.2322L14.5215 20.5051C14.4681 20.6164 14.2939 21.4228 14.2939 21.5976C14.8514 21.7275 15.423 21.8324 15.9782 21.9618C16.0316 21.8504 16.2058 21.0441 16.2058 20.8692C16.9947 20.8692 17.071 20.7398 17.3894 20.7327C17.5599 21.0548 17.7191 21.3654 17.8902 21.6886C18.1806 21.535 19.3095 21.0155 19.4379 20.8237L18.9372 19.8677C19.074 19.7761 19.607 19.2674 19.6655 19.0483C19.8563 19.0642 20.055 19.1663 20.2118 19.2304C20.3686 19.2945 20.5673 19.3967 20.7581 19.4125C20.8152 19.2935 20.8561 19.1644 20.9131 19.0213C21.0007 18.8013 21.3816 17.939 21.3954 17.7737C21.1627 17.7543 20.6689 17.4736 20.3939 17.4095C20.3939 17.1425 20.4382 17.0942 20.441 16.8648C20.4436 16.6535 20.4394 16.4379 20.4394 16.2259L21.4409 15.9073C21.4348 15.6318 21.0177 14.5557 20.9402 14.2229C20.7422 14.2691 20.6065 14.3113 20.411 14.3766C20.2359 14.4351 20.0258 14.5268 19.8476 14.5416C19.763 14.2247 19.2317 13.7311 19.1648 13.6312L19.7566 12.6752C19.5592 12.6225 18.5627 11.9279 18.2543 11.7647L17.8359 12.4389C17.7624 12.5488 17.742 12.5479 17.7081 12.6752C17.5047 12.6707 17.3278 12.5849 17.1518 12.5486C16.966 12.5103 16.7025 12.4624 16.5245 12.4476L16.3785 11.3564C15.8761 11.397 15.0902 11.5826 14.6581 11.5826Z" fill="#12B370"/>
<path fill-rule="evenodd" clip-rule="evenodd" d="M17.4356 7.44076C17.4356 6.90876 17.653 6.47527 17.9243 6.19957C19.2908 4.81077 21.5166 6.35007 20.7447 8.10957C20.6116 8.41297 20.6859 8.25786 20.5042 8.50636C20.3653 8.69626 20.3948 8.66996 20.1763 8.81576C18.9301 9.64736 17.4356 8.70146 17.4356 7.44076ZM19.1655 4.07207C18.7256 4.07207 18.6072 4.11596 18.2095 4.20866C18.1733 4.05316 18.1136 3.97067 18.043 3.82897C17.9576 3.65767 17.8867 3.61227 17.8453 3.43477C17.7427 3.48907 17.6594 3.52836 17.5419 3.58656L16.6162 4.07207C16.6542 4.23497 16.7295 4.34756 16.7978 4.48236C16.8784 4.64156 16.9751 4.69717 16.9804 4.93707C16.7587 4.99627 16.5551 5.34817 16.4341 5.52877C16.1076 5.50167 15.8957 5.28287 15.5692 5.25567L15.0685 6.53036L15.8879 6.84897L15.8423 7.75946L15.0254 8.03986C15.1014 8.19616 15.187 8.49656 15.2454 8.67506L15.4326 9.35266C15.5875 9.33986 16.1715 9.14007 16.2976 9.07957C16.3867 9.24807 16.4386 9.30726 16.5521 9.46236C16.6054 9.53506 16.8438 9.78876 16.8438 9.80796C16.8438 9.90586 16.4895 10.3442 16.4341 10.5819C16.6993 10.7222 17.4458 11.2247 17.6177 11.2647L18.0274 10.5363C18.3255 10.6058 18.5587 10.7184 18.9379 10.7184C18.987 10.9294 19.0558 11.3599 19.0744 11.5833C19.3646 11.5833 20.1383 11.408 20.4401 11.4012C20.4401 11.0604 20.3491 10.8503 20.3491 10.4908C20.6202 10.4682 20.9518 10.1958 21.1685 10.0811C21.2726 10.2366 21.6921 10.5968 21.8058 10.6729L22.7162 9.62587L22.0789 9.03406C22.2088 8.78866 22.3268 8.51836 22.3976 8.21466H23.2625C23.2744 8.07226 23.308 8.05296 23.308 7.89596V6.80346H22.4431C22.4138 6.45086 22.2414 6.19966 22.17 5.89296C22.4549 5.74226 22.4773 5.66977 22.6435 5.54707C22.8886 5.36627 22.8933 5.39226 22.4089 4.83466C22.3223 4.73506 22.2909 4.68366 22.2042 4.58406C22.1338 4.50316 22.042 4.38056 21.9879 4.29966C21.7364 4.46816 21.5153 4.67476 21.2595 4.84596C21.1492 4.68126 20.7585 4.44376 20.5312 4.39076C20.5312 4.05126 20.6677 3.81976 20.6677 3.48026L19.5636 3.26216C19.2597 3.19766 19.3224 3.20246 19.2664 3.49016C19.2293 3.68076 19.1696 3.88737 19.1655 4.07207Z" fill="#12B370"/>
</svg>
