<svg width="26" height="16" viewBox="0 0 26 16" fill="none" xmlns="http://www.w3.org/2000/svg">
<path fill-rule="evenodd" clip-rule="evenodd" d="M14.7021 9.00159C14.9137 8.68549 15.2913 8.40969 15.6022 8.20149C15.5604 8.38119 15.5626 8.3415 15.4663 8.4655C15.2943 8.687 15.0141 8.97559 14.7021 9.00159ZM13.502 10.0018C13.502 10.5432 13.636 11.8803 13.8511 12.3031C14.3107 13.2064 15.9024 13.8727 15.9024 12.8523C15.9024 12.363 14.9491 12.7073 14.6008 11.9535C14.4953 11.7252 14.2861 10.2107 14.3521 10.0518C14.4327 9.85789 14.3601 9.94379 14.6912 9.89079C14.7961 9.87409 15.0021 9.81839 15.1188 9.76829C15.5546 9.58129 15.7182 9.40729 16.015 9.11419C16.1672 8.96399 16.1492 8.98549 16.2544 8.80349C16.4546 8.45739 16.5436 8.14249 16.4525 7.75139L17.2687 7.41739C17.5845 7.28199 17.7598 7.14839 18.2025 7.15079L25.3542 7.15119C25.4986 7.10739 25.6042 6.95219 25.6042 6.75119C25.6042 6.20159 24.8656 6.35109 24.304 6.35109H19.0529C19.1528 6.20189 19.2478 6.18309 19.3908 6.03879L20.6936 4.94119C21.1903 4.54719 22.4353 3.72529 22.9701 3.41699C23.1459 3.31559 23.2287 3.263 23.4208 3.1676C23.6071 3.075 23.6799 3.01179 23.8705 2.91709L24.7975 2.49379C25.3349 2.28549 25.6042 2.2289 25.6042 1.8503C25.6042 1.5216 25.255 1.4502 25.2541 1.4502C24.8976 1.4502 23.1034 2.3737 22.684 2.6307L19.3126 5.0105C19.2281 5.077 19.2346 5.0508 19.1396 5.1375C19.0665 5.2042 19.0397 5.2503 18.9626 5.3106L17.9912 6.18939C17.8874 6.27719 17.6705 6.34579 17.5458 6.39429C17.246 6.51079 16.9693 6.63849 16.6686 6.76729L15.7691 7.1679C14.6843 7.7156 13.502 8.64489 13.502 10.0018V10.0018Z" fill="#12B370"/>
<path fill-rule="evenodd" clip-rule="evenodd" d="M9.1016 6.05068C9.2328 5.85478 9.4527 5.72558 9.7518 5.70068C9.7745 5.97378 9.8018 5.83708 9.8018 6.30078C9.4817 6.30078 9.2301 6.24258 9.1016 6.05068ZM0 1.24988C0 1.47708 0.1068 1.51068 0.2 1.64988C1.066 1.64988 1.9189 1.53548 2.9522 1.54818C3.2059 1.55128 3.2563 1.60168 3.5502 1.60028C4.6801 1.59488 5.8999 1.77348 6.9584 2.14288C8.0367 2.51908 8.8883 3.62548 9.3522 4.64998C9.3915 4.73668 9.4106 4.81478 9.4517 4.90048C9.1788 5.03148 8.1996 5.32428 8.2722 6.13568C8.335 6.83648 9.1168 7.10228 9.7018 7.15088C9.7018 8.13548 9.6046 8.08188 10.1189 8.33408C10.3705 8.45738 10.4183 8.51868 10.5903 8.71278C11.1458 9.33968 10.9546 10.6941 10.7622 11.462C10.7216 11.6238 10.4188 12.2519 11.102 12.2519C11.4081 12.2519 11.4249 12.0621 11.4959 11.8456C11.5722 11.6131 11.6103 11.485 11.664 11.2136L11.8059 10.1518C11.8115 9.91978 11.7642 9.93968 11.7515 9.75208C11.6946 8.90808 11.5949 8.52228 11.0646 7.98848C10.9201 7.84298 10.7726 7.70238 10.5519 7.65098C10.5519 6.69528 10.3972 7.32528 10.6036 6.60258C10.7056 6.24568 10.6467 5.82348 10.5222 5.48038C10.453 5.29018 10.4536 5.36968 10.3937 5.20878C10.1843 4.64608 10.2795 4.61318 9.8358 3.76628C9.5315 3.18528 8.88109 2.40178 8.37189 2.02958C7.64849 1.50088 7.1683 1.24408 6.1977 1.05318C4.3536 0.690478 3.3459 0.74968 1.5002 0.74968C1.1864 0.74968 0.862595 0.768279 0.569395 0.819079C0.249995 0.874379 0 0.88008 0 1.24988V1.24988Z" fill="#12B370"/>
<path fill-rule="evenodd" clip-rule="evenodd" d="M16.3529 3.1506V3.1006L16.4113 3.1423L16.3529 3.1506ZM16.3529 3.1506L15.5509 4.599C15.1128 5.3436 15.8199 5.3699 16.5331 5.5709C17.0174 5.7073 17.4145 5.896 17.5531 5.301C17.5174 5.1477 17.5165 5.1433 17.418 5.036C17.2603 4.8641 16.6801 4.7198 16.4529 4.7009C16.5782 4.4642 16.6968 4.2208 16.8427 3.9905L17.4525 2.8999C17.6583 2.4902 18.0838 2.0627 17.8164 1.7371C17.5129 1.3675 16.8055 1.9061 16.3023 2.1998C16.1299 2.3005 14.9851 2.9581 14.8026 3.0006L14.3222 1.3306C14.2354 1.0255 14.1832 0.792899 14.096 0.506499C13.9811 0.128699 14.0241 0 13.5024 0C13.1992 0.0921 13.0063 1.0776 12.9223 1.4203C12.8515 1.7094 12.7723 1.9337 12.7022 2.2004C12.6411 2.4333 12.5233 2.7468 12.5022 3.0006C12.2799 2.9821 11.9593 2.7288 11.7026 2.5999L10.1028 1.6993C9.70306 1.4911 9.45076 1.5747 9.35156 2.0004C9.35156 2.169 9.99477 3.1837 10.1348 3.4677L10.7321 4.5206C10.7823 4.6023 10.7904 4.637 10.8347 4.7181C11.0494 5.1112 11.2005 5.4485 11.5843 5.3354C11.726 5.2937 11.8228 5.1701 11.847 5.0422C11.8833 4.8513 11.7897 4.7093 11.7194 4.5835C11.5613 4.3009 10.9419 3.2724 10.9019 3.1006C10.9966 3.1507 11.0266 3.1727 11.1216 3.2309L11.8015 3.6013C11.893 3.6547 11.8995 3.6725 12.0183 3.7345C12.2863 3.8743 12.5192 4.0831 12.7997 4.052C13.1868 4.009 13.3135 3.1134 13.4618 2.5599C13.5073 2.3902 13.6024 2.1769 13.6024 1.9504L14.1023 3.6008C14.3073 4.4102 14.9093 3.9575 15.6225 3.5204C15.7146 3.4639 15.7721 3.4465 15.8522 3.4001C16.0153 3.3054 16.1348 3.2014 16.3529 3.1506V3.1506Z" fill="#12B370"/>
<path fill-rule="evenodd" clip-rule="evenodd" d="M6.1002 12.9521C6.1002 12.4786 6.3229 12.0117 6.5617 11.7634C6.7032 11.6163 6.8281 11.5021 7.0005 11.402C7.6497 11.0257 8.5853 11.1727 9.1076 11.695L9.4186 12.1343C10.2814 13.8988 8.1331 15.475 6.7626 14.2901C6.3657 13.947 6.1002 13.5183 6.1002 12.9521V12.9521ZM5.25 12.8521C5.25 14.2026 6.3353 15.5026 7.6004 15.5026C8.5649 15.5026 9.0034 15.4192 9.7384 14.69C11.271 13.1695 10.1011 10.3516 8.0005 10.3516C7.1127 10.3516 6.6292 10.4988 6.0126 11.1143C5.8888 11.2379 5.83199 11.2782 5.72939 11.4312C5.63509 11.5719 5.5507 11.6766 5.4833 11.8352C5.3695 12.1032 5.25 12.4962 5.25 12.8521V12.8521Z" fill="#12B370"/>
<path fill-rule="evenodd" clip-rule="evenodd" d="M17.0528 12.9521C17.0528 11.9806 17.8806 11.2018 18.6031 11.2018C19.1911 11.2018 19.5306 11.2169 20.0006 11.6546C20.9799 12.5667 20.5643 14.1054 19.5351 14.5342C18.958 14.7747 18.3147 14.7445 17.8226 14.3827C17.755 14.333 17.7671 14.3353 17.7115 14.2937C17.3037 13.989 17.0528 13.4836 17.0528 12.9521ZM18.6031 15.5026C19.5365 15.5026 20.019 15.3554 20.6661 14.7151C21.5109 13.8791 21.6332 12.4636 20.9544 11.501C20.2085 10.4432 18.8286 10.0433 17.7355 10.5843C17.4643 10.7185 17.2021 10.8796 16.9894 11.0885L16.6014 11.6006C16.245 12.2086 16.1522 12.6882 16.2627 13.3922C16.2838 13.5264 16.3564 13.7566 16.4084 13.8966C16.551 14.2814 16.8758 14.7144 17.2024 14.9528C17.271 15.0028 17.2994 15.0346 17.3723 15.0831C17.4547 15.138 17.5082 15.1614 17.5919 15.2134C17.7918 15.3378 18.2915 15.5026 18.6031 15.5026V15.5026Z" fill="#12B370"/>
<path fill-rule="evenodd" clip-rule="evenodd" d="M2.8005 6.101L2.5618 6.3625C2.067 6.3511 1.5836 6.3511 1.1001 6.3511C0.501398 6.3511 0 6.2529 0 6.8012C0 7.0877 0.2474 7.2013 0.45 7.2013H2.3504C3.0961 7.2013 3.6506 6.6705 3.6506 5.951V2.6504C3.6506 2.0941 2.8059 1.9385 2.7987 2.7987L2.8005 6.101V6.101Z" fill="#12B370"/>
<path fill-rule="evenodd" clip-rule="evenodd" d="M7.85098 12.452C8.48888 12.452 8.58128 13.4022 7.80098 13.4022C7.21488 13.4022 7.22998 12.452 7.85098 12.452ZM6.55078 12.8021C6.55078 13.3099 6.57498 13.5005 6.96298 13.8901C7.40008 14.3291 8.08328 14.3659 8.58198 14.0332C8.94538 13.7907 9.19638 13.3469 9.19548 12.9522C9.19478 12.6247 9.03678 12.2646 8.81448 12.0387C7.83378 11.042 6.55078 11.9748 6.55078 12.8021V12.8021Z" fill="#12B370"/>
<path fill-rule="evenodd" clip-rule="evenodd" d="M18.3041 12.9021C18.3041 12.3155 19.3042 12.2994 19.3042 12.9021C19.3042 13.5614 18.3041 13.59 18.3041 12.9021ZM17.5039 12.8021V13.0522C17.5039 13.697 18.1422 14.2524 18.8041 14.2524C19.4661 14.2524 20.1044 13.697 20.1044 13.0522C20.1044 12.4488 19.8898 11.952 19.3364 11.7197C18.387 11.3212 17.5039 12.1102 17.5039 12.8021V12.8021Z" fill="#12B370"/>
<path fill-rule="evenodd" clip-rule="evenodd" d="M0 12.8524C0 13.1127 0.0607 13.3525 0.4 13.3525H4.3508C4.6534 13.3525 4.83269 13.0842 4.76229 12.8452C4.67879 12.5615 4.44379 12.5023 4.10069 12.5023C3.52969 12.5023 0.511494 12.4359 0.221494 12.5739C0.130794 12.6169 0 12.7417 0 12.8524Z" fill="#12B370"/>
<path fill-rule="evenodd" clip-rule="evenodd" d="M21.7539 12.9522C21.7539 13.1941 21.9121 13.3523 22.154 13.3523H25.2045C25.4336 13.3523 25.574 13.1926 25.6046 13.0134V12.865C25.584 12.7459 25.5122 12.635 25.3831 12.5737C25.1055 12.4417 22.883 12.5021 22.404 12.5021C22.0444 12.5021 21.7539 12.5956 21.7539 12.9522V12.9522Z" fill="#12B370"/>
</svg>
