<svg width="25" height="22" viewBox="0 0 25 22" fill="none" xmlns="http://www.w3.org/2000/svg">
<path d="M21.1033 13.5904H21.2075C21.5505 13.588 21.6188 13.588 21.987 13.7721L22.0274 13.7916C22.1097 13.8321 22.1455 13.8498 22.2417 13.9292C22.9412 14.514 23.0803 15.2145 22.8958 15.817C22.8154 16.0806 22.6717 16.3213 22.4881 16.5208C22.305 16.7193 22.0772 16.882 21.8304 16.9884C21.2344 17.2445 20.5139 17.1957 19.9352 16.6161C19.5558 16.2363 19.3963 15.7965 19.3963 15.3707C19.3963 15.1276 19.4508 14.8878 19.5466 14.6693C19.6405 14.4541 19.7756 14.2574 19.9379 14.0947C20.2474 13.7856 20.6617 13.5894 21.1033 13.5904V13.5904ZM21.2102 14.4076L21.1046 14.408C20.8875 14.4094 20.6779 14.5117 20.5171 14.6721C20.425 14.765 20.3478 14.8761 20.2958 14.9956C20.2451 15.1113 20.2163 15.2396 20.2163 15.3707C20.2163 15.5934 20.3052 15.8291 20.5153 16.0397C20.8184 16.3437 21.1957 16.3688 21.5067 16.2354C21.6494 16.174 21.7811 16.0801 21.8857 15.9667C21.9907 15.8528 22.071 15.7198 22.1138 15.5799C22.2086 15.2699 22.1213 14.8938 21.7202 14.5596L21.6254 14.5052C21.4292 14.4066 21.3925 14.4066 21.2102 14.4076V14.4076ZM24.8361 14.0682L24.8346 14.2323C24.8281 14.5182 24.7909 14.792 24.7221 15.1002C24.6561 15.3968 24.5626 15.718 24.4408 16.1112L23.5298 19.5051L23.4666 19.777C23.2956 20.5371 23.1453 21.1948 22.3667 21.1948H22.3124C21.7462 21.0409 21.181 20.8783 20.6115 20.7369C20.2987 20.6672 19.9226 20.5831 19.7023 20.3655C19.2993 19.9699 19.3964 19.6673 19.5452 19.1997L19.7138 18.5945C16.2316 17.6583 12.7086 16.6407 9.21436 15.777L9.08645 16.2349C8.77826 17.4272 8.75365 17.5225 7.59105 17.232C7.17555 17.1204 6.75805 17.0014 6.34155 16.8959C6.12305 16.8424 5.94085 16.7969 5.75495 16.7341C5.58855 16.6779 5.44625 16.5914 5.33605 16.4566C5.22125 16.3158 5.15625 16.1401 5.15625 15.9179C5.15625 15.685 5.40675 14.7929 5.57365 14.1984L5.70245 13.7331C5.76515 13.4797 6.13885 12.042 6.44245 10.9505C6.62005 10.3109 6.77946 9.77542 6.85056 9.62612L6.87615 9.57272C6.94775 9.42352 7.00955 9.29612 7.10535 9.15062C7.30655 8.84472 7.53435 8.59002 7.75745 8.33942L8.00295 8.06052C9.14505 6.72082 10.2872 5.38252 11.4219 4.03872C11.5502 3.87692 11.7101 3.71792 11.8817 3.58082C12.0583 3.43902 12.2525 3.31352 12.4417 3.22382C12.583 3.15692 12.8071 3.08952 13.0367 3.04162C13.2538 2.99652 13.484 2.96582 13.662 2.96582C13.8312 2.96582 14.0335 3.02952 14.1999 3.08152C16.4693 3.77462 19.4429 4.52722 21.7267 5.09812C21.7955 5.11852 21.8926 5.15522 21.9912 5.19662L22.2617 5.32172C22.5862 5.49232 22.8915 5.76372 23.13 6.08592C23.3615 6.39872 23.5354 6.76592 23.6079 7.14012L24.6673 12.7704C24.7166 13.0195 24.7566 13.2459 24.7854 13.4644C24.8137 13.6764 24.8308 13.8716 24.8346 14.0603L24.8361 14.0682V14.0682ZM24.0175 14.2244L24.0161 14.0682C24.0137 13.9185 23.9992 13.7559 23.9746 13.5732C23.9514 13.3942 23.9129 13.1804 23.8636 12.9275L22.8041 7.29352C22.7548 7.04212 22.6345 6.79062 22.4737 6.57302C22.3068 6.34762 22.0976 6.16022 21.8806 6.04592L21.6774 5.95202L21.4924 5.88272L14.1181 3.91182L13.9562 3.86342C13.8446 3.82862 13.709 3.78582 13.662 3.78582C13.5337 3.78582 13.3645 3.80862 13.2032 3.84202C13.0345 3.87742 12.8782 3.92252 12.7913 3.96382C12.6602 4.02612 12.5221 4.11582 12.3938 4.21862C12.2641 4.32272 12.1462 4.43942 12.0565 4.55422C11.9514 4.68902 11.8253 4.81452 11.7258 4.95352C11.6849 5.01302 11.6702 5.03442 11.5874 5.11712L8.36925 8.88422C8.15915 9.11992 7.94485 9.36022 7.78775 9.59872C7.72075 9.70052 7.67055 9.80372 7.61245 9.92502L7.58686 9.97852C7.54136 10.0733 7.39865 10.5637 7.23085 11.168C6.92775 12.2581 6.55775 13.6796 6.49635 13.9283L6.36205 14.4197C6.20765 14.9696 5.97615 15.7937 5.97615 15.9179C5.97615 15.9388 5.96646 15.936 5.97016 15.9406L6.01945 15.9588C6.17515 16.0113 6.34156 16.0531 6.53726 16.1019L6.57025 16.1108C6.81615 16.1712 7.00905 16.2256 7.20065 16.279L7.78815 16.438C8.16565 16.5319 8.17535 16.4952 8.29535 16.0294L8.43896 15.5125C8.47386 15.4005 8.51105 15.2829 8.53655 15.1718L8.65275 14.673L9.11295 14.8947C9.19015 14.9319 9.37055 14.9756 9.53045 15.0137C13.244 15.9202 17.0126 17.0172 20.7142 18.0157L20.4134 19.1486L20.3233 19.4479C20.2671 19.6236 20.2307 19.7384 20.2758 19.7826C20.3316 19.8375 20.5798 19.8932 20.7871 19.9393L21.0763 20.0095L22.3965 20.3678C22.5067 20.3167 22.5828 19.9797 22.6688 19.5962C22.944 18.4053 23.2867 17.0251 23.6544 15.8858C23.7753 15.4962 23.8659 15.1871 23.9245 14.9245C23.9812 14.6716 24.0114 14.4503 24.0175 14.2244V14.2244ZM9.50165 10.455L9.57135 10.4559C10.0882 10.4754 10.5201 10.6948 10.8232 11.0184C11.1272 11.3428 11.3 11.7728 11.3 12.2126L11.2978 12.2758C11.2806 12.7355 11.0952 13.1297 10.8148 13.4235C10.6396 13.6071 10.4239 13.7526 10.1892 13.8488C9.95435 13.946 9.69775 13.9934 9.44165 13.9841C9.03765 13.9692 8.62956 13.8144 8.28976 13.4895C7.91276 13.1274 7.74445 12.676 7.74445 12.233C7.74445 12.0038 7.79045 11.7751 7.87605 11.5622C7.96015 11.3535 8.08565 11.1564 8.24605 10.9891C8.55375 10.6655 8.98605 10.4536 9.49695 10.4536L9.50165 10.455ZM9.54255 11.2731L9.49695 11.2722C9.22545 11.2736 8.99725 11.3842 8.83735 11.5515C8.75135 11.6399 8.68256 11.7486 8.63556 11.8662C8.58956 11.9811 8.56445 12.1066 8.56445 12.233C8.56445 12.4678 8.65376 12.7076 8.85266 12.8982C9.03866 13.0744 9.25705 13.159 9.47045 13.1669C9.61035 13.172 9.75125 13.146 9.87855 13.0934C10.0079 13.0414 10.1263 12.961 10.2225 12.8601C10.3717 12.7034 10.4713 12.4924 10.4806 12.247L10.4816 12.2126C10.4802 11.9769 10.3881 11.7472 10.2273 11.5753C10.065 11.4023 9.82885 11.2838 9.54255 11.2731V11.2731ZM22.2157 13.0377C18.1901 11.9648 14.1333 10.9259 10.1217 9.81302C9.99715 9.77862 9.84415 9.73632 9.74195 9.68752L9.26226 9.45792C9.87026 8.74622 10.6219 7.96062 11.1616 7.23122C11.1918 7.18622 11.2193 7.14292 11.2848 7.07092L11.9812 6.28302L12.1624 6.05892C12.4562 5.68662 12.8025 5.25012 13.2483 5.07252C13.8285 4.84192 14.6815 5.09342 15.3903 5.30172C15.5716 5.35472 15.7441 5.40632 15.8845 5.44072L19.3921 6.38802L19.9221 6.52472C21.3604 6.88492 21.7388 6.98072 22.0186 8.79362C22.2129 9.84232 22.4169 10.8915 22.5996 11.942L22.6462 12.1568C22.6815 12.3083 22.7163 12.4603 22.7283 12.61L22.7758 13.1873L22.2157 13.0377V13.0377ZM10.6391 9.10502L21.7946 12.0787C21.6161 11.0848 21.4617 9.78882 21.2079 8.91822C21.0113 7.64222 20.7431 7.57432 19.7232 7.31862L19.1812 7.17922L15.6812 6.23322C15.5185 6.19232 15.3443 6.14022 15.1598 6.08632C14.5736 5.91392 13.867 5.70612 13.5495 5.83212C13.3097 5.92732 13.0353 6.27322 12.8029 6.56652C12.4984 6.94262 12.1452 7.29122 11.8561 7.66312C11.8319 7.70352 11.8049 7.74542 11.7384 7.81932L10.6391 9.10502V9.10502Z" fill="#12B370"/>
<path d="M2.2656 19.3624C2.1847 19.341 2.11409 19.3042 2.02949 19.2601C1.87749 19.1829 1.6125 19.0453 1.3164 19.1704C1.1677 19.2331 1.07649 19.3187 1.02489 19.4149C0.966393 19.5237 0.940297 19.6631 0.929697 19.8128V20.2274H7.213L7.20699 19.9434C7.20699 19.751 7.1707 19.5911 7.1075 19.4683C7.0494 19.3554 6.9629 19.268 6.8579 19.2099C6.5315 19.03 6.25399 19.1792 6.10479 19.2601C6.01969 19.3042 5.9528 19.341 5.871 19.3624L5.4089 19.4851L5.3006 19.0193C5.2425 18.7687 5.0687 18.5154 4.8497 18.323C4.6438 18.1407 4.40759 18.0217 4.20869 18.0217L4.0609 18.0194C3.8294 18.018 3.7964 18.0175 3.5263 18.1226C3.4645 18.1463 3.41519 18.1719 3.37199 18.2012C3.32779 18.2309 3.286 18.2681 3.2404 18.3141C3.1521 18.4029 3.0424 18.52 2.9606 18.6442C2.8974 18.7404 2.8481 18.8408 2.8467 18.9231L2.8351 19.5144L2.2656 19.3624V19.3624ZM0.956592 18.3169C1.42839 18.117 1.8129 18.1723 2.1029 18.2755L2.1871 18.1356C2.3154 17.9413 2.46409 17.7805 2.57939 17.6643C2.67139 17.5708 2.75699 17.4955 2.85229 17.4314C2.94849 17.3663 3.0563 17.3105 3.1925 17.258C3.6239 17.0902 3.6774 17.0906 4.0627 17.0934L4.20869 17.0939C4.63909 17.092 5.09469 17.3035 5.46149 17.6257C5.67389 17.8112 5.8603 18.0375 5.9979 18.2839C6.3186 18.1617 6.76069 18.0966 7.30409 18.3964C7.56999 18.5433 7.7866 18.7613 7.9321 19.0435C8.0632 19.2968 8.1367 19.5994 8.1367 19.9434L8.1385 20.173C8.1483 20.5593 8.1487 20.6026 7.9163 20.9503L7.77829 21.1571H0.6521C0.469 21.1571 0.306791 21.0865 0.188691 20.9684C0.0705914 20.8503 0 20.6881 0 20.505L0.00179687 19.7854C0.0180969 19.5055 0.0705953 19.2289 0.207695 18.9751C0.354195 18.7027 0.587492 18.4722 0.956592 18.3169Z" fill="#12B370"/>
<path fill-rule="evenodd" clip-rule="evenodd" d="M7.57748 6.69915L8.29798 1.28905C8.55488 -0.172249 8.21518 0.00695148 7.24988 0.00695148C6.67608 0.00695148 6.86599 0.948451 6.95059 1.42945L7.06179 2.30095C7.14339 3.24195 7.28058 4.01135 7.38658 4.92445L7.57748 6.69915Z" fill="#12B370"/>
<path fill-rule="evenodd" clip-rule="evenodd" d="M6.68876 6.65203C6.67516 6.48793 6.55366 6.26953 6.48716 6.10483L5.78526 4.42003C5.53006 3.78783 5.19317 2.81493 4.81687 2.25293C4.46437 2.25293 4.15106 2.44643 3.88086 2.62733C3.88086 3.11483 4.10696 3.25203 4.46146 3.73153L6.47386 6.39893C6.54616 6.49793 6.60746 6.59243 6.68876 6.65203V6.65203Z" fill="#12B370"/>
<path fill-rule="evenodd" clip-rule="evenodd" d="M8.70117 6.27788C8.82977 6.19178 8.95477 5.98518 9.06287 5.84398L11.5092 2.58078V2.29998C11.4315 2.24798 11.4246 2.22338 11.3516 2.17668C11.256 2.11548 11.2238 2.12468 11.1196 2.08118C10.8334 1.96148 10.6977 1.72908 10.4965 2.03608L9.17557 5.11428C9.06147 5.40778 8.76517 6.00318 8.70117 6.27788V6.27788Z" fill="#12B370"/>
<path fill-rule="evenodd" clip-rule="evenodd" d="M8.7011 6.27832H8.6543L8.6933 6.33292L8.7011 6.27832Z" fill="black"/>
<path fill-rule="evenodd" clip-rule="evenodd" d="M6.68945 6.65234V6.69915L6.74405 6.66014L6.68945 6.65234Z" fill="black"/>
</svg>
