<svg width="21" height="23" viewBox="0 0 21 23" fill="none" xmlns="http://www.w3.org/2000/svg">
<path fill-rule="evenodd" clip-rule="evenodd" d="M1.64939 19.8415V21.4765C1.24009 21.4765 1.06239 21.5333 1.06239 21.3507V19.2965C1.06239 18.7591 1.22949 18.2985 1.67709 18.1085C2.14059 17.9118 3.75299 17.9969 4.41629 17.9969C5.06469 17.9969 5.5902 18.3898 5.5902 19.0449V21.4765H5.0033V19.6738C5.0033 19.3396 4.37439 19.3396 4.37439 19.6738V21.4765H2.3202V19.8415C2.3202 19.2679 1.64939 19.2679 1.64939 19.8415ZM2.1525 16.1522C2.1525 16.0144 2.20659 15.8225 2.25199 15.7067C2.35729 15.4382 2.48139 15.3622 2.64489 15.2192C3.23449 14.7036 4.5002 15.0879 4.5002 16.1103C4.5002 17.614 2.68369 17.6705 2.25129 16.6403C2.21009 16.5422 2.1525 16.2727 2.1525 16.1522ZM1.52359 15.9426C1.52359 16.6589 1.52769 16.7481 1.94279 17.368C1.51299 17.4038 1.16689 17.6196 0.925991 17.8604C0.771591 18.0149 0.719195 18.0964 0.615195 18.3042C0.540095 18.4544 0.433594 18.6757 0.433594 18.8772V21.5184C0.433594 21.7802 0.758693 22.1054 1.02049 22.1054H5.5902C5.9792 22.1054 6.26099 21.7793 6.26099 21.3927C6.26099 20.7891 6.33159 18.9518 6.14929 18.4858C6.06789 18.2775 5.95809 18.1114 5.84259 17.9541C5.65149 17.6941 5.13579 17.4 4.75169 17.368C4.79199 17.2171 5.71769 16.1547 4.69919 14.947C4.12409 14.2651 3.04409 14.1527 2.29369 14.6585C1.92399 14.9076 1.52359 15.5248 1.52359 15.9426Z" fill="#12B370"/>
<path fill-rule="evenodd" clip-rule="evenodd" d="M16.0294 16.2367C16.0294 15.9123 16.1377 15.5317 16.3745 15.3241L16.7279 15.0906C17.0436 14.9552 17.3287 14.9513 17.6488 15.0784C17.7745 15.1283 17.9202 15.2209 18.0111 15.303C18.3738 15.6301 18.492 16.2111 18.2662 16.6708C18.2311 16.7422 18.2172 16.7746 18.1757 16.8318C17.745 17.4262 16.992 17.4621 16.5242 17.1253C16.3559 17.0041 16.2259 16.871 16.1411 16.67C16.0899 16.5487 16.0294 16.3857 16.0294 16.2367ZM15.8197 17.3686C15.6113 17.3732 15.3808 17.4671 15.2319 17.5353C14.8203 17.7239 14.3105 18.3145 14.3105 18.9198V21.519C14.3105 21.7915 14.625 22.106 14.8974 22.106H19.509C19.6893 22.106 19.9033 21.9507 19.9887 21.831C20.1717 21.5748 20.1845 20.8682 20.069 20.6656C19.9146 20.3948 19.4671 20.4905 19.4671 20.8483V21.4771H18.8802V19.7582C18.8802 19.5678 18.7906 19.5396 18.7125 19.4229C18.4462 19.4229 18.2094 19.4088 18.2094 19.884V21.4771H16.197V19.884C16.197 19.4088 15.9602 19.4229 15.694 19.4229C15.6158 19.5396 15.5263 19.5678 15.5263 19.7582V21.4771C15.117 21.4771 14.9393 21.5339 14.9393 21.3513V19.0875C14.9393 18.4508 15.4326 17.9975 16.0713 17.9975H18.2932C18.7888 17.9975 19.113 18.1918 19.2997 18.5003C19.4 18.6661 19.4693 18.8152 19.4679 19.0867C19.4654 19.5499 19.4512 19.4002 19.6348 19.6744C19.8977 19.6744 20.1379 19.6247 20.1379 19.2971C20.1379 18.7507 19.9969 18.2784 19.7299 17.9862C19.4698 17.7015 19.0965 17.38 18.5867 17.3686C19.0496 16.6774 19.2455 16.1351 18.7832 15.2436L18.5147 14.8833C17.4782 13.7468 15.1494 14.469 15.4041 16.4846C15.4564 16.8987 15.6304 17.0858 15.8197 17.3686Z" fill="#12B370"/>
<path fill-rule="evenodd" clip-rule="evenodd" d="M9.11236 2.61103C9.11236 2.11893 9.10136 1.95813 9.49917 1.57243C9.59826 1.47633 9.69926 1.42602 9.84066 1.36902C9.92326 1.33572 10.2391 1.27023 10.3194 1.27683C10.6008 1.30023 10.9034 1.42793 11.1023 1.62723C11.1725 1.69753 11.305 1.87593 11.3487 1.96783C11.8996 3.12453 10.3748 4.15802 9.52006 3.37712C9.34466 3.21692 9.11236 2.92583 9.11236 2.61103ZM8.44156 2.48522C8.44156 3.18232 8.81857 3.50103 8.86077 3.65913C8.03497 3.72783 7.35156 4.50243 7.35156 5.46183V7.68383C7.35156 8.07483 7.62456 8.39652 8.02236 8.39652H9.69926C9.75576 8.31212 9.86696 8.22723 9.86696 8.10303C9.86696 7.71323 9.49367 7.76763 9.23807 7.76763V5.96493C9.23807 5.63073 8.60926 5.63073 8.60926 5.96493V7.76763H8.02236C8.02236 7.18653 7.94237 5.24193 8.11807 4.88683C8.24427 4.63183 8.43897 4.47733 8.69137 4.37013C9.03077 4.22613 10.8359 4.28792 11.3343 4.28792C11.7575 4.28792 12.0336 4.41023 12.2474 4.63263C12.315 4.70293 12.4528 4.91582 12.4847 5.02422C12.5965 5.40462 12.5501 7.15273 12.5501 7.64183C12.5501 7.82443 12.3725 7.76763 11.9632 7.76763V6.17453C11.9632 5.51273 11.2924 5.63013 11.2924 6.04873V7.76763C11.0681 7.76763 10.8923 7.72943 10.7671 7.87143C10.6152 8.04373 10.6709 8.39652 10.9989 8.39652H12.592C12.9008 8.39652 13.179 8.05353 13.179 7.72573V5.25223C13.179 5.02193 13.1079 4.81643 13.0259 4.65073C12.9775 4.55283 12.9531 4.48733 12.8937 4.40553C12.8363 4.32643 12.7744 4.24122 12.7082 4.17172C12.4829 3.93512 12.0785 3.69313 11.6697 3.65913C12.045 3.09863 12.0889 2.98972 12.0889 2.31752C12.0889 1.45502 11.1552 0.640625 10.4539 0.640625C9.80637 0.640625 9.42516 0.725925 8.95486 1.19583C8.79766 1.35283 8.79177 1.39422 8.69207 1.56192C8.52847 1.83722 8.44156 2.06662 8.44156 2.48522Z" fill="#12B370"/>
<path fill-rule="evenodd" clip-rule="evenodd" d="M9.94931 13.6372L6.32731 15.4233C5.57111 15.7211 6.04901 16.2121 6.34961 16.12C6.71771 16.0072 10.1304 14.2241 10.2847 14.2241C10.4171 14.2241 14.1462 16.1738 14.3094 16.1526C14.464 16.0708 14.6029 16.0596 14.6029 15.8172C14.6029 15.5063 14.1534 15.3851 13.7085 15.1605L11.1177 13.8942C10.9173 13.8169 10.7561 13.7313 10.5782 13.6372V9.36097C10.5669 9.32387 10.4611 9.15137 10.2847 9.15137C9.86571 9.15137 9.94931 9.58186 9.94931 9.98986V13.6372Z" fill="#12B370"/>
</svg>
