<svg width="17" height="22" viewBox="0 0 17 22" fill="none" xmlns="http://www.w3.org/2000/svg">
<path fill-rule="evenodd" clip-rule="evenodd" d="M5.31544 17.2048C5.31544 16.6854 5.47104 15.7531 5.67464 15.3288C5.82024 15.3628 5.92693 15.4102 6.07373 15.4486L6.94433 15.6956C7.09244 15.7349 7.19994 15.8035 7.39094 15.8078C7.39094 14.1944 7.43444 13.5803 8.57784 12.4445C8.66664 12.3563 8.79074 12.2468 8.90764 12.2156C8.90764 13.0414 9.12984 13.7249 9.53814 14.3391L9.83614 14.7196C9.93254 14.8252 9.95374 14.9214 10.1606 15.0736C10.365 15.224 10.713 15.5819 10.8475 15.7838C11.89 17.3497 10.9498 19.879 8.38873 19.879C7.87753 19.879 7.44744 19.852 7.03154 19.6795C6.00654 19.2544 5.31544 18.3382 5.31544 17.2048ZM9.18704 21.0764H7.94194C6.58054 21.06 5.42614 20.9296 4.06214 20.0945C3.86624 19.9745 3.73524 19.8888 3.55114 19.7673C3.10214 19.4713 2.89094 19.1982 2.72864 19.0731C2.43184 18.8442 2.68364 19.0202 2.41174 18.7514C1.90154 18.2467 1.30804 17.3026 1.04974 16.6409L0.733139 15.6802C0.507639 14.7822 0.525737 14.3878 0.525737 13.4928C0.525737 12.1902 0.987036 10.4107 1.45954 9.19793C1.54534 8.97743 1.61714 8.78843 1.71024 8.57053C1.76324 8.44653 1.79694 8.40133 1.84814 8.26943C1.88984 8.16213 1.93334 8.11073 1.96264 7.98473C2.18734 7.98473 3.56303 8.41403 3.81373 8.48863C4.89553 8.81043 4.67334 8.87443 4.76024 8.18793C4.90424 7.05103 5.35424 6.16943 5.83424 5.23073C6.16664 4.58083 6.84634 3.80333 7.36074 3.28473L7.67954 3.00473C7.90934 2.78193 8.58504 2.32313 8.85913 2.14873L11.6616 0.640625L11.4939 2.22913C11.4593 2.45533 11.444 2.75883 11.3979 3.01123C11.2018 4.08673 11.5046 5.88833 12.0689 6.77913C12.2787 7.11023 12.4999 7.52943 12.8091 7.83513C12.9727 7.99693 13.1054 8.13143 13.2681 8.29413L13.728 8.71233C14.285 9.24653 14.3708 9.33063 14.8077 9.90773L15.3209 10.7116C15.964 11.9388 16.0521 12.9315 16.0521 14.2911C16.0521 15.6678 15.2409 17.6788 14.3463 18.5723C14.001 18.9172 14.2223 18.7771 13.7073 19.2105C13.0806 19.738 13.2282 19.6478 12.4681 20.1267C11.6373 20.6502 10.2079 21.0764 9.18704 21.0764ZM10.105 3.87363C10.105 4.19313 10.2183 5.19963 10.2962 5.51853C10.5184 6.42943 10.8634 7.31013 11.4293 8.05743C11.5003 8.15133 11.5317 8.22253 11.6118 8.31393C11.7051 8.42053 11.7287 8.47053 11.8316 8.57323L12.2902 9.07243C12.3279 9.11063 12.3509 9.13903 12.3902 9.17203L13.2482 9.95053C14.3193 11.0216 14.8547 12.4081 14.8547 13.9319C14.8547 15.4623 14.2384 16.963 13.1684 18.033C12.7406 18.4607 12.5912 18.5926 12.1007 18.9211C12.1393 18.7554 12.2417 18.5645 12.2958 18.3977C12.6175 17.4069 12.5421 16.2656 12.0213 15.3683C11.9722 15.2836 11.9524 15.2255 11.8938 15.1366C11.2638 14.1807 10.4925 14.1086 10.1675 12.7119C10.0034 12.0069 10.3445 10.5714 10.3445 10.0203C10.2115 10.0558 9.79454 10.3037 9.66554 10.3791C9.32914 10.5756 8.69034 10.8685 8.32484 11.1139L7.88004 11.4275C7.81664 11.4816 7.80924 11.5059 7.73444 11.5612C7.49404 11.739 7.41324 11.875 7.22074 12.0853C7.15384 12.1585 7.17134 12.152 7.11844 12.2225C7.06684 12.2911 7.05224 12.3041 6.99954 12.383C6.58654 13.002 6.41794 13.419 6.23344 14.2113C5.80124 14.1106 5.39494 13.9542 4.95614 13.852C4.92714 13.9768 4.90274 13.9933 4.84924 14.1043C4.19004 15.4693 3.74244 17.4924 4.47724 18.8812C4.29604 18.8328 3.71674 18.3409 3.54924 18.1727C3.47334 18.0964 3.42614 18.0489 3.34954 17.9732L3.07274 17.6513C2.89434 17.4248 2.61684 17.0392 2.49504 16.7921C2.14524 16.0825 2.02604 15.9726 1.82594 14.9467C1.64994 14.0443 1.75834 12.8161 1.92564 11.979C2.05464 11.3337 2.30463 10.3625 2.56123 9.74093C2.60043 9.64613 2.65714 9.52453 2.68114 9.42163L5.05104 10.125C5.27364 10.1913 5.64994 10.3346 5.87424 10.3396C5.87424 8.95833 5.85114 8.47983 6.29824 7.13163C6.52974 6.43363 6.84424 5.89223 7.21534 5.33453L8.14143 4.22503C8.67073 3.81693 8.50394 3.85003 9.28284 3.33083C9.48864 3.19363 9.98984 2.88133 10.1848 2.83593L10.105 3.87363Z" fill="#12B370"/>
</svg>
