<svg width="19" height="22" viewBox="0 0 19 22" fill="none" xmlns="http://www.w3.org/2000/svg">
<path fill-rule="evenodd" clip-rule="evenodd" d="M2.62646 18.0255H16.6832V19.5138H2.62646V18.0255ZM5.14836 13.271C5.14836 11.9486 5.29816 10.9477 6.04086 9.94653C6.73986 9.00443 7.89686 8.27373 9.07876 8.14713C9.50646 8.10133 9.72726 8.11343 10.1925 8.14423C11.5613 8.23493 13.1284 9.37313 13.7069 10.6659C14.0863 11.5137 14.1613 12.1932 14.1613 13.271V16.3717H5.14836V13.271ZM3.49466 12.4854V16.3717H1.67556C1.37246 16.3717 0.972656 16.7715 0.972656 17.0746V20.4647C0.972656 20.7678 1.37246 21.1676 1.67556 21.1676H17.6342C17.9372 21.1676 18.337 20.7678 18.337 20.4647V17.0746C18.337 16.7715 17.9372 16.3717 17.6342 16.3717H15.815V12.4854C15.815 10.9377 15.1367 9.38853 14.0683 8.32013C13.9357 8.18743 13.8313 8.07563 13.6971 7.94713C13.2246 7.49483 12.4348 7.07843 11.8335 6.83403C11.6306 6.75163 11.4852 6.71653 11.2726 6.65073C10.5772 6.43543 9.44116 6.38143 8.68676 6.51483C7.98576 6.63883 8.13176 6.62363 7.51016 6.82653L6.73586 7.16853C6.47086 7.33173 6.07016 7.56213 5.84095 7.76213C5.11175 8.39833 5.12546 8.40433 4.58076 9.10653C3.94456 9.92673 3.49466 11.4372 3.49466 12.4854Z" fill="#12B370"/>
<path fill-rule="evenodd" clip-rule="evenodd" d="M0.972656 3.05939C0.972656 3.60099 1.20566 3.72649 1.56186 4.08269L3.46316 5.98489C3.71246 6.19469 4.05746 6.25439 4.36466 6.12059C4.77596 5.94149 5.14665 5.30789 4.53855 4.70289C4.36965 4.53479 4.23176 4.39589 4.06316 4.22739C3.72926 3.89349 3.42546 3.58979 3.09145 3.25589C2.60646 2.77079 2.00536 1.91679 1.33586 2.43039C1.15866 2.56639 0.972656 2.76029 0.972656 3.05939Z" fill="#12B370"/>
<path fill-rule="evenodd" clip-rule="evenodd" d="M14.4512 5.33312C14.4512 5.62782 14.5387 5.77322 14.709 5.94352C14.7934 6.02792 14.8341 6.07192 14.9456 6.12042C15.544 6.38102 15.8964 5.93442 16.198 5.63282L17.7276 4.10322C18.0896 3.74122 18.3375 3.60782 18.3375 3.05922C18.3375 2.61242 17.8637 2.17252 17.2707 2.32312C16.9992 2.39202 16.4619 3.01232 16.2393 3.23492L14.7923 4.68192C14.621 4.85282 14.4512 5.00712 14.4512 5.33312Z" fill="#12B370"/>
<path fill-rule="evenodd" clip-rule="evenodd" d="M8.82812 0.7028V4.093C8.82812 4.3961 9.22793 4.7959 9.53093 4.7959H9.77902C10.0821 4.7959 10.4818 4.3961 10.4818 4.093V0.7028C10.4818 0.3998 10.0821 0 9.77902 0H9.53093C9.22793 0 8.82812 0.3998 8.82812 0.7028Z" fill="#12B370"/>
</svg>
