<svg width="13" height="21" viewBox="0 0 13 21" fill="none" xmlns="http://www.w3.org/2000/svg">
<path fill-rule="evenodd" clip-rule="evenodd" d="M7.05823 8.53196C7.05823 9.24436 7.92393 9.01886 8.67053 9.01586C9.42283 9.01276 10.1757 9.01576 10.9281 9.01576L5.76823 17.2393C6.22343 11.7681 7.05183 11.9083 4.63963 11.918C3.88733 11.9211 3.13443 11.9182 2.38203 11.9182C3.11823 10.5268 4.16613 9.13656 4.90883 7.83376C5.26163 7.21486 7.16343 4.13306 7.54193 3.85576L7.05823 8.53196ZM0.769531 12.4019C0.769531 13.4369 1.54313 13.0469 5.12323 13.0469C5.11243 13.5292 5.01853 14.0525 4.94923 14.6466L4.31693 19.658C4.67983 21.4312 5.89993 19.2295 5.99293 19.0765C6.13373 18.8451 6.30633 18.6254 6.44793 18.4028L7.86793 16.1142C8.58093 14.8946 12.5406 9.32756 12.5406 8.37076C12.5406 7.99916 12.4284 7.88696 12.0568 7.88696H8.18693L8.84413 2.09156C8.92953 1.36946 9.36823 1.17066 8.34823 0.630859C7.55993 1.15866 4.99133 5.53997 4.44343 6.40097L0.769531 12.4019Z" fill="#12B370"/>
</svg>
