<svg width="22" height="23" viewBox="0 0 22 23" fill="none" xmlns="http://www.w3.org/2000/svg">
<path fill-rule="evenodd" clip-rule="evenodd" d="M14.6862 17.4205C13.9774 17.4363 13.7564 17.6258 12.6971 17.379L12.9554 15.8969C13.0696 15.2173 13.1717 15.3046 14.5463 15.5714C15.0601 15.6712 14.9771 15.8513 14.8279 16.6092C14.7785 16.8599 14.7059 17.1835 14.6862 17.4205ZM4.57499 15.0999C4.58139 15.3891 4.94799 17.0425 4.94799 17.379C4.75199 17.3954 4.54098 17.4621 4.32628 17.4621C4.32068 17.208 3.98069 15.5998 3.95809 15.3371C3.94249 15.1546 4.03908 15.1922 4.20088 15.1817C4.33688 15.173 4.45129 15.1287 4.57499 15.0999ZM3.58049 9.25705C4.18599 9.25705 4.90589 9.62505 5.26889 10.0548C7.03909 12.1504 5.27959 15.4998 2.76549 14.2573C2.13269 13.9446 1.59658 13.1855 1.44188 12.473C1.39978 12.2789 1.39589 12.132 1.35889 11.9342C1.29489 11.5919 1.48159 10.7884 1.67449 10.459C2.04479 9.82665 2.66749 9.25705 3.58049 9.25705ZM9.13329 11.9092C8.89319 11.8533 8.47029 11.8697 8.47029 11.5361C8.47029 11.2946 8.62669 11.2425 8.78519 11.1467L11.4529 9.54615C11.6029 9.45765 11.7624 9.36545 11.9186 9.26595C12.6703 8.78755 14.807 7.47675 15.5149 7.10215C15.7608 7.46935 16.0931 7.80594 16.3601 8.16324L19.684 12.2569C19.8771 12.5169 20.612 13.2891 20.612 13.5252C20.612 13.9697 20.181 13.8385 19.867 13.8072L18.1983 11.7535C18.0871 11.6237 18.0531 11.5361 17.8355 11.5361C17.6544 11.5361 17.504 11.6826 17.504 11.8677C17.504 12.0368 18.1546 12.8008 18.343 13.0177L18.8966 13.7074C19.3687 14.3389 19.2959 14.0442 19.1616 14.9342C19.1208 15.205 19.0704 15.4903 19.0133 15.7803C18.9299 16.2038 18.7416 17.0737 18.7058 17.5034C17.0758 17.5034 16.5726 16.6635 15.8318 17.033L15.432 17.2134C15.432 16.6733 15.759 16.0787 15.5634 15.5488C15.3357 14.9318 14.6592 14.9061 14.082 14.7924C13.4315 14.6644 12.7709 14.5405 12.4195 15.2368C12.289 15.4953 12.0602 16.8577 12.0341 17.1719C11.3996 17.0241 11.5708 16.6999 10.6948 17.1172C10.4918 17.2139 10.2936 17.2167 10.2936 17.5034C10.2936 17.7217 10.4863 17.8968 10.6828 17.8534C11.3568 17.7043 10.9966 17.454 11.7435 17.7939C12.8904 18.3157 14.6164 18.3065 15.7769 17.8068C16.5662 17.467 16.3206 17.7178 17.239 17.9756C19.2445 18.5387 20.5638 17.7935 20.902 17.7935C21.3783 17.7935 21.2336 18.6075 21.2336 19.1196C20.5819 19.0239 20.5264 19.1919 19.891 19.3518C17.7805 19.8825 16.8759 18.9123 16.2608 18.9123C16.0154 18.9123 15.8707 19.0117 15.6862 19.0835C14.7127 19.462 13.7301 19.6332 12.6638 19.3601C12.3178 19.2715 11.9512 19.1908 11.9512 19.6997C11.9512 20.1741 13.7599 20.1555 14.1474 20.1555C15.0748 20.1555 16.0757 19.6168 16.2608 19.6168C16.3949 19.6168 16.6246 19.7442 16.7448 19.7959C18.7421 20.6559 20.6671 19.7826 20.902 19.7826C21.149 19.7826 21.2336 19.9499 21.2336 20.1971V21.4817H1.34269V20.1971C1.34269 19.3164 2.24999 20.1555 3.49749 20.1555C4.34649 20.1555 5.06918 20.1241 5.83148 19.7959C6.62078 19.4561 6.37518 19.7069 7.29358 19.9647C8.06218 20.1805 9.07709 20.2367 9.88239 20.0759C10.0142 20.0496 10.1097 20.0281 10.2161 19.9951L11.1212 19.6571C11.3595 19.5662 11.6197 19.5694 11.6197 19.2438C11.6197 18.5247 10.4276 19.2161 10.1437 19.3011C9.22629 19.5758 8.07178 19.5205 7.17978 19.2084C6.47739 18.9627 6.54088 18.7723 5.74068 19.0835C4.52138 19.5576 3.48689 19.6362 2.20769 19.2076C1.82819 19.0804 1.71629 19.072 1.34389 19.1267C1.34219 17.8168 1.23269 17.6256 2.12479 17.923C4.32649 18.6572 6.18789 17.6277 6.31549 17.6277C6.50059 17.6277 7.50148 18.1664 8.42878 18.1664C8.93968 18.1664 9.63059 18.3195 9.63059 17.7935C9.63059 17.2936 8.97269 17.5034 8.63599 17.5034C8.65599 17.2631 8.72579 16.9869 8.76989 16.7257L9.45518 12.8526C9.55779 12.2403 9.67579 12.426 10.4101 11.9427L13.8408 9.86205C14.1003 9.70395 14.8433 9.17415 15.1005 9.17415C15.3021 9.17415 15.3071 9.25475 15.4019 9.37005C15.4837 9.46945 15.5458 9.54245 15.6282 9.64105C15.6904 9.71545 15.671 9.71025 15.7332 9.78465L16.7327 11.0228C16.9285 11.2918 17.3797 11.3248 17.3797 10.7902C17.3797 10.6275 16.3031 9.40325 16.1288 9.18195C15.86 8.84075 15.5994 8.46965 15.1005 8.46965C14.6276 8.46965 13.9506 8.99655 13.5508 9.24055C13.295 9.39655 13.0698 9.52735 12.8223 9.67235L9.51989 11.6742C9.36709 11.7618 9.28019 11.8314 9.13329 11.9092ZM7.76579 11.4947C7.76579 12.0686 8.22459 12.5307 8.80179 12.5307C8.79789 12.7023 8.74169 12.9531 8.70949 13.143C8.68109 13.3104 8.62759 13.5517 8.59869 13.7365L8.06568 16.7673C8.02268 16.9807 7.97299 17.1865 7.97299 17.4205C7.33959 17.4205 6.72839 16.9232 6.31549 16.9232C6.04399 16.9232 5.79539 17.0742 5.61099 17.1719C5.61099 16.9325 5.55909 16.7979 5.52809 16.5918C5.46359 16.1641 5.23799 15.1154 5.23799 14.7684C5.55219 14.6845 6.10869 13.9729 6.23259 13.7324C6.74489 12.7382 6.86509 11.7555 6.42699 10.6786C6.27979 10.3167 6.23939 10.2247 6.02599 9.91945C5.59359 9.30085 4.70169 8.59405 3.74619 8.59405C2.68009 8.59405 2.22629 8.81655 1.49799 9.53665C1.07539 9.95465 0.679688 10.9029 0.679688 11.5361C0.679688 12.5618 0.883186 13.466 1.60079 14.2202L2.22079 14.7192C2.44219 14.8652 2.93379 15.1151 3.24889 15.1414L3.62188 17.4621C2.95358 17.4621 2.66149 17.3901 2.08409 17.1764C1.24969 16.8675 0.679688 17.5235 0.679688 18.0007V21.8131C0.679688 22.0136 0.810687 22.1447 1.01119 22.1447H21.5651C21.7656 22.1447 21.8966 22.0136 21.8966 21.8131V18.0007C21.8966 17.5418 21.4033 17.089 20.9435 17.089C20.7168 17.089 20.185 17.2875 19.825 17.3794C19.6917 17.4134 19.5162 17.4111 19.4102 17.4621C19.4682 17.2134 19.5096 16.928 19.5597 16.6584L19.9127 14.6072C19.9786 14.4328 20.0768 14.5613 20.2805 14.5613C21.0752 14.5613 21.6288 13.7097 21.1266 12.9693C21.0506 12.8573 21.0146 12.8351 20.9435 12.738L20.5955 12.2985C20.5475 12.2341 20.5451 12.2437 20.4987 12.1881L18.9652 10.2821C18.9235 10.2365 18.902 10.2257 18.8635 10.1768L17.1422 8.04425C17.0857 7.97675 17.1151 8.00344 17.0732 7.94744C17.0252 7.88304 17.0228 7.89255 16.9764 7.83705L16.1669 6.82324C16.1203 6.76744 16.1182 6.77734 16.0701 6.71284C15.9854 6.59904 15.9642 6.58525 15.8807 6.48775C15.5606 6.11385 15.3911 6.39565 14.5482 6.88135L8.46179 10.5332C8.13909 10.7344 7.76579 11.0006 7.76579 11.4947Z" fill="#12B370"/>
<path fill-rule="evenodd" clip-rule="evenodd" d="M15.2665 3.24834C15.2665 3.16144 15.326 2.95614 15.3536 2.87954C15.49 2.50034 15.9171 2.25374 16.2196 2.25374C16.4241 2.25374 16.3882 2.35844 16.6091 2.22914C16.7418 2.15144 16.7582 2.04293 16.8514 1.93243C17.2088 1.50803 17.9088 1.48054 18.3033 1.91054C18.3838 1.99824 18.4375 2.13494 18.514 2.19714C18.8058 2.43444 18.6993 2.11204 19.3121 2.35214C19.9191 2.59004 20.1233 3.47284 19.588 3.96454C19.4177 4.12084 19.1423 4.24283 18.8303 4.24283H16.3439C15.7085 4.24283 15.2665 3.77654 15.2665 3.24834ZM17.4642 0.927734H17.71C18.1818 0.960334 18.6389 1.18123 18.9132 1.59073C19.6154 1.59073 20.1457 1.99064 20.4057 2.50164C20.5785 2.84124 20.5707 2.99974 20.5707 3.37264C20.5707 4.13714 19.802 4.90584 19.0375 4.90584H16.1367C15.3723 4.90584 14.6035 4.13714 14.6035 3.37264V3.12403C14.6035 2.37803 15.3218 1.59073 16.261 1.59073C16.5352 1.18123 16.9924 0.960334 17.4642 0.927734Z" fill="#12B370"/>
<path fill-rule="evenodd" clip-rule="evenodd" d="M2.66961 3.91096C2.66961 3.58926 2.88942 3.17376 3.23572 3.02676C3.79792 2.78816 3.72432 3.06016 4.01222 2.89176C4.15501 2.80826 4.36592 2.25336 4.99012 2.25336C5.59702 2.25336 5.85741 2.81136 5.91711 2.85976C6.16841 3.06426 6.53192 2.73736 7.01092 3.21636C7.62632 3.83176 7.21712 4.90546 6.23342 4.90546H3.74701C3.11161 4.90546 2.66961 4.43916 2.66961 3.91096ZM3.66411 2.25336C2.97681 2.25336 2.44761 2.63886 2.18541 3.13676C1.61721 4.21586 2.43621 5.56856 3.53981 5.56856H6.44061C7.20501 5.56856 7.97382 4.79975 7.97382 4.03535C7.97382 3.43215 7.89741 3.15345 7.46621 2.71955C7.18361 2.43515 6.87072 2.25336 6.31632 2.25336C5.72032 1.36346 4.26001 1.36346 3.66411 2.25336Z" fill="#12B370"/>
<path fill-rule="evenodd" clip-rule="evenodd" d="M13.9403 12.2405C13.9403 11.9462 14.1989 11.5775 14.4791 11.5775C14.7475 11.5775 15.0675 11.568 15.2092 11.9662C15.4577 12.6648 14.6512 13.118 14.1565 12.6875C14.0788 12.6199 13.9403 12.3607 13.9403 12.2405ZM13.2773 12.0748C13.2773 12.5167 13.3239 12.8033 13.6393 13.1217C13.7781 13.2619 13.7771 13.2789 13.9676 13.3735C14.3818 13.5793 14.7933 13.5952 15.2113 13.3871C16.397 12.7966 16.0846 10.873 14.562 10.873C13.873 10.873 13.2773 11.5064 13.2773 12.0748Z" fill="#12B370"/>
<path fill-rule="evenodd" clip-rule="evenodd" d="M10.957 15.5972C10.759 15.5511 10.5349 15.5193 10.3355 15.4729C10.5004 14.7651 10.3002 14.8183 10.7739 14.9101C11.0444 14.9625 11.0901 14.8668 11.0526 15.1067C11.022 15.3029 10.9958 15.4308 10.957 15.5972ZM10.0868 14.1468C9.97328 14.1812 9.99277 14.1196 9.90877 14.2174C9.80377 14.3397 9.57448 15.7531 9.61388 15.8613C9.66718 16.0074 9.75428 16.0647 9.91068 16.1048C10.0478 16.1401 10.232 16.1567 10.4089 16.1867C11.578 16.385 11.5053 16.4999 11.6709 15.5237C11.869 14.3559 11.9891 14.4287 11.0153 14.2543L10.2064 14.1055C9.98568 14.105 10.1565 14.1257 10.0868 14.1468Z" fill="#12B370"/>
<path fill-rule="evenodd" clip-rule="evenodd" d="M16.2617 16.1775C16.2617 16.5936 16.9504 16.7224 16.9662 16.0117C17.1859 16.0167 17.3524 16.0947 17.5878 16.0947C17.5878 16.4156 17.3722 16.8405 17.9607 16.8405C18.1432 16.8405 18.2259 16.6028 18.2512 16.4265C18.3778 15.5447 18.4637 15.5687 17.6046 15.4148C17.4309 15.3837 17.3169 15.3691 17.1414 15.3393C16.928 15.3032 16.4288 15.1045 16.3469 15.5997C16.3147 15.7944 16.2617 15.983 16.2617 16.1775Z" fill="#12B370"/>
<path fill-rule="evenodd" clip-rule="evenodd" d="M1.3418 15.1831C1.3418 15.4339 2.0621 16.0481 2.2638 16.2501C2.3762 16.3628 2.4639 16.5091 2.6679 16.5091C2.8683 16.5091 2.9994 16.3781 2.9994 16.1776C2.9994 15.9268 2.2791 15.3127 2.0774 15.1105C1.965 14.9979 1.8773 14.8516 1.6733 14.8516C1.4729 14.8516 1.3418 14.9827 1.3418 15.1831Z" fill="#12B370"/>
<path fill-rule="evenodd" clip-rule="evenodd" d="M8.30469 7.88912C8.30469 8.13992 9.02498 8.75412 9.22668 8.95622C9.33918 9.06882 9.42689 9.21521 9.63079 9.21521C9.83119 9.21521 9.96229 9.08401 9.96229 8.88361C9.96229 8.63281 9.24199 8.01862 9.04029 7.81662C8.92789 7.70402 8.84009 7.55762 8.63619 7.55762C8.43579 7.55762 8.30469 7.68862 8.30469 7.88912Z" fill="#12B370"/>
<path fill-rule="evenodd" clip-rule="evenodd" d="M11.2891 5.90084C11.2891 6.15174 12.0095 6.76583 12.2111 6.96783C12.3236 7.08053 12.4113 7.22693 12.6152 7.22693C12.8157 7.22693 12.9467 7.09584 12.9467 6.89544C12.9467 6.67014 12.5834 6.38693 12.3562 6.15983C12.129 5.93263 11.8459 5.56934 11.6207 5.56934C11.4202 5.56934 11.2891 5.70044 11.2891 5.90084Z" fill="#12B370"/>
<path fill-rule="evenodd" clip-rule="evenodd" d="M20.2383 5.90084C20.2383 6.15174 20.9586 6.76583 21.1603 6.96783C21.2727 7.08053 21.3605 7.22693 21.5644 7.22693C21.7649 7.22693 21.8959 7.09584 21.8959 6.89544C21.8959 6.69154 21.7495 6.60374 21.6369 6.49134C21.5162 6.37084 21.426 6.28043 21.3054 6.15983C21.1848 6.03923 21.0943 5.94904 20.9739 5.82834C20.8615 5.71574 20.7738 5.56934 20.5698 5.56934C20.3694 5.56934 20.2383 5.70044 20.2383 5.90084Z" fill="#12B370"/>
<path fill-rule="evenodd" clip-rule="evenodd" d="M3.33203 6.56402C3.33203 6.79282 3.62103 6.99802 3.75673 7.13372C3.89253 7.26942 4.09763 7.55853 4.32653 7.55853C4.52703 7.55853 4.65803 7.42742 4.65803 7.22702C4.65803 6.99812 4.36913 6.79293 4.23333 6.65723C4.09763 6.52143 3.89243 6.23242 3.66353 6.23242C3.46313 6.23242 3.33203 6.36352 3.33203 6.56402Z" fill="#12B370"/>
<path fill-rule="evenodd" clip-rule="evenodd" d="M8.30469 5.23774C8.30469 5.46674 8.59369 5.67195 8.72949 5.80755C8.86519 5.94335 9.07039 6.23234 9.29929 6.23234C9.49969 6.23234 9.63079 6.10135 9.63079 5.90085C9.63079 5.67335 8.86369 4.90625 8.63619 4.90625C8.43579 4.90625 8.30469 5.03734 8.30469 5.23774Z" fill="#12B370"/>
<path fill-rule="evenodd" clip-rule="evenodd" d="M20.2383 7.88912C20.2383 8.11662 21.0054 8.88361 21.2329 8.88361C21.4333 8.88361 21.5644 8.75252 21.5644 8.55212C21.5644 8.32472 20.7973 7.55762 20.5698 7.55762C20.3694 7.55762 20.2383 7.68862 20.2383 7.88912Z" fill="#12B370"/>
<path fill-rule="evenodd" clip-rule="evenodd" d="M19.2441 9.21539C19.2441 9.44279 20.0112 10.2099 20.2386 10.2099C20.439 10.2099 20.5701 10.0788 20.5701 9.87839C20.5701 9.65089 19.8031 8.88379 19.5756 8.88379C19.3751 8.88379 19.2441 9.01489 19.2441 9.21539Z" fill="#12B370"/>
<path fill-rule="evenodd" clip-rule="evenodd" d="M5.32031 7.227C5.32031 7.4545 6.08732 8.2215 6.31492 8.2215C6.51532 8.2215 6.64642 8.09041 6.64642 7.89001C6.64642 7.66251 5.87932 6.89551 5.65182 6.89551C5.45142 6.89551 5.32031 7.0265 5.32031 7.227Z" fill="#12B370"/>
<path fill-rule="evenodd" clip-rule="evenodd" d="M16.6328 5.94186C16.6328 6.09236 17.1535 6.86845 17.5366 6.55565C17.972 6.20015 17.1034 5.61035 17.0058 5.61035C16.8048 5.61035 16.6328 5.74756 16.6328 5.94186Z" fill="#12B370"/>
<path fill-rule="evenodd" clip-rule="evenodd" d="M18.291 7.59907C18.291 7.83357 18.764 8.23547 18.8642 8.27207C19.1092 8.36147 19.3309 8.14498 19.3189 7.93558C19.3077 7.73988 18.8208 7.26758 18.6639 7.26758C18.4791 7.26758 18.291 7.43537 18.291 7.59907Z" fill="#12B370"/>
<path fill-rule="evenodd" clip-rule="evenodd" d="M7.31055 9.21539C7.31055 9.43549 7.75335 9.87839 7.97355 9.87839C8.17395 9.87839 8.30505 9.74729 8.30505 9.54689C8.30505 9.34269 8.15875 9.25549 8.04615 9.14279C7.93345 9.03019 7.84615 8.88379 7.64205 8.88379C7.44155 8.88379 7.31055 9.01489 7.31055 9.21539Z" fill="#12B370"/>
<path fill-rule="evenodd" clip-rule="evenodd" d="M20.9023 10.8735C20.9023 11.0938 21.3451 11.5365 21.5654 11.5365C21.7659 11.5365 21.8969 11.4055 21.8969 11.205C21.8969 11.0009 21.7505 10.9136 21.6379 10.801C21.5253 10.6884 21.4379 10.542 21.2339 10.542C21.0334 10.542 20.9023 10.673 20.9023 10.8735Z" fill="#12B370"/>
<path fill-rule="evenodd" clip-rule="evenodd" d="M18.25 5.90084C18.25 6.12104 18.6927 6.56394 18.913 6.56394C19.1134 6.56394 19.2445 6.43283 19.2445 6.23233C19.2445 6.02823 19.0981 5.94094 18.9855 5.82834C18.8729 5.71574 18.7855 5.56934 18.5815 5.56934C18.381 5.56934 18.25 5.70044 18.25 5.90084Z" fill="#12B370"/>
<path fill-rule="evenodd" clip-rule="evenodd" d="M10.293 7.227C10.293 7.431 10.4394 7.51841 10.552 7.63101C10.6646 7.74361 10.7519 7.89001 10.956 7.89001C11.1565 7.89001 11.2875 7.75891 11.2875 7.55851C11.2875 7.33821 10.8448 6.89551 10.6245 6.89551C10.424 6.89551 10.293 7.0265 10.293 7.227Z" fill="#12B370"/>
<path fill-rule="evenodd" clip-rule="evenodd" d="M6.31641 15.1831C6.31641 15.4033 6.7591 15.8461 6.9794 15.8461C7.1798 15.8461 7.3109 15.7151 7.3109 15.5146C7.3109 15.2944 6.86811 14.8516 6.64791 14.8516C6.44741 14.8516 6.31641 14.9827 6.31641 15.1831Z" fill="#12B370"/>
<path fill-rule="evenodd" clip-rule="evenodd" d="M6.97852 12.8618C6.97852 13.082 7.42131 13.5248 7.64151 13.5248C7.84191 13.5248 7.97302 13.3938 7.97302 13.1933C7.97302 12.9731 7.53021 12.5303 7.31001 12.5303C7.10951 12.5303 6.97852 12.6614 6.97852 12.8618Z" fill="#12B370"/>
<path fill-rule="evenodd" clip-rule="evenodd" d="M12.9453 4.90572C12.9453 5.12602 13.3881 5.56882 13.6083 5.56882C13.8088 5.56882 13.9398 5.43772 13.9398 5.23722C13.9398 5.01712 13.4971 4.57422 13.2768 4.57422C13.0764 4.57422 12.9453 4.70532 12.9453 4.90572Z" fill="#12B370"/>
<path fill-rule="evenodd" clip-rule="evenodd" d="M6.97852 6.56402C6.97852 6.78412 7.42131 7.22702 7.64151 7.22702C7.84191 7.22702 7.97302 7.09593 7.97302 6.89553C7.97302 6.67523 7.53021 6.23242 7.31001 6.23242C7.10951 6.23242 6.97852 6.36352 6.97852 6.56402Z" fill="#12B370"/>
</svg>
