<svg width="25" height="23" viewBox="0 0 25 23" fill="none" xmlns="http://www.w3.org/2000/svg">
<path fill-rule="evenodd" clip-rule="evenodd" d="M19.0344 13.4269C18.9062 13.341 17.7854 12.7115 17.6037 12.7115C17.4113 12.7115 16.6807 13.1579 16.4801 13.2742C16.3838 13.3301 16.3373 13.3689 16.224 13.4269C16.0968 13.4921 16.0622 13.5283 15.935 13.5978C15.7283 13.7107 15.5395 13.8439 15.3553 13.8868L15.7641 14.6533L16.2247 14.3984C17.9139 13.4188 17.4671 13.5652 18.1483 13.9042C18.5149 14.0867 19.5857 14.7053 19.8009 14.7555C19.6936 14.9158 19.6461 14.91 19.5444 15.1121C19.1842 15.8282 19.4465 16.2443 19.7498 16.6972L20.3518 16.1238C19.9511 15.4913 20.577 15.2665 20.6185 15.2665C20.8007 15.2665 21.9141 15.9776 22.1515 16.0329C22.0564 16.1749 20.7719 17.1571 20.7718 17.1571C20.1467 17.1571 15.347 16.3879 14.1811 16.2875C14.029 16.2743 13.3556 16.1808 13.2603 16.1351C13.396 15.9499 14.5378 15.4739 14.5378 15.3176C14.5378 15.1567 14.2524 14.8729 14.1801 14.6022L11.6743 16.031C11.3714 16.241 11.4132 16.642 11.6982 16.7774C11.8338 16.8419 12.0082 16.8355 12.176 16.8617C12.4509 16.9048 12.8308 16.9395 13.107 17.0038C13.0979 17.0117 13.0844 17.0128 13.0803 17.0282L11.8472 17.788C11.7158 17.8603 11.6346 17.8867 11.5125 17.9642C11.1017 18.2249 10.2609 18.5774 9.76989 18.7765L8.25269 19.3032C8.02509 19.3627 7.63969 19.5076 7.38399 19.5076C6.87209 19.5076 6.46419 19.0997 6.46419 18.5879C6.46419 18.0741 7.34659 16.8906 7.38399 16.4417C7.85209 16.4417 8.43038 16.2702 8.85948 16.1288C9.28428 15.9889 9.70698 15.7258 10.0922 15.522C9.93818 15.292 9.76329 15.0541 9.63229 14.8066C9.26059 15.0033 9.12268 15.1121 8.68218 15.2872C8.39828 15.4001 7.88649 15.5653 7.53729 15.573C8.09879 14.5118 8.50699 14.3671 9.71749 13.7675L10.4847 13.3595C10.6371 13.2797 10.6766 13.2359 10.8412 13.154C11.1344 13.0081 11.3221 12.8879 11.608 12.7455C12.2078 12.4466 12.7512 12.2958 13.4647 12.3027C14.3109 12.3109 16.0839 11.4902 16.9187 11.1579C17.2074 11.0429 17.4337 10.9534 17.7216 10.8366C18.7256 10.4293 18.4213 10.606 18.4213 8.06164L19.3924 7.60225L20.0544 10.363C20.1244 10.5927 21.0784 12.0482 21.0784 12.0983C21.0784 12.2498 20.9175 12.2827 20.6196 12.4572L19.0344 13.4269ZM10.2455 12.5071V10.1566C10.5345 10.0893 10.8349 9.96875 11.1333 9.86925C11.3841 9.78565 11.8297 9.60024 12.085 9.59454L12.6673 11.0051C12.7479 11.2047 12.7983 11.2568 12.8515 11.4852C12.3881 11.5237 11.8086 11.701 11.4541 11.8762L10.2455 12.5071ZM19.0344 2.28744H18.0125V3.10505H19.1877C19.1877 3.92445 18.4926 4.37954 17.8299 4.50654C17.6423 4.54244 17.4985 4.51375 17.3639 4.60265C17.0359 4.81955 17.3116 5.12824 17.2288 5.48864C17.053 6.25284 15.733 6.26264 14.9792 6.61244C14.3884 6.88654 15.3613 7.88495 13.9568 8.34935C13.7077 8.43165 13.5429 8.50064 13.3186 8.57984C13.0921 8.65974 12.8573 8.71685 12.6471 8.82805C12.376 8.42325 11.7969 8.76235 11.4272 8.88555C11.1825 8.96715 10.7753 9.07864 10.5521 9.18574C10.391 8.49424 10.8333 7.91485 11.4647 7.69675L12.8017 7.19425C13.5544 6.85765 12.5506 6.30255 13.2079 5.35215C13.5078 4.91855 14.1714 4.94784 14.5713 4.67154C14.8359 4.48884 14.6911 4.21264 14.6911 3.87154C14.6911 3.60044 15.0162 3.53674 15.2374 3.44704C15.4406 3.36474 15.7436 3.21225 15.9685 3.20725C16.0416 3.48085 16.2978 3.72684 16.4284 3.97374C16.6584 3.81974 16.8963 3.64485 17.1438 3.51385C17.0211 3.28195 16.874 3.08354 16.7248 2.85984C16.1683 2.02514 16.1628 1.88385 17.0416 1.41885C16.8876 1.18885 16.7127 0.950947 16.5817 0.703447C16.1069 0.954647 15.6628 1.25405 15.5281 1.79595C15.4309 2.18725 15.5011 2.10284 15.5087 2.44074C15.2597 2.49874 14.5459 2.78914 14.3522 2.91954C14.0142 3.14714 13.8224 3.52515 13.8224 4.07595C13.6273 4.09215 13.2249 4.25974 13.0756 4.35114C12.8758 4.47344 12.6731 4.65715 12.5347 4.83225C12.2708 5.16625 12.1835 5.53144 12.1138 5.94784C12.0797 6.15194 12.1362 6.29864 12.1362 6.52864C11.8891 6.65934 11.5802 6.74144 11.2876 6.85534C10.9815 6.97464 10.7514 7.07554 10.5148 7.25784C9.86619 7.75754 9.54298 8.61914 9.73448 9.44124C9.28658 9.67834 9.42789 9.99584 9.42789 11.0253C9.42789 11.6725 9.42789 12.3198 9.42789 12.967L8.03718 13.7225C7.59778 14.0016 7.21239 14.3734 6.95749 14.8399C6.53129 15.6198 6.65818 16.1151 6.44718 16.5269C6.19628 17.0165 5.92499 17.4813 5.71679 17.9937C5.42799 18.7046 5.76169 19.6009 6.36079 20.0198C7.23069 20.6279 8.22819 20.2213 9.16609 19.9101C10.1193 19.5939 11.0695 19.1944 11.9323 18.6906C12.0148 18.6425 12.0716 18.6234 12.1709 18.5715L12.6576 18.2918C12.9673 18.097 13.227 17.9448 13.5465 17.7499C14.7074 17.0416 14.381 17.1337 16.082 17.4013L18.921 17.7815C19.025 17.7979 19.1778 17.8092 19.3304 17.832C21.1332 18.1013 20.7837 18.2364 21.7522 17.4733L22.625 16.7619C22.7167 16.6853 22.7104 16.7091 22.8021 16.6325C23.2079 16.2933 23.6721 15.9649 22.9895 15.5526C22.8022 15.4395 22.6934 15.3843 22.4917 15.2839C22.2966 15.1868 22.1869 15.1045 21.9982 15.0109C21.7993 14.9124 21.6583 14.8836 21.5383 14.7044C21.867 14.6278 21.9949 14.4189 22.3047 14.3467C22.2282 14.0179 22.0192 13.8901 21.9471 13.5802C21.6011 13.6608 20.8469 14.2445 20.6185 14.2445C20.4524 14.2445 20.2028 13.9958 19.9542 13.9379V13.8357C20.1318 13.7883 20.3486 13.6178 20.5053 13.5181C20.698 13.3955 20.8946 13.2818 21.0796 13.1726C21.2687 13.0611 21.4272 12.9734 21.6198 12.8442C21.8515 12.6887 22.1003 12.592 22.1003 12.3027C22.1003 11.9896 21.8722 11.9675 21.8449 11.6385C22.0257 11.5902 22.2919 11.3926 22.4746 11.2973C22.8278 11.1132 24.037 10.3314 24.3487 10.2588C24.2721 9.93005 24.0632 9.80224 23.991 9.49234C23.8435 9.52674 23.7924 9.55915 23.6739 9.63515L21.5899 10.8214C21.3271 10.9724 21.3656 10.9439 21.211 10.6883C21.1206 10.539 21.0966 10.5806 21.0784 10.361C21.3676 10.2838 22.2193 9.70024 22.5296 9.51284C22.8948 9.29204 23.0435 9.10734 22.8156 8.72604C22.7588 8.63114 22.7115 8.55234 22.6419 8.43984C22.2556 7.81524 22.3848 6.96624 23.0374 6.59704C23.8235 6.15224 22.6216 5.46314 23.5182 4.57404C23.6455 4.44784 23.6816 4.37985 23.8528 4.29545C23.9659 4.23965 24.1835 4.15364 24.2976 4.12704C24.235 3.85824 24.0624 3.60425 24.0421 3.36055C23.1717 3.37995 22.3047 4.44524 22.3047 5.40454C22.3047 5.63614 22.3626 5.82745 22.4069 6.01765C21.5851 6.56805 21.3311 7.79784 21.7937 8.67484C21.9401 8.95244 21.9543 8.88015 21.661 9.05305C21.3713 9.22385 21.0457 9.50784 20.7207 9.59454C20.6786 9.08884 20.4423 8.43025 20.3221 7.94925C19.8439 6.03665 19.9795 6.37924 17.9784 7.36324C17.7737 7.46394 17.6037 7.52144 17.6037 7.80614V10.0033C17.4361 10.0172 17.2813 10.1003 17.1438 10.1566L15.7199 10.7255C15.1009 10.9681 14.4717 11.2709 13.7713 11.4341C13.7323 11.3527 13.7261 11.3075 13.6856 11.2132L13.3934 10.5345C13.2762 10.2441 13.0716 9.88134 13.0048 9.59454C13.1279 9.53554 13.2832 9.49544 13.4136 9.44124C13.5441 9.38704 13.6976 9.33774 13.8288 9.29444C14.11 9.20154 14.4159 9.09294 14.6741 8.96444C14.8668 8.86854 14.866 8.88484 15.0112 8.73944C15.9632 7.78564 15.3719 7.38374 15.8442 7.22194C16.2737 7.07484 16.7479 6.99534 17.1612 6.80154C17.2882 6.74204 17.3901 6.64734 17.4928 6.57104C17.8728 6.28894 18.0636 5.90335 18.0636 5.35345C18.3046 5.23775 18.5385 5.20664 18.7967 5.06454C18.9738 4.96704 19.2798 4.74124 19.406 4.60074C19.8136 4.14654 20.0564 3.58985 20.0564 2.95175C20.2793 2.93325 20.5295 2.76725 20.6787 2.65435C21.0409 2.38005 21.3223 2.06695 21.504 1.64005C21.6247 1.35665 21.6916 0.987144 21.6916 0.652344H20.874C20.7894 1.66854 20.1395 2.28744 19.0344 2.28744Z" fill="#12B370"/>
<path fill-rule="evenodd" clip-rule="evenodd" d="M2.53019 21.9095C2.19929 21.9095 1.75768 21.8165 1.48838 21.725C1.14508 21.6083 0.921085 21.4452 0.639585 21.2963C0.593785 21.4679 0.309887 21.7656 0.179688 22.0117C1.18689 22.5446 1.30858 22.727 2.73458 22.727C3.08098 22.727 3.69909 22.5739 3.94469 22.4553L4.67708 22.0635C5.01648 21.8194 4.90218 21.8697 5.15648 22.0425L5.92219 22.4521C8.15399 23.3374 9.67529 21.9095 9.83729 21.9095C9.97818 21.9095 9.99629 22.028 10.2795 22.1827C11.3845 22.7861 12.5622 22.9338 13.7518 22.4514C13.9333 22.3779 14.0924 22.2905 14.2666 22.1998C14.8184 21.9121 14.5721 21.774 14.9674 22.0425C15.0537 22.1011 15.1291 22.1386 15.2228 22.1959C16.2461 22.8227 17.502 22.8788 18.6205 22.4658C18.7808 22.4065 18.9796 22.2966 19.1379 22.2167C19.6974 21.9342 19.4992 21.763 19.8731 22.0422C20.0976 22.2099 20.3501 22.3134 20.6013 22.4382C21.5724 22.921 23.0288 22.7916 23.9417 22.2684C24.0952 22.1805 24.249 22.0918 24.4004 22.0117C24.293 21.8087 23.9907 21.4843 23.9405 21.2963C23.6766 21.4359 23.4395 21.6036 23.1303 21.7124C23.0163 21.7525 22.7762 21.8302 22.6534 21.8487C21.9008 21.9623 21.4018 21.8909 20.7213 21.5518C20.1144 21.2495 19.946 20.8875 19.6482 20.8875C19.326 20.8875 18.6364 21.8108 17.6046 21.8587C17.3884 21.8687 17.3356 21.9111 17.1955 21.9111L16.4382 21.798C15.9859 21.6744 15.6474 21.4812 15.284 21.2149C14.6513 20.7513 14.8342 20.7513 14.2015 21.2149C13.9852 21.3734 13.9117 21.4313 13.6697 21.5518C13.3856 21.6934 13.0321 21.8432 12.6991 21.8587C12.4829 21.8687 12.4301 21.9111 12.29 21.9111L11.5328 21.798C10.428 21.4962 10.2055 20.8875 9.83729 20.8875C9.53948 20.8875 9.37119 21.2495 8.76429 21.5518C8.48009 21.6934 8.12659 21.8432 7.79369 21.8587C7.57739 21.8687 7.52468 21.9111 7.38458 21.9111C7.21708 21.9111 7.24958 21.8689 7.02708 21.8581C6.83988 21.849 6.78308 21.8406 6.62729 21.798C5.52258 21.4962 5.29998 20.8875 4.93188 20.8875C4.59538 20.8875 3.88469 21.9095 2.53019 21.9095Z" fill="#12B370"/>
<path fill-rule="evenodd" clip-rule="evenodd" d="M12.0859 13.5801C12.1422 13.6867 12.4007 14.2961 12.4949 14.2961C12.632 14.2961 13.0877 13.9908 13.3125 13.9384C13.2647 13.7332 13.2129 13.7206 13.1312 13.5576C13.0571 13.4099 13.0251 13.3047 12.9548 13.1719L12.0859 13.5801Z" fill="#12B370"/>
<path fill-rule="evenodd" clip-rule="evenodd" d="M10.4492 14.3968C10.5056 14.5033 10.7641 15.1128 10.8583 15.1128C10.9953 15.1128 11.4511 14.8074 11.6759 14.7551L11.3188 13.9883L10.4492 14.3968Z" fill="#12B370"/>
<path fill-rule="evenodd" clip-rule="evenodd" d="M22.7129 13.1709C22.7693 13.2775 23.0278 13.8869 23.122 13.8869C23.2591 13.8869 23.7148 13.5816 23.9396 13.5292L23.5819 12.7627L22.7129 13.1709Z" fill="#12B370"/>
</svg>
