<svg width="28" height="19" viewBox="0 0 28 19" fill="none" xmlns="http://www.w3.org/2000/svg">
<path fill-rule="evenodd" clip-rule="evenodd" d="M9.0852 9.09019C10.2498 9.09019 10.2738 10.6043 9.5899 10.6043H8.8608C8.579 10.6043 8.6097 10.5539 8.3561 10.5483C8.3199 10.3931 7.9416 9.6934 8.5783 9.2563C8.7175 9.1607 8.8412 9.09019 9.0852 9.09019V9.09019ZM17.1048 8.9219C17.1048 7.9383 18.0976 7.7254 18.6544 8.2135C19.0127 8.5276 19.138 9.76309 17.946 9.76309C17.4672 9.76309 17.1048 9.4007 17.1048 8.9219V8.9219ZM16.2635 8.8097C16.2635 9.7467 16.9705 10.5483 17.7216 10.5483V10.6043C16.0023 10.6043 16.0555 9.09019 13.3473 9.09019C12.2573 9.09019 11.614 9.6265 10.8237 10.1557C10.8237 9.4977 10.7277 9.1908 10.3898 8.851C10.1934 8.6535 10.1606 8.586 9.8902 8.4534C9.688 8.3543 9.4174 8.2854 9.184 8.2578C8.9583 8.2311 8.6102 8.3499 8.4602 8.4091C7.8385 8.6544 7.4027 9.2827 7.4027 10.0435C7.0528 9.8584 6.763 9.5567 6.2036 9.3359C5.9928 9.2527 5.9017 9.2422 5.7203 9.1462C5.7203 8.5187 5.55211 8.0598 5.55211 7.4638C5.55211 7.1249 5.71231 6.9539 5.77641 6.6787C6.23331 6.9846 6.827 7.3937 7.3479 7.4109C7.6778 7.4217 14.3204 6.4632 15.7038 6.3432L17.8002 6.0843C18.3846 5.9804 19.4966 5.9099 19.8764 5.805C20.5166 5.6283 20.7278 5.0872 21.1987 4.7719C21.6374 5.4271 21.6181 5.1777 21.7045 6.1729L22.096 9.09019C20.3838 9.09019 19.7004 10.6043 18.2264 10.6043V10.5483C18.4768 10.5483 18.6236 10.4643 18.7883 10.3811C19.1438 10.2016 19.2115 10.0956 19.3897 9.8609C19.7394 9.4001 19.7923 8.6023 19.5164 8.0805C19.1034 7.2993 18.0946 6.909 17.2716 7.2941C16.7488 7.5388 16.2635 8.1177 16.2635 8.8097V8.8097ZM5.0473 6.2861C4.6769 6.2861 3.70141 6.5595 3.70141 5.8935C3.70141 5.5008 3.95681 5.362 4.31891 5.3333C4.71221 5.3022 5.0319 5.22059 5.4399 5.22059C5.4235 5.41709 5.1326 6.1249 5.0473 6.2861V6.2861ZM7.29061 6.5665C6.93711 6.5665 6.37951 6.0248 6.05681 5.9496L6.63971 4.4014C6.71211 4.2164 6.7728 4.0411 6.8419 3.8746C6.9765 3.5506 7.10391 3.1757 7.22681 2.8575C7.58471 1.9316 8.28041 2.00679 9.13681 1.90729C9.55351 1.85899 9.97081 1.7923 10.4267 1.7391L14.2457 1.2399C14.9935 1.175 17.5422 0.703901 18.1042 0.856201C18.5219 0.969401 18.6495 1.1528 18.8897 1.4728C19.0067 1.6287 19.0801 1.7347 19.1907 1.9008L20.3905 3.61729C20.5019 3.78159 20.5898 3.8873 20.6939 4.0429C20.6247 4.1462 19.9813 4.9029 19.6951 5.0068C19.4625 5.0912 18.2695 5.1937 17.9238 5.2544C17.055 5.4072 15.3677 5.53129 14.3906 5.70309C13.5219 5.85579 11.8345 5.98 10.8576 6.1517C10.1821 6.2705 8.92331 6.3511 8.21011 6.4765C7.90551 6.5301 7.61901 6.5665 7.29061 6.5665V6.5665ZM21.0865 3.2016C21.6517 3.2016 22.4928 2.94109 22.7506 3.10769C23.1117 3.34099 23.1077 3.9448 22.5415 4.0397C22.2745 4.0845 22.0062 4.0975 21.7595 4.155L21.2778 3.459C21.1898 3.3291 21.1604 3.312 21.0865 3.2016V3.2016ZM5.8325 4.3233L4.4428 4.5038C4.3466 4.519 4.0758 4.5382 3.9453 4.5671C2.3679 4.9165 2.7014 7.1834 4.2061 7.1834C4.4437 7.1834 4.4694 7.12729 4.7669 7.12729C4.6586 7.35309 4.8648 8.78819 4.9352 9.09019C2.31581 9.09019 2.41271 10.5895 0.616006 10.6034C0.201506 10.6067 0.2325 10.673 0 10.8287C0 11.119 0.0103074 11.4456 0.392607 11.4456C1.87301 11.4456 2.3867 10.8156 3.2303 10.3015C3.3301 10.2406 3.3685 10.2039 3.4757 10.1543C4.3771 9.7372 5.6129 9.8003 6.4279 10.3454C6.5135 10.4027 6.55281 10.4422 6.65091 10.5149C9.61761 12.7123 11.5437 10.452 12.3299 10.1478C15.5193 8.9137 15.6503 12.3173 19.2019 11.2434C20.0735 10.9798 20.5083 10.3893 21.0937 10.1629C21.953 9.8304 22.6558 9.7508 23.5376 10.1161C23.7377 10.199 23.837 10.2574 24.0227 10.36C24.5142 10.6317 25.1696 11.4456 26.7507 11.4456C27.133 11.4456 27.1433 11.119 27.1433 10.8287C26.5428 10.4265 26.7526 10.6896 26.0731 10.5529C25.3235 10.4022 24.9661 10.028 24.3287 9.6054C24.0931 9.4492 23.6601 9.2884 23.3757 9.2125C23.1596 9.1548 22.9424 9.1881 22.8876 9.0276C22.8568 8.9373 22.8359 8.554 22.8206 8.4216L22.4325 5.44479C22.4117 5.15209 22.3896 5.0713 22.2642 4.8841C23.7073 4.8841 24.2126 3.5682 23.5099 2.6849C23.0485 2.1048 22.1926 2.2286 21.569 2.3382C21.223 2.3991 20.9459 2.4008 20.6378 2.4726C20.4201 2.3268 19.9937 1.6407 19.8197 1.384C19.0287 0.217203 18.5368 -0.1942 16.9587 0.0833002C16.6503 0.1375 16.3796 0.154094 16.0732 0.207294C15.11 0.374394 13.4505 0.513098 12.4383 0.666298L8.8037 1.1256C6.9004 1.2907 6.67051 1.9135 6.10511 3.5303C6.01571 3.7859 5.8987 4.0391 5.8325 4.3233V4.3233Z" fill="#12B370"/>
<path fill-rule="evenodd" clip-rule="evenodd" d="M0 14.3059C0 14.8723 0.0393043 14.9228 0.616904 14.9228C0.999704 14.9228 1.4158 14.8041 1.6904 14.7064C2.6374 14.3696 2.72621 14.0365 3.38351 13.7076C4.22951 13.2843 5.27691 13.3084 6.13141 13.6705C6.97531 14.0281 7.2206 14.9228 9.3095 14.9228C11.4347 14.9228 11.3373 13.5418 13.5462 13.3898C15.4096 13.2616 15.5864 14.9228 18.0581 14.9228C19.2907 14.9228 19.8954 14.4105 20.6377 13.9132C21.8379 13.1091 23.2233 13.2335 24.405 14.1279C24.7538 14.3919 24.8858 14.4788 25.3311 14.6599C25.6169 14.7761 27.1433 15.2983 27.1433 14.5302V14.3059C26.8143 14.0856 26.9873 14.192 26.538 14.126C25.7331 14.0077 25.4696 13.9026 24.8218 13.4307C23.4001 12.3949 21.5271 12.2185 20.1231 13.2864C19.6143 13.6734 19.3123 13.8845 18.6875 14.038C16.3194 14.6198 16.0255 12.5674 13.5156 12.5674C11.9772 12.5674 11.3772 13.3816 10.4314 13.8575C9.68471 14.2333 8.7617 14.2007 7.9849 13.8919C7.5995 13.7387 7.3971 13.5593 7.089 13.3297C6.0484 12.5543 4.58651 12.3356 3.38631 12.8131C2.02301 13.3554 2.42431 13.8096 0.650908 14.1156C0.181108 14.1966 0.3539 14.0689 0 14.3059V14.3059Z" fill="#12B370"/>
<path fill-rule="evenodd" clip-rule="evenodd" d="M0.168417 17.5586C-0.0103832 17.7613 0.00011597 17.6992 0.00011597 17.9512C0.00011597 18.8484 2.09362 18.0502 2.67692 17.5996C4.12182 16.4834 5.43272 16.5128 6.87532 17.5813C8.26242 18.6087 10.046 18.5918 11.4415 17.6155C12.4538 16.9074 13.4269 16.462 14.7679 17.0354C15.841 17.4942 16.1511 18.3437 18.0582 18.3437C18.9346 18.3437 19.7319 17.9777 20.2463 17.6156C20.8456 17.1938 20.3759 17.4422 21.1423 17.0534C21.6752 16.7831 22.3834 16.7361 22.9731 16.8498C24.4584 17.1361 24.6714 18.3437 26.7508 18.3437C27.1831 18.3437 27.1434 18.0189 27.1434 17.7268C26.7303 17.3689 26.6918 17.6993 25.6772 17.3423C24.6249 16.9721 24.2865 15.9883 22.2643 15.9883C20.0769 15.9883 19.5407 17.9744 17.3609 17.4708C16.5829 17.291 16.4701 17.1412 15.8941 16.7504C15.0678 16.1898 14.5558 15.9883 13.4035 15.9883C12.6308 15.9883 11.7358 16.3862 11.2875 16.7325C10.2877 17.5048 9.23312 17.7755 8.02602 17.3279C6.93772 16.9244 6.77022 15.9883 4.65492 15.9883C2.46812 15.9883 2.46462 17.5586 0.168417 17.5586V17.5586Z" fill="#12B370"/>
</svg>
