<svg width="23" height="23" viewBox="0 0 23 23" fill="none" xmlns="http://www.w3.org/2000/svg">
<path fill-rule="evenodd" clip-rule="evenodd" d="M8.32278 13.0029C8.32278 12.866 8.60928 12.6468 8.70458 12.5515C9.02228 12.2339 9.05778 12.284 9.06338 12.0308H9.43368V13.8824H8.32278V13.0029ZM8.23018 11.9382V11.8919L8.28418 11.9305L8.23018 11.9382ZM12.0259 12.2622V10.781C12.6895 11.1321 12.7216 10.9559 12.3352 11.692L12.0259 12.2622ZM6.19338 11.9382L5.37078 11.1406C4.99668 11.3974 4.22178 12.4011 4.01778 12.4011H3.13828V1.66194H11.2853V16.8449H8.92448L10.3705 18.3152L8.70448 20.004L8.12648 19.4482L9.21308 18.337L8.10288 17.2037C8.01008 17.1109 7.81008 16.8449 7.67468 16.8449H3.13828V14.9933H5.08248C5.21778 14.9933 5.41788 14.7273 5.51058 14.6346C5.64998 14.4952 5.75908 14.3576 5.91568 14.2527H6.98038L7.57188 13.6869L7.58208 14.623H10.1743V11.2901H9.06338V10.7347C8.80748 10.7943 8.57818 10.9242 8.33768 11.0273L7.62228 11.3304C7.36868 11.4289 7.17018 11.5257 6.90598 11.6324L6.39348 11.8605C6.30808 11.8973 6.26708 11.9028 6.19338 11.9382V11.9382ZM13.6924 8.88314C13.5682 8.88314 13.1553 8.60654 12.9517 8.55914C12.9696 8.34384 13.2058 7.95784 13.3065 7.75664C13.4421 7.48554 13.5579 7.23934 13.6924 6.98524C13.8279 7.07604 13.9315 7.10444 14.0935 7.18584C14.2599 7.26954 14.3411 7.30934 14.4793 7.40184L13.9145 8.50354C13.7622 8.74194 13.7938 8.88314 13.6924 8.88314ZM19.6174 8.23504C19.4067 8.23034 19.137 8.13814 18.9323 8.08694C18.7153 8.03274 18.4599 7.96484 18.2287 7.91104L17.0715 8.69794H14.8496L17.1063 10.9776C17.363 10.9067 18.1425 10.7347 18.3676 10.7347C18.3052 10.8649 18.2709 10.976 18.198 11.1206C18.1266 11.2623 18.0841 11.3494 18.0128 11.4908L16.9329 13.79C16.8707 13.9138 16.8094 14.0361 16.7472 14.1599L16.2201 15.2991C16.1093 15.5758 15.5526 16.6091 15.4977 16.8449H12.0259V13.5583C12.1361 13.6321 12.0741 13.6144 12.2111 13.6509L13.664 10.7436L12.0347 9.93024L12.0259 8.97574C12.1733 8.98794 12.2049 9.01104 12.3029 9.06904L13.5379 9.68564C13.6814 9.75734 13.9441 9.91614 14.0627 9.94784L15.5156 7.04054L13.3309 5.94904C13.2794 6.15004 13.1202 6.41624 13.0287 6.59934C12.9695 6.71814 12.9352 6.79714 12.8684 6.90194L12.3807 7.89554C12.3006 8.05594 12.1376 8.43094 12.0259 8.51284C12.0259 8.09634 12.028 7.67924 12.0258 7.26284C12.023 6.73474 12.094 6.85864 12.3504 6.29134L14.8033 1.06014C16.6433 2.03384 18.8274 3.01834 20.6673 3.99124L21.5153 4.43934L19.6174 8.23504V8.23504ZM8.23018 11.9382L6.66768 13.5235C5.34938 13.5095 5.70278 13.3772 5.09398 13.9865C4.79368 14.2871 4.94358 14.2537 4.38808 14.2527C3.72468 14.2515 3.06108 14.2527 2.39768 14.2527V16.8449H0.175781V17.5855L7.21378 17.5835C7.49018 17.5845 7.44898 17.6103 7.59378 17.759C7.77888 17.9491 7.99618 18.115 8.13758 18.3262L7.06208 19.4263L8.14848 20.5372L7.31558 21.3926L7.82378 21.9266L10.5099 19.2635C10.6858 19.0848 10.6248 19.0635 10.9602 19.0658L15.7291 19.0668V18.3262L11.4422 18.3081C11.3506 18.2705 10.7929 17.6797 10.7298 17.5855H17.0252L16.3203 18.3157L17.7769 19.7964C17.587 20.0719 17.0416 20.5005 16.8952 20.6958C16.7479 20.892 16.8401 22.0526 16.8401 22.3997H17.5807C17.5807 22.0911 17.5818 21.7824 17.5807 21.4738C17.5786 20.9464 17.5827 21.0783 17.87 20.7911C18.113 20.5481 18.6695 20.0479 18.8305 19.8074L17.3845 18.3372C17.4586 18.232 18.0163 17.6412 18.108 17.6036L22.3948 17.5855V16.8449H16.3309L18.4446 12.3855C18.5298 12.2156 18.5716 12.0997 18.6449 11.9377L19.7563 9.67004C19.538 9.67004 19.3551 9.72704 19.1579 9.76604C18.9647 9.80424 18.7228 9.85464 18.542 9.89074C18.1296 9.97324 17.7395 10.042 17.3492 10.1329L16.6437 9.44984C17.5076 9.43604 17.2136 9.52894 17.8769 9.08674C18.536 8.64734 18.2421 8.70124 19.1916 8.93864C19.4098 8.99314 19.7718 9.11454 20.0341 9.11454L22.5519 4.07814L14.4421 0.0234375C13.9233 1.00854 13.2066 2.72814 12.6584 3.82204C12.5455 4.04734 12.0722 5.01364 12.0722 5.13364L12.0259 0.921338H2.39768V13.1417C4.49288 13.1417 4.15838 13.3946 4.86258 12.6904C5.03088 12.5221 5.16968 12.3435 5.36018 12.2159L6.01948 12.8528C6.11218 12.809 6.14008 12.8046 6.26768 12.7531L7.10428 12.3862C7.27408 12.3134 8.06638 11.9518 8.23018 11.9382V11.9382Z" fill="#12B370"/>
<path fill-rule="evenodd" clip-rule="evenodd" d="M18.5528 6.70794L17.7741 6.32104C17.7831 6.13504 18.3823 4.99844 18.5065 4.76374C18.6801 4.87994 19.0011 4.98464 19.2934 5.18034C19.1657 5.42174 19.0455 5.67594 18.9231 5.92094C18.8162 6.13504 18.6077 6.47214 18.5528 6.70794V6.70794ZM16.7012 6.66164L18.8768 7.72624L20.3298 4.81904L18.1451 3.72754L17.4263 5.21114C17.2999 5.46334 17.191 5.68184 17.0715 5.92094L16.7012 6.66164V6.66164Z" fill="#12B370"/>
<path fill-rule="evenodd" clip-rule="evenodd" d="M15.2188 14.1141L14.4401 13.7272C14.4498 13.5286 14.686 13.1426 14.7867 12.9413C14.9222 12.6702 15.0381 12.4241 15.1725 12.17C15.3081 12.2607 15.4117 12.2891 15.5737 12.3706C15.74 12.4542 15.8213 12.494 15.9595 12.5866C15.8317 12.8279 15.7115 13.0822 15.5891 13.3272C15.4822 13.5412 15.2737 13.8784 15.2188 14.1141V14.1141ZM13.3672 14.0678C13.6453 14.1421 15.3945 15.0929 15.5428 15.1325L16.9958 12.2252L14.8111 11.1338C14.7566 11.3472 14.5619 11.6765 14.4627 11.8768L13.5434 13.6886C13.478 13.8087 13.4305 13.9482 13.3672 14.0678Z" fill="#12B370"/>
<path fill-rule="evenodd" clip-rule="evenodd" d="M15.5898 5.22639L14.8111 4.83949C14.8202 4.65349 15.4194 3.51689 15.5435 3.28219C15.7171 3.39849 16.0381 3.50309 16.3305 3.69879C16.2028 3.94019 16.0825 4.19439 15.9602 4.43949C15.8532 4.65349 15.6447 4.99069 15.5898 5.22639ZM13.7383 5.1801C13.8922 5.2212 13.7642 5.18389 13.8693 5.23419L15.9139 6.24479L17.3668 3.3375L15.1821 2.24609C15.1277 2.45939 14.9329 2.78879 14.8337 2.98899L13.7383 5.1801Z" fill="#12B370"/>
<path fill-rule="evenodd" clip-rule="evenodd" d="M4.9906 3.14304H5.7312V4.99454H4.9906V3.14304ZM4.25 5.73524H6.4719V2.40234H4.25V5.73524Z" fill="#12B370"/>
<path fill-rule="evenodd" clip-rule="evenodd" d="M8.69382 3.14304H9.43442V4.99454H8.69382V3.14304ZM7.95312 5.73524H10.175V2.40234H7.95312V5.73524Z" fill="#12B370"/>
<path fill-rule="evenodd" clip-rule="evenodd" d="M4.9906 7.58738H5.7312V9.43898H4.9906V7.58738ZM4.25 10.1796H6.4719V6.84668H4.25V10.1796Z" fill="#12B370"/>
<path fill-rule="evenodd" clip-rule="evenodd" d="M8.69382 7.58738H9.43442V9.43898H8.69382V7.58738ZM7.95312 10.1796H10.175V6.84668H7.95312V10.1796Z" fill="#12B370"/>
<path fill-rule="evenodd" clip-rule="evenodd" d="M21.0992 12.6792C20.8679 12.6741 20.775 12.5918 20.5437 12.5867C20.7722 12.2455 20.8442 12.4166 20.9336 12.0507C20.9887 11.8249 21.0943 11.5103 21.0992 11.2905L21.5731 11.7424L21.0992 12.6792ZM19.0625 13.0033C19.3775 13.0103 21.1857 13.5586 21.4695 13.5586C21.5547 13.5586 21.9263 12.738 21.9943 12.6022C22.1656 12.2597 22.3162 11.939 22.4879 11.6146L20.694 9.79785C20.6772 10.0531 20.5169 10.5646 20.4604 10.7906C20.1483 12.0389 20.3831 11.6595 19.6527 12.3899C19.4659 12.5767 19.1986 12.7999 19.0625 13.0033V13.0033Z" fill="#12B370"/>
<path fill-rule="evenodd" clip-rule="evenodd" d="M0.175781 19.0668H6.84148V18.3262H0.175781V19.0668Z" fill="#12B370"/>
<path fill-rule="evenodd" clip-rule="evenodd" d="M0.0253906 1.28021L0.741592 2.0216L0.0261914 2.7623L0.741592 3.50291L0.257993 4.0126L0.813491 4.542L1.80649 3.5242L1.09079 2.7832L1.80629 2.0426L1.09079 1.302L1.55319 0.817605L1.04479 0.283203L0.0253906 1.28021Z" fill="#12B370"/>
<path fill-rule="evenodd" clip-rule="evenodd" d="M18.6914 19.0668H22.3946V18.3262H18.6914V19.0668Z" fill="#12B370"/>
<path fill-rule="evenodd" clip-rule="evenodd" d="M18.877 1.1523C18.9367 1.4085 19.1413 1.5442 19.201 1.8004C19.4117 1.7828 20.0062 1.4212 20.5801 1.9951C20.7561 2.1711 20.8878 2.4607 20.9137 2.7724H21.6544C21.6544 1.7128 20.7913 0.920899 19.9417 0.920899C19.4522 0.920899 19.3169 0.9195 18.877 1.1523V1.1523Z" fill="#12B370"/>
<path fill-rule="evenodd" clip-rule="evenodd" d="M21.2832 0.921365C21.5026 0.972465 21.6024 1.07226 21.6535 1.29166H22.3941C22.3941 0.649265 21.9255 0.180664 21.2832 0.180664V0.921365V0.921365Z" fill="#12B370"/>
<path fill-rule="evenodd" clip-rule="evenodd" d="M0.650391 9.17226L1.18349 9.72766L1.94589 8.94016L1.38989 8.41016L0.650391 9.17226Z" fill="#12B370"/>
<path fill-rule="evenodd" clip-rule="evenodd" d="M21.0176 15.6061L21.7578 16.3714L22.3137 15.8375L21.5263 15.0752L21.0176 15.6061Z" fill="#12B370"/>
<path fill-rule="evenodd" clip-rule="evenodd" d="M0.279297 14.4954L1.0439 15.2825L1.5533 14.751L0.788696 13.9639L0.279297 14.4954Z" fill="#12B370"/>
<path fill-rule="evenodd" clip-rule="evenodd" d="M18.7383 14.8081C18.7383 14.9322 19.0149 15.3451 19.0624 15.5487L19.7486 15.2084L19.3869 14.4375C19.2904 14.4885 18.7383 14.7227 18.7383 14.8081V14.8081Z" fill="#12B370"/>
</svg>
