<svg width="25" height="22" viewBox="0 0 25 22" fill="none" xmlns="http://www.w3.org/2000/svg">
<path fill-rule="evenodd" clip-rule="evenodd" d="M1.60609 12.7486C1.60609 11.9879 2.55948 11.4853 2.75458 11.4853C2.95948 11.4853 3.38659 11.7439 3.55859 11.8298C3.81699 11.959 4.04969 12.0751 4.32439 12.2125C4.85049 12.4756 5.35339 12.7126 5.85559 12.9783V20.3289H1.60609V12.7486ZM11.7706 20.1566V19.5824H15.733L16.3072 20.3289L12.2294 20.3294C11.9863 20.3319 11.7706 20.395 11.7706 20.1566V20.1566ZM6.65958 20.1566V13.0358C6.89228 12.88 7.14848 12.7917 7.42538 12.6531L9.87548 11.4853C10.143 11.6268 10.364 11.7122 10.5805 11.9287C10.769 12.1172 10.9666 12.3944 10.9666 12.7486V20.3289H6.83189C6.69959 20.3289 6.65958 20.2889 6.65958 20.1566V20.1566ZM11.7706 18.3764H15.331C15.3349 18.5514 15.3569 18.5858 15.3884 18.721H11.7706V18.3764ZM22.8538 18.721H21.533C21.533 18.2253 21.6855 18.3764 22.9687 18.3764C22.9385 18.5058 22.9091 18.6189 22.8538 18.721ZM16.135 18.2616C16.135 17.4866 16.1822 16.8579 16.866 16.2362C18.3777 14.8619 20.7865 15.9928 20.7865 17.9744C20.7865 18.6154 20.4729 19.2386 20.1408 19.5684C19.3242 20.3791 18.3547 20.5226 17.2826 19.9852C16.7256 19.7059 16.135 18.8961 16.135 18.2616V18.2616ZM21.9924 14.0695H23.3132C23.4391 14.2574 23.4635 14.1493 23.4855 14.414C22.1062 14.414 22.1935 14.5194 21.9924 14.0695ZM14.125 17.5724H11.7706V12.9209H16.4795V14.1843C16.2135 14.2463 15.8017 14.561 15.5832 14.7236C15.0425 15.1261 14.6495 15.783 14.3941 16.4059C14.2338 16.7967 14.2227 17.1534 14.125 17.5724ZM21.1885 13.6675V14.1269C21.1885 14.6942 21.7122 15.218 22.2796 15.218H23.5429V17.0556C23.5429 17.7566 23.101 17.5724 21.7053 17.5724C21.4382 17.5724 21.6134 17.26 21.2469 16.5378C20.4475 14.9625 18.4225 14.2661 16.7541 15.3203C16.0262 15.7803 15.3501 16.7154 15.331 17.5724H14.9864C14.9864 16.4887 15.7938 15.3718 16.7653 14.9295C17.42 14.6315 17.2835 14.857 17.2835 12.9209H22.1073C22.413 12.9209 22.7825 13.0898 22.9113 13.2655C21.9848 13.2655 21.1885 13.1049 21.1885 13.6675V13.6675ZM14.2399 11.7724C14.3511 11.8258 14.8421 12.0021 14.9864 12.0021V12.0595H14.1825C14.1953 11.9048 14.2086 11.9028 14.2399 11.7724ZM3.61599 9.4753C3.77979 9.4754 4.22279 10.0397 4.80199 10.3567C6.06809 11.0493 7.03189 10.9699 8.28019 10.1771C8.41189 10.0934 8.45559 10.0479 8.57809 9.9582C8.81519 9.7845 8.92028 9.6151 9.12888 9.4754C9.47508 9.6585 10.134 10.195 10.4497 10.2793C10.3416 10.4269 9.65329 10.7158 9.47409 10.7967L6.42178 12.2292C6.19778 12.307 5.80319 12.0336 5.43439 11.8491L2.41008 10.3367L3.61599 9.4753V9.4753ZM9.99029 8.212C10.5818 8.212 11.4417 8.4058 11.8935 8.5484C13.1343 8.9402 14.5894 9.7684 15.331 10.7961C15.4799 11.0025 15.7042 11.2133 15.8478 11.4278L14.467 10.9761C14.4754 10.707 14.527 10.7641 14.527 10.3367C14.0663 10.0282 13.8807 9.8202 13.5968 10.957C13.5104 11.3027 13.4057 11.6961 13.3211 12.0595H11.6557C11.2258 11.2471 10.9489 11.2368 10.7943 11.0258C11.0285 11.0064 11.1919 10.8843 11.3694 10.797C12.2702 10.3541 11.1296 9.7962 10.737 9.5327C10.5621 9.4152 10.3944 9.3241 10.2085 9.1997C10.0077 9.0653 9.85479 8.9542 9.64579 8.8437C9.76349 8.6211 9.87259 8.4345 9.99029 8.212ZM6.42989 9.9922C5.18399 9.9922 4.12579 8.9857 3.61529 7.8681C3.51639 7.6517 3.40828 6.8337 3.04178 6.8337C2.67908 6.8337 2.91198 7.0166 2.46748 6.7189V6.3743C2.94468 6.0548 3.21399 6.4179 3.21399 5.3981L4.53029 5.5749C6.38669 5.7919 7.87819 5.7084 9.70319 5.2832C9.70319 5.5933 9.64318 5.9794 9.83708 6.1256C9.96648 6.2231 10.4497 6.2785 10.4497 6.4892C10.4497 7.2844 9.66618 6.4237 9.43748 7.2572C9.17148 8.2268 8.67429 8.9341 7.86569 9.4755C7.56349 9.6778 6.92629 9.9922 6.42989 9.9922ZM9.93288 2.9288C10.4038 2.9288 11.1248 2.7613 11.7131 3.0436C11.5846 4.5879 7.21968 4.8812 6.31498 4.8812C4.70488 4.8812 3.07548 4.6621 1.74008 4.0007C1.50668 3.885 0.774487 3.444 0.916987 3.101C0.977287 2.9343 0.84179 3.0506 1.00769 2.9621C1.27739 2.8183 2.19649 2.9288 2.63979 2.9288C2.62759 3.4735 2.28779 3.5246 3.82369 3.9844C5.54779 4.5005 7.69028 4.3901 9.35248 3.784C9.42718 3.7568 9.69659 3.6559 9.76269 3.62C10.1133 3.4291 9.95578 3.1075 9.93288 2.9288ZM6.20019 1.5505C7.13839 1.5505 8.12998 0.759296 8.61208 0.861396C8.62178 1.2977 9.07149 2.5798 9.07149 3.0436C8.84589 3.0624 8.68298 3.134 8.47458 3.1933C7.14688 3.571 5.40309 3.643 4.08189 3.2094C3.90949 3.1527 3.71479 3.0614 3.50119 3.0436C3.50649 2.8037 3.93519 0.874996 4.08599 0.833496C4.25509 0.787096 5.70809 1.5505 6.20019 1.5505ZM2.86949 2.12479C2.15959 2.12479 1.13089 1.9236 0.513989 2.2961C-0.213611 2.7354 -0.0378145 3.802 0.858286 4.423C1.18129 4.6469 1.94608 5.0771 2.35258 5.111V5.5129C1.27958 5.7629 1.39488 7.5868 2.69718 7.6951C2.74558 7.9029 2.82229 8.0854 2.90829 8.288C2.99819 8.4999 3.13849 8.6259 3.15659 8.8437C2.97089 8.8932 1.75258 9.7754 1.46758 9.9686C1.33468 10.0587 1.31709 10.0888 1.20409 10.1645C1.20409 10.5143 1.19209 10.8051 1.89319 10.9684C1.80729 11.0857 1.65209 11.176 1.51369 11.278C1.18539 11.5202 0.802084 12.1518 0.802084 12.6912V20.3289C0.520784 20.3289 0.283686 20.2867 0.139086 20.4124C-0.138914 20.6543 0.0163824 21.1329 0.457582 21.1329H23.0835C23.3444 21.1329 23.3831 21.0102 23.5429 20.9032C23.5429 20.5333 23.552 20.5998 23.3707 20.3289H20.5568C20.6967 20.1199 20.8877 20.0423 21.131 19.5824C21.5904 19.5824 22.0498 19.5823 22.5093 19.5824C23.91 19.5827 23.3525 19.3891 23.8937 18.2103C23.9447 18.0993 24.0974 17.9345 24.1744 17.8019C24.2622 17.6508 24.3469 17.4672 24.3469 17.2279V14.5289C24.3469 13.182 23.3133 12.1972 22.104 12.0628L17.3983 12.0595C17.3496 11.8769 16.9793 11.5186 16.8014 11.2782L16.4906 10.8999C15.3071 9.3948 13.8765 8.2521 11.9777 7.7176C11.6632 7.6291 11.1099 7.4917 10.7943 7.4654L10.857 7.4133C11.6526 6.6533 11.1221 5.6562 10.5072 5.5129C10.5072 5.2641 10.5347 5.2305 10.4497 5.0535C12.0875 4.672 13.2833 2.9434 12.0015 2.2958C11.2338 1.9079 10.386 2.12479 9.70319 2.12479L9.40628 0.756396C9.35848 0.596196 9.25029 0.358295 9.10849 0.250195C8.17329 -0.462805 7.09058 0.746602 6.31498 0.746602C5.96598 0.746602 4.48899 0 4.13279 0C3.27079 0 3.14839 0.849804 3.01789 1.4119C2.96699 1.6314 2.88519 1.93519 2.86949 2.12479V2.12479Z" fill="#12B370"/>
<path fill-rule="evenodd" clip-rule="evenodd" d="M17.2825 18.0322C17.2825 16.3268 19.5795 16.5728 19.5795 17.8599C19.5795 19.1229 18.4703 19.2767 17.9519 19.0281C17.5686 18.8444 17.2825 18.4438 17.2825 18.0322ZM16.4785 17.8599C16.4785 19.0818 17.3259 19.9272 18.3162 19.9272C18.8383 19.9272 19.236 19.8891 19.68 19.5108C20.2841 18.9961 20.5478 18.291 20.3625 17.4789C20.2719 17.0818 20.0447 16.8048 19.7949 16.5534C19.2253 15.9799 18.4346 15.8624 17.6902 16.1429C17.4241 16.2431 17.0371 16.5413 16.8792 16.7675C16.6955 17.0303 16.4785 17.4135 16.4785 17.8599Z" fill="#12B370"/>
<path fill-rule="evenodd" clip-rule="evenodd" d="M14.5267 2.64167C14.7999 2.12537 15.2732 2.13587 15.2732 2.87137C14.6457 3.41527 14.5342 2.65837 14.5267 2.64167ZM13.7227 2.64167C13.7227 3.80047 15.0884 4.25337 15.8057 3.46127C16.4702 2.72737 16.0081 1.49316 14.8713 1.49316C14.2768 1.49316 13.7227 2.04727 13.7227 2.64167V2.64167Z" fill="#12B370"/>
<path fill-rule="evenodd" clip-rule="evenodd" d="M15.9043 5.62759C15.9043 5.94709 16.1594 6.03989 16.3063 6.25929C15.5576 6.76059 16.0228 7.17809 16.3638 7.17809C16.5173 7.17809 16.7614 6.91329 16.8806 6.83349C17.0361 6.93769 17.1892 7.17809 17.3974 7.17809C17.7795 7.17809 18.143 6.72009 17.4548 6.25929C17.5572 6.10639 18.1797 5.62188 17.6106 5.29958C17.2544 5.09778 17.2117 5.40579 16.8806 5.62759C16.6516 5.47419 16.6517 5.37799 16.3638 5.22559C16.1319 5.27959 15.9043 5.34989 15.9043 5.62759Z" fill="#12B370"/>
<path fill-rule="evenodd" clip-rule="evenodd" d="M19.8676 4.07768C19.8676 3.18058 18.4796 3.76168 19.1019 4.38408C19.3618 4.64388 19.8676 4.49958 19.8676 4.07768Z" fill="#12B370"/>
<path fill-rule="evenodd" clip-rule="evenodd" d="M7.46289 15.6195C7.46289 15.7549 7.46939 15.7919 7.54639 15.8805C7.76069 16.1269 8.26679 16.0745 8.26679 15.562C8.26679 15.1829 7.46289 14.9975 7.46289 15.6195V15.6195Z" fill="#12B370"/>
<path fill-rule="evenodd" clip-rule="evenodd" d="M7.46289 18.7786V18.9509C7.61369 19.0519 7.62359 19.0833 7.80739 19.1806C8.03929 19.1266 8.26679 19.0563 8.26679 18.7786C8.26679 18.2036 7.46289 18.1967 7.46289 18.7786V18.7786Z" fill="#12B370"/>
<path fill-rule="evenodd" clip-rule="evenodd" d="M7.46289 7.00551V7.17781C7.57839 7.25521 7.69469 7.40751 7.86489 7.40751C8.31519 7.40751 8.48169 6.60352 7.86489 6.60352C7.59679 6.60352 7.46289 6.73741 7.46289 7.00551Z" fill="#12B370"/>
<path fill-rule="evenodd" clip-rule="evenodd" d="M7.46289 14.07V14.2422C7.57839 14.3196 7.69469 14.4719 7.86489 14.4719C8.20209 14.4719 8.71019 13.668 7.63519 13.668C7.55179 13.7924 7.46289 13.8591 7.46289 14.07V14.07Z" fill="#12B370"/>
<path fill-rule="evenodd" clip-rule="evenodd" d="M4.70703 6.94902C4.70703 7.19472 4.88403 7.40841 5.10903 7.40841C5.27923 7.40841 5.39544 7.25611 5.51104 7.17871C5.51104 6.25831 4.70703 6.59182 4.70703 6.94902V6.94902Z" fill="#12B370"/>
<path fill-rule="evenodd" clip-rule="evenodd" d="M7.46289 16.9983C7.46289 17.9186 8.26679 17.5851 8.26679 17.228C8.26679 16.9822 8.08979 16.7686 7.86489 16.7686C7.69469 16.7686 7.57839 16.9209 7.46289 16.9983V16.9983Z" fill="#12B370"/>
</svg>
