<svg width="20" height="21" viewBox="0 0 20 21" fill="none" xmlns="http://www.w3.org/2000/svg">
<path fill-rule="evenodd" clip-rule="evenodd" d="M4.12226 16.3958V16.4358L4.07556 16.4024L4.12226 16.3958ZM4.12226 16.3958C4.18326 16.1675 4.40356 15.8858 4.53146 15.6824L5.80676 13.5103C5.97396 13.1894 5.89506 12.8764 5.64716 12.7062C5.33186 12.4898 4.05666 12.4545 3.67326 12.3951L2.59896 12.3068C2.63106 12.2182 2.67836 12.1916 2.75936 12.1465L4.18866 11.3309C4.34126 11.2476 4.46326 11.1845 4.60286 11.1037C4.83886 10.9671 5.19986 10.8023 5.39626 10.6143C5.52026 10.4956 5.61446 10.3833 5.60896 10.1417C5.59936 9.7187 4.71166 9.06789 4.41296 8.76909C4.34996 8.70609 4.31656 8.67119 4.25316 8.60819L3.75146 8.14779C3.53086 7.92709 3.25256 7.754 3.08006 7.4964C3.65216 7.4964 6.41786 7.99559 6.79216 7.88189C7.03856 7.80699 7.20666 7.55449 7.21216 7.25609L7.07296 5.30729C7.03696 5.11439 7.06326 5.00269 7.04936 4.80989L7.00856 4.28939C7.20396 4.39269 8.07326 5.2512 8.32136 5.5021C8.44816 5.6303 8.53546 5.6744 8.66226 5.8026C8.98466 6.1285 9.41466 6.60069 9.86596 6.14449C10.091 5.91699 10.9842 4.11619 11.2041 3.67439C11.3081 3.46539 11.4985 3.0567 11.6397 2.8672C11.6432 2.8626 11.6526 2.85339 11.6588 2.84619C11.6588 3.21699 11.7404 3.6098 11.7397 3.9679L11.7806 4.52829C11.795 4.93069 11.8225 5.9955 11.9025 6.2104C12.0374 6.5732 12.501 6.71099 12.8534 6.48619L14.5721 5.47899C14.9683 5.27239 15.3151 5.0182 15.7076 4.8105C15.673 4.9402 15.5696 5.0648 15.5076 5.1718L14.4408 6.99119C14.1715 7.43089 13.6447 8.0637 14.133 8.5097C14.3337 8.693 14.795 8.7061 15.0689 8.7364C15.6358 8.799 16.6764 8.8691 17.1507 8.9796C17.0551 9.1101 16.532 9.38209 16.3628 9.47439C16.2102 9.55769 16.0882 9.62079 15.9486 9.70159C15.6784 9.85799 14.4883 10.5116 14.3539 10.6726C13.8535 11.2718 14.6418 11.739 15.076 12.1768C15.1981 12.3 15.2886 12.3477 15.417 12.4772C15.533 12.5942 15.6199 12.6821 15.7371 12.7984C15.8244 12.8852 15.8301 12.8737 15.9158 12.9405L16.3988 13.4195C16.525 13.5468 16.6525 13.6046 16.7499 13.75C16.4212 13.7427 15.1536 13.544 14.7463 13.5087C14.4189 13.4803 14.0997 13.4147 13.7435 13.389C13.3614 13.3615 13.1062 13.2105 12.8301 13.4782C12.5304 13.7688 12.6214 13.9064 12.6602 14.352C12.6909 14.7048 12.7557 15.056 12.7812 15.3936C12.8062 15.7244 12.8725 16.0528 12.9022 16.395C12.93 16.7139 13.0217 17.1113 13.0217 17.438C12.8218 17.3041 12.0145 16.3705 11.769 16.1251C11.2174 15.5737 10.5019 14.4649 9.92356 15.1016C9.77486 15.2654 9.66716 15.498 9.56116 15.7013L8.25126 17.9592C8.24196 17.8466 8.21066 17.5941 8.18696 17.4623C8.16576 17.3449 8.13376 17.0541 8.13026 16.9578C8.11836 16.6273 7.96546 15.0987 7.85126 14.9116C7.48726 14.315 6.78946 14.8375 6.33526 15.1211C6.08926 15.2748 5.84666 15.4099 5.60456 15.5529C5.35776 15.6988 5.12956 15.8325 4.87076 15.9817C4.74286 16.0554 4.63696 16.1267 4.52226 16.1944C4.39246 16.2709 4.28126 16.3587 4.12226 16.3958V16.3958ZM9.25346 4.6902C8.99036 4.514 8.82136 4.21959 8.55616 4.02449C8.27966 3.82099 8.10666 3.5533 7.85816 3.3596C7.77246 3.2928 7.76686 3.3043 7.67956 3.2176L6.79816 2.3751C6.26576 1.838 5.68566 2.25909 5.68566 2.64579L5.76666 4.12819C5.76586 4.36239 5.79436 4.44049 5.80656 4.60939C5.83066 4.94079 5.81046 5.28609 5.84846 5.60989C5.88446 5.91669 5.92626 6.27299 5.92626 6.61439C5.35476 6.48129 4.75076 6.48899 4.18656 6.38979L1.19596 6.05319C0.936162 6.05319 0.730463 6.2839 0.672763 6.4927C0.578263 6.8347 0.735864 6.9765 0.925364 7.1656L1.92726 8.128C2.03356 8.2352 2.08846 8.25099 2.18896 8.34729C2.27856 8.43329 2.33976 8.49989 2.42866 8.58869L3.96196 10.0619C3.78336 10.1564 3.61476 10.2426 3.44126 10.343L2.93546 10.639C2.75396 10.7502 2.61416 10.8267 2.42486 10.9301C2.31726 10.9888 2.29036 11.0149 2.17106 11.0771C1.55116 11.4004 0.946463 11.7839 0.340263 12.1327C-0.0650365 12.3659 -0.113337 12.8527 0.222663 13.1598C0.470663 13.3865 1.54076 13.3802 1.90946 13.4373C2.25776 13.4913 2.68336 13.5067 3.05576 13.5738C3.44926 13.6447 3.88066 13.6256 4.24256 13.7099C4.18416 13.9606 3.44806 15.0987 3.29366 15.3667L1.99866 17.5592C1.93286 17.6705 1.71706 18.0159 1.71706 18.1596C1.71706 18.6895 2.25856 18.9161 2.66706 18.7087C3.14446 18.4664 3.58466 18.15 4.05596 17.8928C4.15186 17.8404 4.23866 17.7844 4.33086 17.7268C4.66586 17.5176 6.61096 16.3308 6.84826 16.2755C6.84826 16.6542 6.91046 17.1196 6.96036 17.4462C7.03286 17.9203 7.13826 20.0175 7.33826 20.2752C7.60466 20.6184 8.13586 20.5929 8.36436 20.2369C8.85116 19.4783 9.23896 18.6647 9.71046 17.895C9.77726 17.7859 9.80486 17.7214 9.87056 17.6142L10.3088 16.8497C10.3711 16.7306 10.4241 16.6935 10.4562 16.5561C10.7259 16.7367 11.0398 17.1599 11.288 17.4079C11.3645 17.4844 11.4117 17.5322 11.4884 17.6083L12.2924 18.4881C12.353 18.5658 12.4365 18.6367 12.5106 18.7108C12.8001 19.0003 13.456 19.8833 13.8636 19.8833C14.7189 19.8833 14.4695 18.8214 14.3688 18.2557L13.9437 14.6319L17.3944 15.0697C17.8659 15.1247 18.6362 15.3302 18.9857 15.0237C19.1135 14.9116 19.1551 14.7115 19.1551 14.5116C19.1551 14.19 18.6008 13.8187 18.4034 13.6197L16.0582 11.395C15.9345 11.2911 15.9271 11.3326 15.8279 11.1844C16.9961 10.5663 18.2589 9.77439 19.4094 9.11359C19.7397 8.92399 19.8223 8.39579 19.5275 8.12609C19.2824 7.90199 18.8037 7.93069 18.4763 7.89449C18.2935 7.87429 18.0824 7.8277 17.8721 7.8172C17.7179 7.8096 17.4372 7.7657 17.3027 7.7452L16.1485 7.61659C15.9766 7.60359 15.7007 7.5722 15.5472 7.5364C15.6499 7.3424 15.742 7.1978 15.8547 7.0021L17.1347 4.8346C17.3262 4.5219 18.0728 3.3519 18.0728 3.1268C18.0728 2.4152 17.4755 2.3492 17.1507 2.5255L13.0217 4.97079L12.8638 2.60329C12.8494 2.48049 12.871 2.3282 12.862 2.2042C12.8511 2.0544 12.8221 2.0754 12.8199 1.8855C12.816 1.547 12.7919 0.4997 12.6386 0.2629C12.5186 0.0776004 12.3123 0 12.0596 0C11.6102 0 11.4231 0.6998 11.226 1.0104L10.7372 1.9247C10.6807 2.0214 10.6274 2.14279 10.5764 2.24489C10.5264 2.34489 10.4853 2.4276 10.4297 2.5392C10.3095 2.7808 9.36056 4.6118 9.25346 4.6902V4.6902Z" fill="#12B370"/>
</svg>
