<svg width="21" height="15" viewBox="0 0 21 15" fill="none" xmlns="http://www.w3.org/2000/svg">
<path fill-rule="evenodd" clip-rule="evenodd" d="M5.94631 12.981L4.15871 12.6944C3.88181 12.6221 3.536 12.4249 3.2874 12.2892C3.1705 12.2253 3.13321 12.2097 3.03421 12.1434L2.30561 11.5955C1.85661 11.2204 1.28191 10.6364 0.689407 11.1547C0.490507 11.3288 0.441406 11.5613 0.441406 11.8242C0.441406 12.2408 0.859705 12.4774 1.05031 12.6514L2.18051 13.5158C3.39501 14.3279 4.56461 14.5767 6.18571 14.5767C6.69751 14.5767 7.22021 14.5086 7.64571 14.4012C7.88821 14.34 8.0621 14.2898 8.265 14.2227C8.63161 14.1015 9.0734 13.9031 9.385 13.7072C9.9502 13.3519 10.3279 13.1213 10.8424 12.6514L12.4407 11.3776C13.6613 10.4894 16.0555 10.2639 17.5019 10.9593C17.6309 11.0214 17.7176 11.0679 17.8473 11.1325L18.4883 11.5286C18.6022 11.6053 18.6792 11.6727 18.7842 11.7513L19.6441 12.4471C19.8723 12.5879 20.1837 12.6199 20.4417 12.4776C20.6949 12.338 20.8393 12.1005 20.8654 11.8462V11.6783C20.8491 11.5179 20.7863 11.3577 20.6744 11.2173L19.7583 10.4581C19.2521 10.0175 18.4003 9.58011 17.8063 9.33851C16.5216 8.81611 14.4539 8.822 13.1215 9.2662C12.774 9.382 12.4701 9.5171 12.1687 9.6696L11.7385 9.91761C11.6569 9.96871 11.6192 9.97991 11.5413 10.0394L9.06851 11.9946C8.93521 12.098 8.80541 12.1881 8.65891 12.263C8.50751 12.3404 8.38491 12.4285 8.22051 12.5028C8.14091 12.5387 8.08491 12.5522 7.99391 12.5954L7.2071 12.8457L5.94631 12.981Z" fill="#12B370"/>
<path fill-rule="evenodd" clip-rule="evenodd" d="M6.22551 8.59345C5.49001 8.59345 5.00131 8.60645 4.29601 8.36895C4.18051 8.33005 4.08261 8.31524 3.99081 8.27524C3.33851 7.99074 2.80201 7.67235 2.26651 7.20715C1.86481 6.85815 1.2474 6.22425 0.649705 6.84705C0.530905 6.97085 0.462306 7.11835 0.441406 7.27285V7.47925C0.472006 7.71245 0.604905 7.94495 0.832605 8.12245C0.901105 8.17585 0.894505 8.15456 0.970505 8.22395C1.51341 8.71985 1.9978 9.02636 2.6195 9.40716C4.0743 10.2985 6.39291 10.4536 8.10601 9.91546C8.33401 9.84386 8.4961 9.77305 8.715 9.68665C8.9253 9.60365 9.07361 9.53346 9.24911 9.42306C9.94361 8.98616 10.2709 8.81876 10.9221 8.22395C11.1706 7.99695 12.2581 7.11315 12.5286 6.95835L13.3262 6.55915C13.3712 6.53845 13.401 6.51585 13.4617 6.49525C13.5308 6.47175 13.5983 6.46135 13.6508 6.44495C14.8825 6.05965 16.4139 6.10465 17.5947 6.63835C17.7841 6.72395 17.9388 6.82906 18.1129 6.91806C18.5324 7.13246 19.0991 7.64935 19.4767 7.94775C20.1711 8.49635 20.8196 8.04776 20.8654 7.47306V7.34255C20.8467 7.11035 20.7277 6.86866 20.4742 6.67096L19.8981 6.20985C18.6754 5.14765 17.0603 4.56445 15.3206 4.56445C14.842 4.56445 14.2096 4.62336 13.8361 4.71556C13.0141 4.91836 12.2196 5.19445 11.5303 5.68075C11.4456 5.74045 11.3976 5.78435 11.2997 5.84905C11.2193 5.90225 11.1352 5.94995 11.0628 6.01115L9.48911 7.30945C9.02091 7.67835 8.8179 7.83505 8.2602 8.11495L7.8451 8.29825C7.776 8.32165 7.70851 8.33205 7.65601 8.34845C7.22901 8.48205 6.77961 8.59345 6.22551 8.59345Z" fill="#12B370"/>
<path fill-rule="evenodd" clip-rule="evenodd" d="M5.94631 4.2452C5.25841 4.2452 4.3201 4.08129 3.8049 3.83359C3.3186 3.59979 2.79611 3.2955 2.38621 2.9387C1.81381 2.4406 1.24271 1.81589 0.589407 2.55819C0.502307 2.65709 0.454306 2.7875 0.441406 2.9272V3.08609C0.457006 3.26159 0.523105 3.4384 0.632405 3.5756L1.94141 4.6201C2.02971 4.6786 2.07351 4.7169 2.14901 4.77149C2.43931 4.9813 3.15931 5.3156 3.50051 5.4544C5.24791 6.165 7.82861 5.9644 9.56821 4.8754L12.2382 2.7984C12.8648 2.3122 13.8927 1.9066 14.6817 1.8512C15.0333 1.8265 15.8228 1.80979 16.1427 1.86739C16.4142 1.91629 16.6198 1.93499 16.842 2.00569C17.1814 2.11369 17.404 2.1754 17.7407 2.3437L19.4587 3.5776C20.0285 4.1027 20.8654 3.8188 20.8654 2.9687C20.8654 2.5172 20.0633 1.9543 19.6849 1.676L19.1027 1.2609C17.3687 0.117599 14.9926 -0.078399 12.9818 0.590001C12.1128 0.878901 11.5031 1.3336 10.7889 1.8676L10.4438 2.1608C10.0054 2.5336 9.4386 3.0045 8.9774 3.3272C8.1272 3.9219 7.22891 4.2452 5.94631 4.2452Z" fill="#12B370"/>
</svg>
