<svg width="80" height="80" viewBox="0 0 80 80" fill="none" xmlns="http://www.w3.org/2000/svg">
<g clip-path="url(#clip0)">
<path fill-rule="evenodd" clip-rule="evenodd" d="M4.65047 62.0243C3.20195 63.4728 1.02918 61.3 2.47769 59.8515C8.36229 53.9669 17.9587 54.0574 23.7528 59.8515C28.732 63.8349 35.8841 63.8349 40.8634 59.8515C46.6574 54.0574 56.1633 53.9669 62.1384 59.8515C67.4798 64.197 75.2656 64.016 80.4259 59.3083C81.0597 58.7651 81.965 58.8556 82.5987 59.4894C83.1419 60.1231 83.0514 61.0284 82.4176 61.6621C76.0804 67.2751 66.5745 67.4562 60.0562 62.1148C54.9864 57.045 48.0154 57.5882 42.8551 62.1148C36.7894 67.1846 27.7362 67.1846 21.6705 62.1148C16.9628 57.4071 9.44868 57.2261 4.65047 62.0243Z" fill="#17C86B"/>
<path fill-rule="evenodd" clip-rule="evenodd" d="M50.0071 44.3706L48.5586 52.609C46.7479 52.9711 44.8467 53.5143 43.1266 54.4197L43.3982 52.8806L37.6947 51.8848L36.6083 57.5883L38.3284 57.9504C34.7977 60.3948 29.9995 60.3948 26.4687 58.041L29.0941 43.1937L17.506 41.1114L15.5143 52.5185C13.8847 52.3374 12.0741 52.3374 10.4445 52.609L13.0699 37.8523L34.345 25.1777L50.0071 44.3706ZM3.74512 33.5972L31.0858 17.392L36.5178 14.1328L40.5012 19.0216L45.7521 25.4493L46.6574 20.289L54.081 21.5565L51.9988 33.0541L60.6899 43.6463L55.1674 46.9055L35.0693 22.2807L7.72854 38.486L3.74512 33.5972ZM29.7279 56.4114L35.5219 57.4072L36.5178 51.6132L30.7237 50.6173L29.7279 56.4114ZM31.9912 43.7369L37.6947 44.7327L36.6988 50.5268L30.9048 49.4404L31.9912 43.7369ZM44.6657 45.9096L38.8716 44.9138L37.8758 50.7078L43.6698 51.7037L44.6657 45.9096Z" fill="#00023B"/>
</g>
<defs>
<clipPath id="clip0">
<rect width="80" height="80" fill="white"/>
</clipPath>
</defs>
</svg>
