<svg width="80" height="80" viewBox="0 0 80 80" fill="none" xmlns="http://www.w3.org/2000/svg">
<path d="M69.3166 64.8176L45.4527 23.4276C44.224 21.2934 42.0251 20 39.5676 20C37.1101 20 34.9112 21.2934 33.6825 23.4276L9.81856 64.8176C8.46045 66.9517 8.46045 69.5386 9.68921 71.6728C10.918 73.8069 13.1168 75.1004 15.5743 75.1004H63.3668C65.8243 75.1004 68.0232 73.8069 69.2519 71.6728C70.5454 69.5386 70.5454 66.9517 69.3166 64.8176ZM64.9189 69.0859C64.7896 69.3446 64.3369 69.9266 63.4315 69.9266H15.639C14.7336 69.9266 14.2809 69.3446 14.1516 69.0859C14.0222 68.8272 13.6989 68.1158 14.1516 67.3398L38.0155 25.9498C38.4682 25.1737 39.2442 25.1091 39.5029 25.1091C39.7616 25.1091 40.5377 25.1737 40.9904 25.9498L64.8543 67.3398C65.3716 68.1805 65.0483 68.8272 64.9189 69.0859Z" fill="#00023B"/>
<path d="M44.8709 50.2017H40.8612L43.6421 41.2124C43.7715 40.889 43.5128 40.501 43.1248 40.501H36.3989C36.1402 40.501 35.9462 40.695 35.8815 40.9537L33.2946 55.1815C33.23 55.5048 33.4887 55.8282 33.812 55.8282H36.9163L35.1701 65.3349C35.0408 65.917 35.8168 66.2404 36.1402 65.723L45.3236 51.0425C45.5823 50.7191 45.3236 50.2017 44.8709 50.2017Z" fill="#17C86B"/>
</svg>
