<svg width="80" height="80" viewBox="0 0 80 80" fill="none" xmlns="http://www.w3.org/2000/svg">
<g clip-path="url(#clip0)">
<path d="M-25.309 42.2449C-25.309 42.1662 -25.309 42.0875 -25.309 42.0087H-28V39.3324H-25.1508V41.379C-24.9133 40.7493 -24.5176 40.277 -23.9636 39.9621H-24.5176V38.7026H-25.309V36.8921V20.8338H32.309V38.5452V38.6239H31.5176V39.8834H30.9636C31.5176 40.1982 31.9133 40.6706 32.1508 41.3003V39.2536H35V41.93H32.309C32.309 42.0087 32.309 42.0875 32.309 42.1662C32.309 43.6618 31.1219 44.8426 29.6181 44.8426C28.1935 44.8426 27.0063 43.7405 26.9271 42.3236H24.5528C24.4736 43.7405 23.3656 44.8426 21.8618 44.8426C20.358 44.8426 19.1709 43.6618 19.1709 42.1662C19.1709 41.1429 19.804 40.277 20.5955 39.8047V38.6239H19.8832L15.451 41.7726C15.3719 41.8513 15.2136 41.8513 15.1344 41.8513H-9.08417C-9.24246 41.8513 -9.32161 41.8513 -9.40075 41.7726L-13.7538 38.8601V39.9621C-12.8832 40.4344 -12.3291 41.3003 -12.3291 42.3236C-12.3291 43.8192 -13.5163 45 -15.0201 45C-16.4447 45 -17.6319 43.898 -17.7111 42.4811H-20.0854C-20.1646 43.898 -21.2726 45 -22.7764 45C-24.1219 44.9213 -25.309 43.7405 -25.309 42.2449ZM-21.7475 42.2449C-21.7475 41.7726 -22.1432 41.379 -22.6181 41.379C-23.093 41.379 -23.4887 41.7726 -23.4887 42.2449C-23.4887 42.7172 -23.093 43.1108 -22.6181 43.1108C-22.1432 43.1895 -21.7475 42.7959 -21.7475 42.2449ZM-14.0704 42.2449C-14.0704 41.7726 -14.4661 41.379 -14.941 41.379C-15.4158 41.379 -15.8116 41.7726 -15.8116 42.2449C-15.8116 42.7172 -15.4158 43.1108 -14.941 43.1108C-14.4661 43.1108 -14.0704 42.7959 -14.0704 42.2449ZM22.8907 42.2449C22.8907 41.7726 22.495 41.379 22.0201 41.379C21.5452 41.379 21.1495 41.7726 21.1495 42.2449C21.1495 42.7172 21.5452 43.1108 22.0201 43.1108C22.495 43.1895 22.8907 42.7959 22.8907 42.2449ZM30.5678 42.2449C30.5678 41.7726 30.1721 41.379 29.6972 41.379C29.2224 41.379 28.8266 41.7726 28.8266 42.2449C28.8266 42.7172 29.2224 43.1108 29.6972 43.1108C30.1721 43.1895 30.5678 42.7959 30.5678 42.2449ZM0.729898 40.828V38.7813H-11.7751L-8.84673 40.828H0.729898ZM6.66583 40.828V38.7813H1.91709V40.828H6.66583ZM15.0553 40.828L17.9837 38.7813H7.85302V40.828H15.0553ZM-20.0063 40.5131V40.0408H-21.2726C-21.0352 40.1983 -20.8769 40.3557 -20.6394 40.5131H-20.0063ZM-16.2864 40.0408H-18.2651V40.5131H-16.9196C-16.6822 40.277 -16.5239 40.1195 -16.2864 40.0408ZM25.3442 40.5131V40.0408H23.3656C23.603 40.1983 23.7613 40.3557 23.9987 40.5131H25.3442ZM28.3518 40.0408H27.0854V40.5131H27.7977C27.956 40.277 28.1143 40.1195 28.3518 40.0408ZM-2.98995 36.105V22.0933H-13.1206V36.105H-2.98995ZM9.43593 36.105V22.5656H-2.43593V36.105H9.43593ZM20.1206 36.105V22.0933H10.0691V36.105H20.1206ZM-11.3003 34.2945V33.4286H-4.8103V34.2945H-11.3003ZM11.8103 34.2945V33.4286H18.3003V34.2945H11.8103ZM24.7111 32.6414V31.3032H20.9121V32.6414H24.7111ZM-11.3003 31.9329V31.0671H-4.8103V31.9329H-11.3003ZM11.8103 31.9329V31.0671H18.3003V31.9329H11.8103ZM-11.3003 29.5714V28.7055H-4.8103V29.5714H-11.3003ZM11.8103 29.5714V28.7055H18.3003V29.5714H11.8103ZM-11.3003 27.2099V26.344H-4.8103V27.2099H-11.3003ZM11.8103 27.2099V26.344H18.3003V27.2099H11.8103ZM-19.848 25.3994V23.0379H-23.647V25.3994H-19.848ZM30.647 25.3994V23.0379H26.848V25.3994H30.647ZM-11.3003 24.8484V23.9825H-4.8103V24.8484H-11.3003ZM11.8103 24.8484V23.9825H18.3003V24.8484H11.8103ZM-25.309 19.7318V18H32.309V19.7318H-25.309Z" fill="#00023B"/>
<path d="M72.7396 30.7788C75.1108 30.3035 76.6564 27.9685 76.1754 25.569C75.6928 23.1646 73.3715 21.6101 70.997 22.0855C68.6209 22.5617 67.0825 24.8878 67.5644 27.2929C68.043 29.6909 70.361 31.2542 72.7396 30.7788Z" fill="#00023B"/>
<path d="M47.0792 27.0749C41.2728 28.9708 38.908 32.8917 40.0549 36.401C41.201 39.9111 45.2946 41.2646 51.1018 39.3687C56.9081 37.4688 64.2818 30.8441 63.6652 28.9571C62.9832 26.8715 52.8855 25.1742 47.0792 27.0749Z" fill="#17C86B"/>
<path d="M75.0681 35.452C74.0019 34.908 72.6936 35.3293 72.148 36.3955L71.2473 38.1558L70.2497 32.7127C70.1617 32.2325 69.5774 31.4843 69.5774 31.4843C68.9632 30.8257 68.1892 30.4932 67.2634 30.4932C66.3829 30.4932 65.6331 30.8257 65.0156 31.4843L55.4272 41.0065C55.0309 41.4052 52.248 43.7975 51.7928 46.5037L50.2754 55.4901L41.9832 54.3343C40.6289 54.1858 39.2197 54.8072 39.0308 56.1107C38.6612 58.6499 41.7379 59.0147 41.7379 59.0147C41.7379 59.0147 50.9155 60.4844 53.1536 60.4844C54.9098 60.3819 55.813 58.8686 56.0002 58.0211C56.583 55.3827 57.7856 50.4408 57.7856 50.4408C57.7856 50.4408 61.7412 54.3964 63.2376 56.3989L65.2198 67.1955C65.2707 67.4627 65.3473 67.7161 65.445 67.9518H43.9695V69.6992H67.717V69.6863C67.8938 69.6911 68.077 69.6766 68.265 69.6402C69.8857 69.3327 70.3393 68.0107 70.1375 66.3464L68.5927 55.716C68.5314 54.9679 68.3344 53.7152 67.7905 52.9428C67.7905 52.9428 64.1561 48.2471 62.8711 46.6498L67.5306 41.9541L68.1311 45.2285C68.2989 46.143 69.0302 46.8492 69.9503 46.984C70.0568 46.9993 70.1625 47.0074 70.2667 47.0074C71.0721 47.0074 71.8228 46.5578 72.1989 45.825L76.0125 38.3729C76.5572 37.306 76.1359 35.9984 75.0681 35.452Z" fill="#00023B"/>
</g>
<defs>
<clipPath id="clip0">
<rect width="80" height="80" fill="white"/>
</clipPath>
</defs>
</svg>
