<svg width="80" height="80" viewBox="0 0 80 80" fill="none" xmlns="http://www.w3.org/2000/svg">
<g clip-path="url(#clip0)">
<path d="M3.79344 53.3029C3.77588 53.444 3.79508 53.5904 3.86939 53.7138C3.94707 53.8427 4.07556 53.9289 4.2314 53.9483L18.3943 55.7105C18.5501 55.7298 18.6958 55.6778 18.8027 55.5718C18.905 55.4704 18.9595 55.3332 18.9771 55.1921C18.9946 55.051 18.9754 54.9046 18.9011 54.7812C18.8234 54.6523 18.6949 54.5661 18.5391 54.5467L4.3762 52.7845C4.22036 52.7651 4.07466 52.8172 3.96775 52.9232C3.86548 53.0246 3.81099 53.1618 3.79344 53.3029Z" fill="#17C86B" stroke="#17C86B" stroke-width="0.5"/>
<path d="M11.8539 61.6487C11.8945 61.7881 11.9734 61.9159 12.0952 61.9985C12.2215 62.0842 12.375 62.1078 12.5251 62.0641L19.742 59.9638C19.8921 59.9201 20.009 59.8178 20.0696 59.6778C20.128 59.5427 20.1261 59.3925 20.0855 59.2531C20.0449 59.1138 19.966 58.986 19.8442 58.9034C19.7179 58.8176 19.5644 58.7941 19.4143 58.8377L12.1974 60.9381C12.0473 60.9817 11.9304 61.084 11.8698 61.2241C11.8114 61.3592 11.8134 61.5094 11.8539 61.6487Z" fill="#17C86B" stroke="#17C86B" stroke-width="0.5"/>
<path d="M13.3113 46.1577C13.2374 46.2794 13.195 46.4209 13.2125 46.564C13.2307 46.7136 13.3128 46.8448 13.447 46.9263L20.4682 51.1927C20.6023 51.2742 20.7566 51.2867 20.8977 51.234C21.0328 51.1835 21.1389 51.0807 21.2128 50.959C21.2867 50.8374 21.3291 50.6958 21.3117 50.5527C21.2934 50.4032 21.2113 50.272 21.0772 50.1905L14.056 45.924C13.9218 45.8425 13.7676 45.8301 13.6264 45.8828C13.4914 45.9332 13.3852 46.0361 13.3113 46.1577Z" fill="#17C86B" stroke="#17C86B" stroke-width="0.5"/>
<path d="M40.8169 31.8806C41.8327 31.5569 42.7299 30.9397 43.3954 30.1067C44.0609 29.2738 44.4649 28.2624 44.5564 27.2002C44.6478 26.138 44.4227 25.0724 43.9094 24.138C43.396 23.2036 42.6175 22.442 41.6719 21.9495C40.7264 21.4569 39.6562 21.2554 38.5962 21.3703C37.5363 21.4852 36.5341 21.9114 35.716 22.5952C34.898 23.2789 34.3008 24.1896 33.9996 25.2123C33.6985 26.235 33.7069 27.3241 34.0239 28.342C34.2355 29.0217 34.5795 29.6529 35.0361 30.1991C35.4926 30.7453 36.0527 31.1958 36.6841 31.5247C37.3155 31.8536 38.0057 32.0544 38.7149 32.1154C39.4242 32.1765 40.1386 32.0967 40.8169 31.8806Z" fill="#00023B"/>
<path d="M70.6105 59.0528L60.9247 50.5293C60.6448 50.2874 60.3201 50.1031 59.969 49.9868L52.1429 47.404L48.0619 34.7995C49.2135 34.3906 50.3392 33.9119 51.4326 33.366C54.4677 32.0525 57.034 29.8509 58.7938 27.0508C59.39 25.9869 59.7676 24.8145 59.9044 23.6027C60.0578 22.2549 59.9213 20.8899 59.5041 19.5992C59.4232 19.3173 59.287 19.0544 59.1034 18.8258C58.9198 18.5971 58.6926 18.4073 58.4349 18.2675C58.1772 18.1276 57.8942 18.0404 57.6024 18.0111C57.3107 17.9817 57.016 18.0108 56.7356 18.0965C56.4552 18.1823 56.1947 18.323 55.9692 18.5105C55.7438 18.698 55.558 18.9286 55.4226 19.1886C55.2872 19.4487 55.2049 19.7332 55.1806 20.0254C55.1563 20.3176 55.1905 20.6117 55.2811 20.8906C55.5044 21.5461 55.5876 22.2411 55.5253 22.9308C55.463 23.6204 55.2566 24.2893 54.9195 24.8941C53.6026 26.8929 51.731 28.4638 49.5341 29.4142C48.3512 30.0091 47.1252 30.5142 45.8665 30.9251H45.7502L37.7174 33.508C37.5754 33.508 37.4204 33.508 37.2654 33.5855C35.6297 34.0752 34.0395 34.7061 32.5129 35.471C29.4706 36.7982 26.9035 39.0186 25.1517 41.8378C24.5592 42.908 24.1819 44.0838 24.041 45.2989C23.9169 46.6427 24.0752 47.9976 24.506 49.2766C24.5901 49.5551 24.7284 49.8143 24.9131 50.0392C25.0977 50.2642 25.3249 50.4504 25.5818 50.5872C25.8386 50.724 26.1199 50.8087 26.4096 50.8365C26.6992 50.8642 26.9915 50.8344 27.2697 50.7488C27.8226 50.5705 28.2837 50.1827 28.554 49.6685C28.8244 49.1543 28.8826 48.5546 28.7161 47.998C28.4901 47.3409 28.4054 46.6433 28.4677 45.9512C28.5301 45.259 28.7379 44.5879 29.0777 43.9816C30.3953 41.9866 32.2671 40.4201 34.463 39.4745C35.2031 39.1003 35.9617 38.7641 36.7359 38.4672L41.0623 51.8982V52.0144C41.1681 52.3502 41.3393 52.6619 41.5659 52.9313L48.7593 61.3128L52.4012 73.1037C52.6231 73.777 53.1011 74.336 53.7318 74.6598C54.3625 74.9836 55.0953 75.0463 55.7718 74.8342C56.4446 74.6148 57.0042 74.14 57.3303 73.5119C57.6564 72.8839 57.7228 72.153 57.5153 71.4765L53.6409 59.1432C53.5346 58.7905 53.3541 58.4647 53.1114 58.1875L47.5582 51.5882L57.7736 54.8943L67.0461 63.0433C67.3146 63.2849 67.6284 63.4707 67.9693 63.5899C68.3102 63.7091 68.6714 63.7593 69.0319 63.7377C69.3924 63.7161 69.745 63.623 70.0692 63.4639C70.3934 63.3048 70.6828 63.0828 70.9205 62.8109C71.3664 62.2666 71.5833 61.5704 71.5255 60.8691C71.4677 60.1679 71.1396 59.5166 70.6105 59.0528Z" fill="#00023B"/>
<path d="M87 78H11V83H87V78Z" fill="#00023B"/>
</g>
<defs>
<clipPath id="clip0">
<rect width="80" height="80" fill="white"/>
</clipPath>
</defs>
</svg>
