<svg width="80" height="80" viewBox="0 0 80 80" fill="none" xmlns="http://www.w3.org/2000/svg">
<g clip-path="url(#clip0)">
<path d="M30.8511 36L17 41L24.1489 61L38 55.5455L30.8511 36Z" fill="#17C86B"/>
<path d="M95.5146 74.7775H87.3789V60.9985L89.6203 62.5909L91.0929 60.5134L75.4837 49.426L68.5084 54.3816L61.5313 49.4248L45.9244 60.5134L47.3959 62.5905L49.6372 60.9981V74.7775H41.6941V76.71H95.5146V74.7775ZM86.1077 74.7775H81.0242V65.3883H73.4264V60.9981L75.6678 62.5905L77.1396 60.5134L70.2477 55.6173L75.4845 51.7755L86.1077 59.5681V74.7775ZM65.7998 74.7775H57.2623V66.6611H65.7998V74.7775ZM73.4264 74.7775V66.6611H79.7518L79.7534 74.7775H73.4264ZM50.9084 59.5684L61.5313 51.7759L72.1541 59.5684V74.7779H67.0717V65.3887H55.9916V74.7779H50.908V59.5684H50.9084Z" fill="#00023B"/>
<path d="M28.0469 66.331H29.8356V101.221C29.8356 103.86 31.9723 105.999 34.6065 105.999C37.2415 105.999 39.3783 103.86 39.3783 101.221V63.3437V58.0155C38.8129 58.1782 38.2252 58.3216 37.6151 58.4344L37.3395 57.6978C39.8718 57.251 42.0993 56.2519 43.871 55.3131C44.0856 55.1975 44.2909 55.0831 44.4911 54.9691C46.4851 53.8363 47.7625 52.8167 47.8524 52.7471C47.859 52.7421 47.864 52.7363 47.8705 52.7313C47.9253 52.6864 47.9778 52.6385 48.0295 52.5902C48.0538 52.567 48.0797 52.5454 48.1032 52.5218C48.1461 52.4789 48.1862 52.4333 48.2263 52.3877C48.2545 52.356 48.2846 52.325 48.3116 52.2922C48.3421 52.2547 48.3695 52.2153 48.3985 52.1766C48.4301 52.1341 48.4633 52.092 48.4926 52.0479C48.5158 52.0139 48.5351 51.9776 48.5563 51.9424C48.5868 51.8926 48.6184 51.8435 48.6458 51.7925C48.6701 51.7472 48.6898 51.7005 48.7118 51.6541C48.7319 51.612 48.7539 51.5702 48.7716 51.5273C48.8044 51.45 48.8318 51.3708 48.8585 51.2904C48.8627 51.278 48.8677 51.266 48.872 51.2529C48.9302 51.0662 48.9708 50.873 48.9927 50.6751C48.9927 50.6751 48.9927 50.6747 48.9927 50.6743C49.0016 50.5947 49.0055 50.5143 49.0082 50.4335C49.009 50.4123 49.0113 50.3918 49.0113 50.3705C49.012 50.3098 49.0086 50.2488 49.0055 50.1873C49.0036 50.1448 49.0028 50.1015 48.9993 50.059C48.9951 50.0134 48.9877 49.9674 48.9816 49.9214C48.9735 49.8634 48.9665 49.8055 48.9553 49.7475C48.9534 49.7374 48.953 49.727 48.9507 49.717C48.9183 49.584 48.2244 46.0893 46.5083 42.3607C45.6392 40.4951 44.5239 38.5503 42.9197 36.9061C41.3487 35.2809 39.0587 33.891 36.2868 33.898C36.159 33.898 36.034 33.908 35.9097 33.9231H33.8818C32.2351 35.3203 30.1065 36.1656 27.7837 36.1656C25.4486 36.1656 23.3099 35.3114 21.6586 33.9015C21.5748 33.8999 21.4911 33.8987 21.4066 33.9042C20.8794 33.9208 18.3039 34.2779 15.6388 36.8582C12.9664 39.4292 10.3442 43.9956 8.98771 51.9695C8.94333 52.2246 8.92018 52.4897 8.92018 52.7564C8.91864 53.391 9.05756 54.0059 9.2729 54.5339C9.28023 54.5524 9.28525 54.571 9.29296 54.5895V54.5888C9.73946 55.6335 10.4071 56.3334 11.0708 56.8904C11.9233 57.5861 12.8406 58.0982 13.7977 58.5357C14.1616 58.7019 14.5305 58.8584 14.9048 59.0088C18.9395 60.5841 23.6514 61.3131 23.7587 61.3397C23.925 61.3668 24.0902 61.3799 24.2534 61.3799C25.7419 61.3799 27.0528 60.2989 27.2975 58.7792C27.5687 57.0937 26.4238 55.5063 24.7412 55.235C24.7404 55.235 24.6073 55.2133 24.3314 55.1631C23.3685 54.9919 20.8393 54.4906 18.5632 53.7516C17.7073 53.4768 16.8876 53.1622 16.2366 52.8542C16.0263 52.7544 15.8325 52.6555 15.662 52.5589C15.481 52.458 15.3285 52.3606 15.2062 52.2756C15.542 50.4869 15.9379 48.9602 16.3663 47.6604L18.305 52.8499C18.4679 52.9063 18.6311 52.9624 18.7994 53.0169C19.0996 53.1143 19.4037 53.207 19.7074 53.2955L17.2318 46.669L30.1717 41.8196L36.9305 59.9112L23.991 64.7598L22.9529 61.9817C21.7987 61.7711 20.2126 61.4445 18.5042 60.9845V63.3449V101.222C18.5042 103.861 20.6409 106 23.2751 106C25.3139 106 27.0493 104.718 27.7328 102.916C27.933 102.389 28.0469 101.819 28.0469 101.222V66.331ZM42.4042 49.0178C42.2008 49.1461 41.9831 49.2794 41.7504 49.4159C41.4479 49.5937 41.1226 49.7761 40.7791 49.9558C39.0692 50.8703 36.9123 51.658 35.1132 51.7376L34.8307 50.9808C36.0753 50.9781 37.7189 50.5367 39.3787 49.7811V42.2757C40.3473 43.6319 41.2221 45.5022 41.7994 47.1552C42.041 47.8289 42.2425 48.4651 42.4042 49.0178ZM18.5042 44.9526L17.2172 45.4349C17.6432 44.4745 18.0801 43.688 18.5042 43.0464V44.9526ZM32.7411 43.3424H37.3719V45.1462H32.7411V43.3424ZM27.4742 37.0862H28.941H30.4071L31.1403 39.9849L31.0288 40.1612C30.945 40.2311 30.859 40.2961 30.7702 40.3564L29.342 40.8917C29.2085 40.9083 29.0749 40.9195 28.9403 40.9195C28.1962 40.9187 27.4568 40.6663 26.8533 40.1623L26.741 39.9849L27.4742 37.0862Z" fill="#00023B"/>
<path d="M27.7835 35.3924C32.5789 35.3924 36.4664 31.499 36.4664 26.6962C36.4664 21.8934 32.5789 18 27.7835 18C22.9881 18 19.1006 21.8934 19.1006 26.6962C19.1006 31.499 22.9881 35.3924 27.7835 35.3924Z" fill="#00023B"/>
</g>
<defs>
<clipPath id="clip0">
<rect width="80" height="80" fill="white"/>
</clipPath>
</defs>
</svg>
