<svg width="80" height="80" viewBox="0 0 80 80" fill="none" xmlns="http://www.w3.org/2000/svg">
<g clip-path="url(#clip0)">
<g clip-path="url(#clip1)">
<path d="M62.7879 16.2771L59.4831 17.1597C59.4793 17.161 59.4767 17.1585 59.4728 17.1597L52.1346 19.1303C52.132 19.1316 52.1269 19.129 52.1243 19.1303L48.8298 20.0129L49.5996 22.8661C49.6047 22.8943 49.6124 22.929 49.6201 22.9585L50.7285 27.0535V28.8907C50.7285 28.8919 50.7285 28.8996 50.7285 28.9009V31.1075H53.202C53.2033 31.1075 53.211 31.1075 53.2123 31.1075H62.6955C62.6968 31.1075 62.7045 31.1075 62.7058 31.1075H65.1792V28.9009C65.1792 28.8996 65.1792 28.8919 65.1792 28.8907V22.5685H64.4813L62.7879 16.2771ZM59.8423 17.755C60.2734 17.7178 60.5287 17.9949 60.8481 18.4016C60.9957 18.5902 61.1227 18.757 61.2894 18.8532C61.4819 18.9648 61.7385 18.9866 62.0284 19.0174C62.5198 19.0687 62.8726 19.1213 62.9418 19.3766L63.7937 22.5685H61.7616C61.7577 22.5685 61.7551 22.5685 61.7513 22.5685H59.5652C59.578 22.2478 59.5408 21.9155 59.4523 21.5832C59.0302 20.0065 57.5498 19.0418 56.1475 19.4177C54.8582 19.7628 54.0872 21.1252 54.3002 22.5685H54.1565C54.1526 22.5685 54.1501 22.5685 54.1462 22.5685H50.7285V24.539L50.2462 22.7532C50.2077 22.5108 50.4784 22.2939 50.862 22.0143C51.098 21.8424 51.2943 21.6948 51.4059 21.5011C51.5021 21.3343 51.5368 21.1316 51.5701 20.8956C51.6535 20.3118 51.7549 19.9154 52.3091 19.7666L59.6473 17.7961C59.7166 17.7768 59.7807 17.7601 59.8423 17.755ZM61.5563 20.3721C61.1034 20.3721 60.7352 20.7403 60.7352 21.1932C60.7352 21.6461 61.1034 22.0143 61.5563 22.0143C62.0092 22.0143 62.3774 21.6461 62.3774 21.1932C62.3774 20.7403 62.0092 20.3721 61.5563 20.3721ZM54.1565 23.2253H61.7513C62.3248 23.2253 62.5249 23.5858 62.7571 24.1285C62.8507 24.3479 62.929 24.5365 63.065 24.6725C63.2228 24.8303 63.4601 24.9175 63.7321 25.0214C64.194 25.1984 64.5224 25.3409 64.5224 25.6064V28.8907C64.5224 29.01 64.3056 29.1075 64.04 29.2088C63.8488 29.2819 63.6615 29.3512 63.5371 29.4757C63.4293 29.5834 63.3678 29.731 63.301 29.8862C63.1381 30.2698 63.0227 30.4507 62.6955 30.4507H53.2123C52.8851 30.4507 52.7709 30.2685 52.6067 29.8862C52.54 29.731 52.4784 29.5834 52.3707 29.4757C52.2462 29.3512 52.0589 29.2819 51.8678 29.2088C51.6022 29.1075 51.3854 29.01 51.3854 28.8907V27.0022H51.3957L51.3854 26.9612V25.6064C51.3854 25.3409 51.7138 25.1984 52.1757 25.0214C52.4476 24.9175 52.685 24.829 52.8428 24.6725C52.9788 24.5365 53.057 24.3492 53.1507 24.1285C53.3829 23.5858 53.583 23.2253 54.1565 23.2253ZM57.9539 23.8822C56.5029 23.8822 55.3265 25.2061 55.3265 26.838C55.3265 28.4699 56.5029 29.7938 57.9539 29.7938C59.4049 29.7938 60.5813 28.4699 60.5813 26.838C60.5813 25.2061 59.4049 23.8822 57.9539 23.8822ZM53.1917 26.1812C52.7389 26.1812 52.3707 26.5494 52.3707 27.0022C52.3707 27.4551 52.7389 27.8233 53.1917 27.8233C53.6446 27.8233 54.0128 27.4551 54.0128 27.0022C54.0128 26.5494 53.6446 26.1812 53.1917 26.1812ZM62.716 26.1812C62.2632 26.1812 61.895 26.5494 61.895 27.0022C61.895 27.4551 62.2632 27.8233 62.716 27.8233C63.1689 27.8233 63.5371 27.4551 63.5371 27.0022C63.5371 26.5494 63.1689 26.1812 62.716 26.1812Z" fill="#17C86B"/>
</g>
<path d="M56.6636 64.0538L51.0808 50.6266C50.7274 49.4959 50.3034 48.7892 48.7487 48.2239C47.3353 47.7292 43.5192 46.5278 42.7418 46.3158L38.0777 52.9587L37.8657 49.9199C38.5017 49.9199 38.9964 49.4252 38.9964 48.7892V47.9412C38.9964 47.3052 38.5017 46.8105 37.8657 46.8105H35.6749C35.0389 46.8105 34.5442 47.3052 34.5442 47.9412V48.7892C34.5442 49.4252 35.0389 49.9199 35.6749 49.9199L35.4629 52.9587L30.8694 46.3865C29.9507 46.6692 25.7813 47.9412 24.7919 48.2945C23.7319 48.7185 22.8838 49.5666 22.4598 50.6973L16.877 64.1244C16.5236 64.9018 16.3116 65.6791 16.2409 66.5272L14.8275 82.9224C14.7569 83.5584 15.2515 84.1238 15.8876 84.1944L19.0677 84.4064C19.7037 84.4771 20.2691 84.0531 20.3398 83.4171L22.6011 67.0925L25.2159 61.7923C25.3572 69.9899 23.9439 80.9436 23.9439 81.8623C24.0145 83.5584 24.7212 84.3358 25.9933 84.5478C29.4561 85.0425 33.0601 85.3251 36.7349 85.3251C37.795 85.3251 38.855 85.3251 39.915 85.2545L41.4698 85.1838C43.3778 85.0425 45.2859 84.9011 47.1233 84.6184C48.3953 84.4064 49.102 83.629 49.2434 81.933C49.314 81.0143 48.1127 70.2726 48.3247 62.1457L50.7981 67.0925L53.0595 83.4171C53.1302 84.0531 53.6955 84.4771 54.3315 84.4064L57.5117 84.1944C58.1477 84.1238 58.6424 83.5584 58.5717 82.9224L57.1583 66.5272C57.229 65.6085 57.017 64.8311 56.6636 64.0538ZM44.8619 56.7748H40.0564V55.2201H44.8619V56.7748Z" fill="#00023B"/>
<path d="M36.8057 45.5385C42.1527 45.5385 46.4874 41.2039 46.4874 35.8568C46.4874 30.5098 42.1527 26.1752 36.8057 26.1752C31.4587 26.1752 27.124 30.5098 27.124 35.8568C27.124 41.2039 31.4587 45.5385 36.8057 45.5385Z" fill="#00023B"/>
</g>
<defs>
<clipPath id="clip0">
<rect width="80" height="80" fill="white"/>
</clipPath>
<clipPath id="clip1">
<rect width="16.4212" height="16.4212" fill="white" transform="translate(48.7581 16)"/>
</clipPath>
</defs>
</svg>
