<svg width="80" height="80" viewBox="0 0 80 80" fill="none" xmlns="http://www.w3.org/2000/svg">
<path d="M64.7229 48.652H52.9183C52.8921 48.6372 52.8652 48.6228 52.8368 48.6091L41.9236 43.3307C42.8294 42.618 43.4116 41.5161 43.4116 40.2815C43.4116 38.4662 42.1532 36.9377 40.4578 36.5121V25.1078C43.042 24.6559 45.0117 22.4089 45.0117 19.7131C45.0117 18.3487 44.507 17.0993 43.6736 16.1393H46.0542C46.5869 16.1393 47.1286 15.8103 47.3715 15.3393L49.7806 10.6685C49.9716 10.2981 49.9619 9.87566 49.7545 9.53846C49.5472 9.20129 49.1734 9 48.7545 9H30.2455C29.8267 9 29.4528 9.20129 29.2455 9.53843C29.0381 9.87559 29.0284 10.298 29.2194 10.6685L31.6285 15.3393C31.8714 15.8103 32.4131 16.1393 32.9458 16.1393H35.3264C34.493 17.0993 33.9883 18.3487 33.9883 19.7131C33.9883 22.4089 35.958 24.6559 38.5421 25.1078V37.3459C38.5421 37.8716 38.971 38.2978 39.5 38.2978C40.6006 38.2978 41.496 39.1877 41.496 40.2815C41.496 41.3753 40.6006 42.2652 39.5 42.2652C38.3994 42.2652 37.504 41.3753 37.504 40.2815C37.504 39.7557 37.0751 39.3295 36.5461 39.3295C36.0171 39.3295 35.5883 39.7557 35.5883 40.2815C35.5883 41.5161 36.1705 42.618 37.0763 43.3307L26.163 48.6091C26.1347 48.6228 26.1078 48.6372 26.0817 48.652H14.2771C13.5729 48.652 13 49.2236 13 49.9261V70.7259C13 71.4284 13.5729 72 14.2771 72H64.7229C65.4271 72 66 71.4284 66 70.7259V49.9261C66 49.2236 65.4271 48.652 64.7229 48.652ZM31.4935 10.9038H47.5065L45.7881 14.2355H33.2119L31.4935 10.9038ZM35.904 19.7131C35.904 17.7425 37.5171 16.1393 39.5 16.1393C41.4829 16.1393 43.096 17.7425 43.096 19.7131C43.096 21.6837 41.4829 23.2869 39.5 23.2869C37.5171 23.2869 35.904 21.6837 35.904 19.7131ZM26.4096 50.5558H26.6145H30.1133V70.0962H26.4096V50.5558ZM24.494 70.0962H20.7904V50.5558H24.494V70.0962ZM32.0289 50.5558H35.7325V70.0962H32.0289V50.5558ZM37.6482 50.5558H41.3518V70.0962H37.6482V50.5558ZM43.2675 50.5558H46.9711V70.0962H43.2675V50.5558ZM48.8867 50.5558H52.3855H52.5904V70.0962H48.8867V50.5558ZM54.506 50.5558H58.2096V70.0962H54.506V50.5558ZM39.5 44.2757L48.5479 48.652H30.4521L39.5 44.2757ZM14.9157 50.5558H18.8747V70.0962H14.9157V50.5558ZM64.0843 70.0962H60.1253V50.5558H64.0843V70.0962Z" fill="#00023B"/>
<path d="M45.5 29H41L39.5 31L35.5 30" stroke="white" stroke-width="3"/>
<path d="M17.7934 29.3027C17.7759 29.4438 17.7951 29.5902 17.8694 29.7135C17.9471 29.8425 18.0756 29.9287 18.2314 29.9481L32.3943 31.7102C32.5501 31.7296 32.6958 31.6775 32.8027 31.5715C32.905 31.4701 32.9595 31.3329 32.9771 31.1918C32.9946 31.0507 32.9754 30.9043 32.9011 30.781C32.8234 30.652 32.6949 30.5658 32.5391 30.5464L18.3762 28.7843C18.2204 28.7649 18.0747 28.817 17.9678 28.923C17.8655 29.0244 17.811 29.1616 17.7934 29.3027Z" fill="#17C86B" stroke="#17C86B" stroke-width="0.5"/>
<path d="M25.8539 37.6487C25.8945 37.7881 25.9734 37.9159 26.0952 37.9985C26.2215 38.0842 26.375 38.1078 26.5251 38.0641L33.742 35.9638C33.8921 35.9201 34.009 35.8178 34.0696 35.6778C34.128 35.5427 34.1261 35.3925 34.0855 35.2531C34.0449 35.1138 33.966 34.986 33.8442 34.9034C33.7179 34.8176 33.5644 34.7941 33.4143 34.8377L26.1974 36.9381C26.0473 36.9817 25.9304 37.084 25.8698 37.2241C25.8114 37.3592 25.8134 37.5094 25.8539 37.6487Z" fill="#17C86B" stroke="#17C86B" stroke-width="0.5"/>
<path d="M27.3113 22.1575C27.2374 22.2791 27.195 22.4207 27.2125 22.5638C27.2307 22.7133 27.3128 22.8445 27.447 22.926L34.4682 27.1925C34.6023 27.274 34.7566 27.2864 34.8977 27.2337C35.0328 27.1833 35.1389 27.0804 35.2128 26.9588C35.2867 26.8371 35.3291 26.6956 35.3117 26.5525C35.2934 26.4029 35.2113 26.2718 35.0772 26.1902L28.056 21.9238C27.9218 21.8423 27.7676 21.8298 27.6264 21.8825C27.4914 21.933 27.3852 22.0358 27.3113 22.1575Z" fill="#17C86B" stroke="#17C86B" stroke-width="0.5"/>
</svg>
