<svg width="80" height="80" viewBox="0 0 80 80" fill="none" xmlns="http://www.w3.org/2000/svg">
<path d="M72.6667 28.3983C72.0478 28.3983 71.4543 28.6441 71.0168 29.0817C70.5792 29.5193 70.3333 30.1128 70.3333 30.7316V37.7316H68V33.065C68 32.4461 67.7542 31.8526 67.3166 31.4151C66.879 30.9775 66.2855 30.7316 65.6667 30.7316H32.6267L15.1733 23.895C14.8204 23.7588 14.4396 23.7104 14.0638 23.7541C13.688 23.7978 13.3285 23.9322 13.0162 24.1458C12.704 24.3593 12.4483 24.6456 12.2712 24.98C12.0942 25.3143 12.0011 25.6867 12 26.065V33.065C12.0014 33.535 12.1447 33.9937 12.4112 34.3809C12.6776 34.7681 13.0548 35.0658 13.4933 35.235L19.84 37.7316H9.66667V30.7316C9.66667 30.1128 9.42083 29.5193 8.98325 29.0817C8.54566 28.6441 7.95217 28.3983 7.33333 28.3983C6.71449 28.3983 6.121 28.6441 5.68342 29.0817C5.24583 29.5193 5 30.1128 5 30.7316V40.065C5 40.6838 5.24583 41.2773 5.68342 41.7149C6.121 42.1525 6.71449 42.3983 7.33333 42.3983H18.5567L33.56 48.2316L18.16 54.2283C17.9654 54.309 17.7844 54.4192 17.6233 54.555L17.39 54.7183C17.2831 54.8404 17.1893 54.9734 17.11 55.115L16.8767 55.4416C16.8852 55.5504 16.8852 55.6596 16.8767 55.7683C16.777 55.9672 16.7063 56.1794 16.6667 56.3983V61.065C16.6554 61.197 16.6554 61.3297 16.6667 61.4616C15.0981 61.9976 13.7706 63.0728 12.9205 64.4959C12.0704 65.919 11.753 67.5976 12.0246 69.2328C12.2963 70.868 13.1394 72.3538 14.404 73.4256C15.6685 74.4974 17.2724 75.0856 18.93 75.0856C20.5876 75.0856 22.1915 74.4974 23.456 73.4256C24.7206 72.3538 25.5637 70.868 25.8354 69.2328C26.107 67.5976 25.7896 65.919 24.9395 64.4959C24.0894 63.0728 22.7619 61.9976 21.1933 61.4616C21.2518 61.3339 21.2987 61.2011 21.3333 61.065V58.7316H58.6667V61.065C58.6554 61.197 58.6554 61.3297 58.6667 61.4616C57.0981 61.9976 55.7706 63.0728 54.9205 64.4959C54.0704 65.919 53.753 67.5976 54.0246 69.2328C54.2963 70.868 55.1394 72.3538 56.404 73.4256C57.6685 74.4974 59.2724 75.0856 60.93 75.0856C62.5876 75.0856 64.1915 74.4974 65.456 73.4256C66.7206 72.3538 67.5637 70.868 67.8354 69.2328C68.107 67.5976 67.7896 65.919 66.9395 64.4959C66.0894 63.0728 64.7619 61.9976 63.1933 61.4616C63.2519 61.3339 63.2987 61.2011 63.3333 61.065V56.3983C63.3193 56.2073 63.2801 56.019 63.2167 55.8383C63.2276 55.7219 63.2276 55.6047 63.2167 55.4883C63.1542 55.3895 63.084 55.2959 63.0067 55.2083C62.9332 55.0434 62.8304 54.8932 62.7033 54.765L62.4933 54.625C62.3306 54.4738 62.1405 54.355 61.9333 54.275L46.5333 48.2783L61.4433 42.3983H72.6667C73.2855 42.3983 73.879 42.1525 74.3166 41.7149C74.7542 41.2773 75 40.6838 75 40.065V30.7316C75 30.1128 74.7542 29.5193 74.3166 29.0817C73.879 28.6441 73.2855 28.3983 72.6667 28.3983ZM19 70.3983C18.5385 70.3983 18.0874 70.2615 17.7037 70.0051C17.32 69.7487 17.0209 69.3843 16.8443 68.9579C16.6677 68.5315 16.6215 68.0624 16.7115 67.6098C16.8015 67.1571 17.0238 66.7414 17.3501 66.4151C17.6764 66.0887 18.0922 65.8665 18.5448 65.7765C18.9974 65.6864 19.4666 65.7327 19.8929 65.9093C20.3193 66.0859 20.6837 66.3849 20.9401 66.7686C21.1965 67.1524 21.3333 67.6035 21.3333 68.065C21.3333 68.6838 21.0875 69.2773 20.6499 69.7149C20.2123 70.1525 19.6188 70.3983 19 70.3983ZM61 70.3983C60.5385 70.3983 60.0874 70.2615 59.7037 70.0051C59.32 69.7487 59.0209 69.3843 58.8443 68.9579C58.6677 68.5315 58.6215 68.0624 58.7115 67.6098C58.8015 67.1571 59.0238 66.7414 59.3501 66.4151C59.6764 66.0887 60.0922 65.8665 60.5448 65.7765C60.9974 65.6864 61.4666 65.7327 61.8929 65.9093C62.3193 66.0859 62.6837 66.3849 62.9401 66.7686C63.1965 67.1524 63.3333 67.6035 63.3333 68.065C63.3333 68.6838 63.0875 69.2773 62.6499 69.7149C62.2123 70.1525 61.6188 70.3983 61 70.3983ZM48.5633 54.065H31.4367L40 50.7283L48.5633 54.065ZM40 45.735L31.4367 42.3983H48.5633L40 45.735Z" fill="#00023B"/>
<path d="M50.5079 38C16.0094 37.5007 21.8307 38.1336 16 36.5C9.65887 34.7235 11.1505 31.4458 11.1505 25.5203C11.1505 23.5236 13.7419 22.8581 14.5517 23.0245L30.2576 29.1298C31.7593 29.7135 33.3516 30.0114 34.9627 30.0203C46.1495 30.0816 64.6123 30.5122 66.0565 30.5122C67.6113 30.5122 68.0001 31.8434 68.0001 32.509V38H50.5079Z" fill="#17C86B"/>
</svg>
