<svg width="80" height="80" viewBox="0 0 80 80" fill="none" xmlns="http://www.w3.org/2000/svg">
<path d="M73.9988 40.728L69.9504 37.9942L64.2253 28.1656L50.1745 28.1789L24.2977 17.1124C23.7732 16.8885 23.166 17.0051 22.7622 17.4089L19.9712 20.1999L19.9691 20.202C19.9415 20.2296 19.916 20.2583 19.8914 20.2878C19.8852 20.295 19.8791 20.3021 19.8729 20.3093C19.8483 20.339 19.8259 20.3696 19.8045 20.4013C19.8004 20.4074 19.7953 20.4146 19.7911 20.4217C19.7737 20.4483 19.7563 20.4759 19.741 20.5035C19.7359 20.5126 19.7308 20.5219 19.7257 20.5311C19.7093 20.5628 19.694 20.5944 19.6796 20.6272C19.6735 20.6395 19.6684 20.6518 19.6643 20.6639C19.651 20.6956 19.6388 20.7283 19.6286 20.76C19.6256 20.7712 19.6225 20.7825 19.6194 20.7937C19.6103 20.8234 19.602 20.8541 19.5959 20.8847C19.5929 20.8949 19.5908 20.9061 19.5887 20.9174C19.5806 20.9542 19.5753 20.993 19.5713 21.0309C19.5702 21.04 19.5692 21.0493 19.5683 21.0595C19.5642 21.1003 19.5621 21.1413 19.5621 21.1832V21.1872V29.5611C19.5621 30.332 20.1867 30.9576 20.9576 30.9576C21.7284 30.9576 22.3531 30.332 22.3531 29.5611V23.3862L36.6646 30.1213L43.2902 43.8378V47.7062H30.4999H20.9555H11.1874H8.39549C7.62459 47.7062 7 48.3318 7 49.1027C7 49.8736 7.62459 50.4992 8.39549 50.4992H9.79189V56.116C9.79189 56.8869 10.4165 57.5124 11.1874 57.5124H15.5128C16.159 60.6979 18.9754 63.0942 22.3511 63.0942C25.7514 63.0942 28.5821 60.661 29.2027 57.4428H48.87H51.663H54.5828C55.2003 60.661 58.032 63.0942 61.4322 63.0942C64.8325 63.0942 67.6644 60.661 68.2839 57.4428H73.97L73.9988 40.728ZM66.6871 37.9359H57.2491V30.9637L62.6224 30.9586L66.6871 37.9359ZM54.4561 30.9669V37.9359H51.6753L51.6794 30.9689L54.4561 30.9669ZM40.6772 32.0096L43.2904 33.2385V37.4198L40.6772 32.0096ZM45.2797 31.0906L23.3489 20.7693L24.0687 20.0506L48.8701 30.6571V47.7063H46.0812V32.3531C46.0812 31.8122 45.7704 31.3205 45.2797 31.0906ZM22.3511 60.3034C20.0428 60.3034 18.1638 58.4244 18.1638 56.116C18.1638 53.8075 20.0428 51.9285 22.3511 51.9285C24.6605 51.9285 26.5386 53.8075 26.5386 56.116C26.5385 58.4244 24.6605 60.3034 22.3511 60.3034ZM61.4323 60.3034C59.124 60.3034 57.2451 58.4244 57.2451 56.116C57.2451 53.8075 59.124 51.9285 61.4323 51.9285C63.7428 51.9285 65.6198 53.8075 65.6198 56.116C65.6198 58.4244 63.7428 60.3034 61.4323 60.3034Z" fill="#00023B"/>
<path d="M61.4324 54.7195C60.6616 54.7195 60.0381 55.3451 60.0381 56.116C60.0381 56.8869 60.6618 57.5124 61.4324 57.5124C62.2033 57.5124 62.8289 56.8869 62.8289 56.116C62.8289 55.3451 62.2032 54.7195 61.4324 54.7195Z" fill="black"/>
<path d="M22.3511 54.7195C21.5803 54.7195 20.9556 55.3451 20.9556 56.116C20.9556 56.8869 21.5802 57.5124 22.3511 57.5124C23.1219 57.5124 23.7465 56.8869 23.7465 56.116C23.7465 55.3451 23.1219 54.7195 22.3511 54.7195Z" fill="black"/>
<path d="M13.9919 39.36C13.9878 39.5421 13.9878 41.1666 15.1573 42.3617C15.6746 42.8892 16.6162 43.519 18.1661 43.519C19.7037 43.519 20.642 42.8893 21.1584 42.3617C22.3095 41.188 22.3432 39.5871 22.3413 39.3233V33.7485C22.3413 32.9776 21.7167 32.353 20.9458 32.353C20.1749 32.353 19.5503 32.9776 19.5503 33.7485L19.5492 39.3314C19.5492 39.3498 19.5492 39.3426 19.5492 39.3539C19.5471 39.4847 19.5053 39.8589 19.3387 40.1677C19.1894 40.4447 18.9328 40.7279 18.1662 40.7279C17.3891 40.7279 17.1295 40.4386 16.9895 40.186C16.8229 39.8844 16.784 39.5175 16.783 39.4009V39.4193H16.7787C16.7808 39.3907 16.7827 39.3611 16.7827 39.3314C16.7827 38.5605 16.1581 37.9359 15.3872 37.9359C14.6165 37.9359 13.9918 38.5605 13.9918 39.3314C13.9918 39.3416 13.9928 39.3507 13.9928 39.36H13.9919Z" fill="#17C86B"/>
</svg>
