<svg width="80" height="80" viewBox="0 0 80 80" fill="none" xmlns="http://www.w3.org/2000/svg">
<g clip-path="url(#clip0)">
<path d="M49 47L48 30.5L57 29L77.5 31.5L78.5 48.5V58L49 57.5V47Z" fill="#17C86B"/>
<path d="M49.5001 55.5L51.5001 59.5L48.0001 56.5C47.8334 53.8333 47.8001 48.6 49.0001 49C50.2001 49.4 51.1667 50.8333 51.5001 51.5V53.5L49.5001 55.5Z" fill="white"/>
<path d="M63.6208 54.2625H64.8941V43.2806L63.6208 44.0307V54.2625Z" fill="#00023B"/>
<path d="M57.2524 54.2624H58.5257V47.0327L57.2524 47.7828V54.2624Z" fill="#00023B"/>
<path d="M47.6378 48.7265C47.7322 48.7187 47.8272 48.7156 47.921 48.7156C48.5133 48.7156 49.0739 48.8744 49.5639 49.1488L52.1567 47.6213V37.7038C52.1567 36.9997 52.7265 36.4303 53.4306 36.4303H55.9781C56.6822 36.4303 57.252 36.9997 57.252 37.7038V44.6193L58.5252 43.8692V32.6089C58.5252 31.9048 59.095 31.3353 59.7991 31.3353H62.3465C63.0506 31.3353 63.6204 31.9052 63.6204 32.6089V40.8667L66.3049 39.2851L66.8928 38.9385L67.2383 39.5264L67.6654 40.2509H68.7153C69.4194 40.2509 69.9892 40.8207 69.9892 41.5248V54.2621H71.2625V35.1564C71.2625 34.4523 71.8323 33.8825 72.5364 33.8825H75.0838C75.7879 33.8825 76.3577 34.4523 76.3577 35.1564V54.2624H76.994C77.6981 54.2624 78.2679 54.8319 78.2679 55.536C78.2679 56.2401 77.6981 56.8096 76.994 56.8096H75.0838H72.5364H68.715H66.1676H62.3462H59.7987H55.9774H53.4299H51.5191C50.8157 56.8096 50.2459 56.2397 50.2459 55.536C50.2459 54.8319 50.8157 54.2624 51.5191 54.2624H52.156V50.7853L51.2274 51.3323C51.2676 51.4986 51.2989 51.6683 51.3132 51.8435C51.4673 53.7158 50.07 55.3649 48.1973 55.5207C47.6013 55.5691 47.0165 55.5936 46.4579 55.5936H46.4341C46.1243 55.5936 45.8176 55.5827 45.5122 55.5677V84.1585H59.4937L54.8885 98.472H58.8271L63.432 84.1585H65.0801L69.6849 98.472H73.6235L69.0187 84.1585H82.9998V23.1559H45.5122V48.7392C45.8227 48.7627 46.1379 48.776 46.4596 48.7766C46.8413 48.7766 47.2373 48.7596 47.6378 48.7265ZM50.9854 74.7866V71.7194H68.366V74.7866H50.9854ZM75.182 69.3338H50.9854V66.2667H75.182V69.3338Z" fill="#00023B"/>
<path d="M33.9433 94.429V57.6438C33.9433 57.4417 33.9242 57.2447 33.8966 57.0501V49.7128C35.0543 50.8555 36.4465 51.9566 38.1143 52.8542C39.3644 53.5287 40.7756 54.0743 42.3211 54.4359C43.3278 54.6714 44.3921 54.8268 45.5134 54.8823C45.818 54.8973 46.123 54.9116 46.4355 54.9116C46.443 54.9116 46.4509 54.9116 46.4587 54.9116C47.0084 54.9116 47.5697 54.8874 48.1419 54.8411C49.6421 54.7167 50.7579 53.3998 50.6345 51.8993C50.6287 51.8308 50.6181 51.7644 50.6076 51.6976C50.5704 51.4604 50.503 51.2348 50.4099 51.0235C50.2198 50.592 49.9222 50.2233 49.5532 49.9459C49.3415 49.7867 49.1067 49.6582 48.8552 49.5659C48.4946 49.4333 48.1014 49.3726 47.6934 49.4064C47.2654 49.4411 46.8544 49.4578 46.4584 49.4578C46.1336 49.4572 45.8197 49.4435 45.513 49.4221C44.4709 49.3491 43.5292 49.1614 42.6674 48.886C41.9612 48.66 41.3072 48.3779 40.6965 48.051C38.345 46.7935 36.6257 44.8162 35.5198 43.1166C34.9674 42.2721 34.5717 41.5064 34.3199 40.9696C34.1952 40.7018 34.1059 40.4901 34.0517 40.3555C34.0244 40.2884 34.0057 40.2393 33.9954 40.2127C33.9907 40.1991 33.9876 40.1906 33.9869 40.1878L33.9866 40.1882C33.8445 39.7884 33.6168 39.4449 33.334 39.1658C32.8517 38.5517 32.1047 38.156 31.2629 38.156H18.0963C17.8788 38.156 17.6689 38.1853 17.4668 38.2347C17.2068 38.2409 16.9433 38.2835 16.683 38.3683C16.486 38.4395 14.0009 39.2472 11.3764 41.4365C10.0684 42.5335 8.72401 43.9942 7.69991 45.9003C6.67411 47.8019 5.99593 50.1517 6.00002 52.8505C6.00343 57.0433 7.57893 61.9603 11.4378 67.7743C11.9626 68.565 12.8289 68.9933 13.7119 68.9933C14.2299 68.9933 14.7537 68.8461 15.2175 68.5384C15.3038 68.4808 15.3845 68.4188 15.4626 68.3537V94.429C15.4626 96.756 17.3496 98.6423 19.6765 98.6423C22.0028 98.6423 23.8898 96.756 23.8898 94.429V66.7315H25.5157V94.429C25.5157 96.756 27.4027 98.6423 29.7297 98.6423C32.0563 98.6423 33.9433 96.756 33.9433 94.429ZM11.4531 52.8508C11.4565 51.0429 11.8788 49.6538 12.5041 48.4808C13.2621 47.0607 14.3795 45.9616 15.4626 45.1611V57.6434V63.9564C12.4097 59.1354 11.4497 55.4913 11.4531 52.8508ZM24.6798 63.0965L23.8901 62.099L21.4422 59.007L22.0948 54.1966L23.3847 44.6935L22.7372 43.6711L23.3847 41.1151H24.6798H25.9748L26.6223 43.6711L25.9748 44.6935L27.2688 54.2283L27.9173 59.007L25.5161 62.0401L24.6798 63.0965Z" fill="#00023B"/>
<path d="M26.4174 35.671C30.5408 34.7107 33.1051 30.5896 32.1448 26.4662C31.1846 22.3427 27.0634 19.7785 22.94 20.7387C18.8166 21.699 16.2523 25.8201 17.2126 29.9436C18.1728 34.067 22.294 36.6312 26.4174 35.671Z" fill="#00023B"/>
<path d="M50.9981 50.6772L52.1568 49.9942L57.2521 46.9921L58.5253 46.242L63.6205 43.2399L64.8938 42.4899L67.3434 41.0466L66.8745 40.2508L66.6516 39.8722L65.9761 40.2702L65.164 40.7487L63.6209 41.658L58.5256 44.66L57.2524 45.4101L52.1572 48.4122L50.1741 49.5805C50.5169 49.8855 50.7988 50.2576 50.9981 50.6772Z" fill="#00023B"/>
</g>
<defs>
<clipPath id="clip0">
<rect width="80" height="80" fill="white"/>
</clipPath>
</defs>
</svg>
