<svg width="80" height="80" viewBox="0 0 80 80" fill="none" xmlns="http://www.w3.org/2000/svg">
<g clip-path="url(#clip0)">
<path fill-rule="evenodd" clip-rule="evenodd" d="M76.0457 50.2544V69.7817H57.2843V51.8414H46.7309V59.8524H42.2475V49.6334L59.1466 35.0742L59.7674 35.6262C76.0457 50.2544 59.7674 35.6262 76.0457 50.2544ZM33.3496 47.3563L55.008 28.7261L59.3535 25C56.8736 29.1401 61.7677 27.07 59.3535 32.4521L37.6951 51.0824L33.3496 47.3563ZM59.3535 25L84.3196 47.3563L79.9741 51.0824L59.3535 32.4521C61.7677 27.07 56.8736 29.1401 59.3535 25ZM71.4933 63.4336H66.2511V58.1895H71.4933V63.4336ZM59.9053 63.4336H65.1475L65.2165 58.1895H59.9053V63.4336ZM71.4933 51.8414H66.2511V57.1545H71.4933V51.8414ZM59.9053 51.8414H65.1475L65.2165 57.1545H59.9053V51.8414Z" fill="#17C86B"/>
<path d="M15.9806 62.3452C13.6817 62.3452 11.8164 64.2074 11.8164 66.5118C11.8164 68.8138 13.6786 70.676 15.9806 70.676C18.2838 70.676 20.1472 68.8083 20.1472 66.5118C20.1472 64.2074 18.2826 62.3452 15.9806 62.3452ZM15.9708 68.7784C15.0431 68.7784 14.2491 68.2287 13.8802 67.4408C13.7409 67.1434 13.6572 66.8154 13.6579 66.4654C13.6579 65.1871 14.6913 64.1512 15.9708 64.1512C17.2491 64.1512 18.2838 65.1859 18.2838 66.4654C18.2838 67.7425 17.2498 68.7784 15.9708 68.7784Z" fill="#00023B"/>
<path d="M57.6169 62.803L58.0407 61.0599L56.093 60.0069L56.228 58.5839L54.9955 58.5912L53.416 56.4688L49.2635 57.4081C49.2635 57.4081 40.3738 52.2167 38.1714 51.7452C35.9684 51.2736 25.393 49.7339 20.4751 51.5289C18.1897 52.3651 13.5473 55.5246 11.9745 55.9179C10.4031 56.3112 5.99762 55.7615 5.36731 56.3112C4.73822 56.8609 4.73822 60.3997 4.73822 60.793C4.73822 61.1833 4.38581 61.54 4.10914 61.8154C3.83491 62.0878 4.10914 64.5693 4.57943 65.1178C5.05216 65.6687 10.637 66.5329 10.8727 66.5329C11.1097 66.5329 11.1891 61.8154 15.793 61.8521C20.3927 61.8918 20.9448 66.5329 20.9448 66.5329V67.7142H46.1168V66.7699C46.1168 66.7699 46.2652 62.1672 50.5271 61.7049L50.7476 62.2026C48.5977 62.3657 46.9022 64.1577 46.9022 66.3534C46.9022 68.6553 48.7657 70.5176 51.0664 70.5176C53.3672 70.5176 55.2318 68.6499 55.2318 66.3534C55.2318 65.9039 55.1592 65.4721 55.0278 65.0671L55.6191 64.868C56.0325 65.9313 56.1064 66.8512 56.1064 66.8512H59.0302V63.892L57.6169 62.803ZM20.7866 57.4088C20.7866 57.4088 20.5521 54.6561 21.2606 53.6324C21.966 52.613 23.5381 52.3742 24.2491 52.3742C24.9563 52.3742 29.264 52.3742 29.264 52.3742L29.8149 57.4081H20.7866V57.4088ZM43.5547 57.4088H31.6399L30.8654 52.3761C31.7303 52.3748 36.0893 52.6106 37.819 53.0833C39.5481 53.5573 43.5547 55.8373 43.5547 55.8373V57.4088ZM53.3702 66.3082C53.3702 67.5853 52.3344 68.6211 51.0573 68.6211C49.7814 68.6211 48.7443 67.5853 48.7443 66.3082V66.3076V66.307C48.7443 65.0299 49.7796 63.994 51.0573 63.994C51.8048 63.994 52.4626 64.3544 52.8853 64.9047C53.1852 65.2949 53.3702 65.7768 53.3702 66.307V66.3076V66.3082Z" fill="#00023B"/>
<path d="M46.9 67.675L43.3398 71.4839L38.2418 66.7188L41.8019 62.9099L46.9 67.675Z" fill="#17C86B"/>
<path d="M48.9896 60.2664L47.3869 57.4906L48.5328 54.7372L51.8455 55.3188L51.8792 59.0004L48.9896 60.2664Z" fill="#17C86B"/>
<path d="M65.625 67.4092L62.1447 63.3952L66.0769 59.7825L61.033 58.0439L62.6538 52.9461L57.3957 53.958L56.2694 48.7425L52.3485 52.123L53.0717 52.9287L55.6426 50.7345L56.6279 55.2208L61.0996 54.3712L59.7236 58.7265L64.0643 60.2382L61.4608 62.6074L60.6551 63.3306L61.7628 64.6446L63.6151 66.8216L59.1287 67.8069L59.9603 72.3179L57.5152 71.4363C57.2225 71.3498 56.9184 71.4955 56.8319 71.7883C56.7454 72.081 56.8912 72.3851 57.1839 72.4716L61.4214 73.7936L60.4095 68.5355L65.625 67.4092Z" fill="#00023B"/>
</g>
<defs>
<clipPath id="clip0">
<rect width="80" height="80" fill="white"/>
</clipPath>
</defs>
</svg>
