<svg width="80" height="80" viewBox="0 0 80 80" fill="none" xmlns="http://www.w3.org/2000/svg">
<path d="M29.9202 4.0665H29.92C28.7946 4.07675 27.7186 4.53015 26.9252 5.32842L8.00497 24.2474C7.22846 24.988 6.77713 26.0061 6.74985 27.0788C6.72257 28.1515 7.12156 29.1913 7.85943 29.9704L30.3259 52.4353V49.2592L9.44758 28.3823C9.13002 28.0249 8.96704 27.5562 8.99431 27.0788C9.02159 26.6015 9.23691 26.1544 9.59312 25.8355L14.2569 21.172L30.3259 37.24V34.0642L15.8449 19.5841L22.2617 13.1678L30.3259 21.2315V19.7874C30.3277 19.2667 30.3902 18.748 30.5119 18.2417L23.8497 11.5799L28.5134 6.91648C28.884 6.53714 29.3897 6.31994 29.92 6.31235C30.1309 6.30946 30.3404 6.34852 30.5362 6.42725C30.7319 6.50599 30.9101 6.62283 31.0604 6.771L37.3396 13.0499H40.516L32.6485 5.18294C32.2902 4.82571 31.8645 4.5431 31.3962 4.35147C30.9278 4.15983 30.4262 4.06297 29.9202 4.0665Z" fill="#00023B"/>
<path d="M48.2125 47.4421C46.7445 44.8052 46.0479 40.9187 46.0479 37.1927C46.0479 33.4668 46.7445 29.5802 48.2125 26.9434C46.2309 27.8254 44.5475 29.263 43.3661 31.0821C42.1847 32.9012 41.5559 35.0237 41.5559 37.1927C41.5559 39.3618 42.1847 41.4843 43.3661 43.3034C44.5475 45.1224 46.2309 46.56 48.2125 47.4421Z" fill="#17C86B"/>
<path d="M52.7859 48.4218C55.2668 48.4218 57.2779 43.3943 57.2779 37.1926C57.2779 30.9909 55.2668 25.9634 52.7859 25.9634C50.3051 25.9634 48.2939 30.9909 48.2939 37.1926C48.2939 43.3943 50.3051 48.4218 52.7859 48.4218Z" fill="#17C86B"/>
<path d="M64.0159 37.1927C64.0153 35.0239 63.3862 32.9016 62.2049 31.0827C61.0236 29.2637 59.3405 27.826 57.3594 26.9434C58.8273 29.5802 59.5239 33.4668 59.5239 37.1927C59.5239 40.9187 58.8273 44.8052 57.3594 47.4421C59.3405 46.5595 61.0236 45.1217 62.2049 43.3028C63.3862 41.4839 64.0153 39.3616 64.0159 37.1927Z" fill="#17C86B"/>
<path d="M32.5718 19.7876V71.442C32.5732 72.6329 33.0469 73.7747 33.889 74.6167C34.7311 75.4588 35.8729 75.9324 37.0638 75.9337H68.5077C69.6986 75.9324 70.8404 75.4588 71.6825 74.6167C72.5246 73.7747 72.9984 72.6329 72.9997 71.442V19.7876C72.9984 18.5967 72.5246 17.455 71.6825 16.6129C70.8404 15.7708 69.6986 15.2972 68.5077 15.2959H37.0638C35.8729 15.2972 34.7311 15.7708 33.889 16.6129C33.0469 17.455 32.5732 18.5967 32.5718 19.7876ZM52.7858 23.7178C55.4508 23.718 58.056 24.5085 60.2719 25.9892C62.4877 27.47 64.2147 29.5746 65.2344 32.0368C66.2542 34.4991 66.5209 37.2085 66.0009 39.8223C65.4808 42.4362 64.1974 44.8371 62.3128 46.7215C60.4283 48.606 58.0272 49.8893 55.4133 50.4091C52.7995 50.929 50.0901 50.6621 47.6279 49.6422C45.1657 48.6222 43.0613 46.8951 41.5807 44.6791C40.1 42.4632 39.3098 39.858 39.3098 37.1929C39.3139 33.6202 40.7351 30.195 43.2614 27.6688C45.7878 25.1427 49.2131 23.7217 52.7858 23.7178ZM62.8927 58.5284C62.8927 58.8263 62.7744 59.1119 62.5638 59.3225C62.3532 59.533 62.0676 59.6513 61.7698 59.6514H43.8018C43.5039 59.6514 43.2183 59.533 43.0077 59.3225C42.7971 59.1119 42.6788 58.8262 42.6788 58.5284C42.6788 58.2306 42.7971 57.945 43.0077 57.7344C43.2183 57.5238 43.5039 57.4055 43.8018 57.4055H61.7698C62.0676 57.4055 62.3532 57.5238 62.5638 57.7344C62.7744 57.945 62.8927 58.2306 62.8927 58.5284ZM40.152 63.0201H65.4195C65.7173 63.0201 66.0029 63.1384 66.2135 63.349C66.4241 63.5596 66.5424 63.8452 66.5424 64.143C66.5424 64.4409 66.4241 64.7265 66.2135 64.9371C66.0029 65.1477 65.7173 65.266 65.4195 65.266H40.152C39.8542 65.266 39.5686 65.1477 39.358 64.9371C39.1474 64.7265 39.0291 64.4409 39.0291 64.143C39.0291 63.8452 39.1474 63.5596 39.358 63.349C39.5686 63.1384 39.8542 63.0201 40.152 63.0201Z" fill="#17C86B"/>
</svg>
