<svg width="80" height="80" viewBox="0 0 80 80" fill="none" xmlns="http://www.w3.org/2000/svg">
<g clip-path="url(#clip0)">
<path d="M77.2276 48.4895L72.8965 52.058L71.5097 50.4506L83.5418 40.5393L82.332 32.8304L68.644 37.262L55.4783 32.6712L51.3633 35.7847L34.1552 25.1787L30.8596 34.6085C30.8596 34.6085 32.3854 35.7083 34.4636 37.2056L33.0768 41.1735L37.6951 39.5342C37.6968 39.5348 37.6977 39.5357 37.6999 39.5365L37.6876 45.5805L42.0353 42.6602C42.0521 42.6716 42.0689 42.6848 42.0856 42.6962L42.6889 46.5292L46.0603 45.9441L48.1454 53.6603L40.3289 50.9285L39.2844 53.9171L35.8801 53.8611L33.1479 49.1849L31.5384 53.7902L27.8688 53.7291L29.2996 59.0206L44.4801 62.2297L54.2465 78.5214L75.5984 85.9836L85.0971 58.9554L77.2276 48.4895ZM55.5395 41.4373C54.5293 41.0843 53.9896 40.0017 54.3332 39.0186C54.6766 38.036 55.7723 37.5257 56.7831 37.8789C57.7927 38.2317 58.332 39.3135 57.9886 40.2961C57.645 41.2792 56.5496 41.7903 55.5395 41.4373ZM71.5445 46.4495L70.2361 47.1548L67.5279 42.4387L73.5596 39.9699L74.1594 41.3335L69.6644 43.1719L71.5445 46.4495Z" fill="#00023B"/>
<path d="M12.0312 35.2711C11.9677 35.3992 11.9374 35.5444 11.967 35.6859C11.9979 35.8339 12.0911 35.9581 12.2324 36.0281L25.1189 42.4127C25.2602 42.4827 25.4155 42.4816 25.5519 42.4165C25.6824 42.3543 25.7796 42.2423 25.8431 42.1142C25.9065 41.9861 25.9368 41.8409 25.9072 41.6993C25.8763 41.5514 25.7831 41.4272 25.6419 41.3572L12.7553 34.9726C12.614 34.9026 12.4587 34.9037 12.3223 34.9687C12.1918 35.031 12.0946 35.143 12.0312 35.2711Z" fill="#17C86B" stroke="#17C86B" stroke-width="0.5"/>
<path d="M16.9245 45.8886C16.9168 46.0343 16.9493 46.1816 17.0374 46.3003C17.1287 46.4233 17.2664 46.4965 17.4231 46.5048L24.9864 46.9061C25.1431 46.9144 25.2877 46.8562 25.3915 46.7436C25.4917 46.6349 25.5396 46.4918 25.5474 46.3461C25.5551 46.2004 25.5225 46.0531 25.4345 45.9344C25.3432 45.8114 25.2055 45.7382 25.0488 45.7299L17.4855 45.3286C17.3288 45.3203 17.1841 45.3785 17.0803 45.4911C16.9802 45.5998 16.9322 45.7429 16.9245 45.8886Z" fill="#17C86B" stroke="#17C86B" stroke-width="0.5"/>
<path d="M23.4602 31.6387C23.3497 31.7297 23.2626 31.8499 23.2317 31.9913C23.1995 32.139 23.2338 32.2905 23.334 32.4122L28.5945 38.8048C28.6947 38.9265 28.8367 38.9894 28.9879 38.9862C29.1326 38.9831 29.2673 38.9208 29.3778 38.8298C29.4884 38.7389 29.5754 38.6187 29.6063 38.4772C29.6386 38.3295 29.6042 38.178 29.5041 38.0563L24.2435 31.6637C24.1434 31.542 24.0014 31.4792 23.8502 31.4824C23.7054 31.4854 23.5707 31.5478 23.4602 31.6387Z" fill="#17C86B" stroke="#17C86B" stroke-width="0.5"/>
</g>
<defs>
<clipPath id="clip0">
<rect width="80" height="80" fill="white"/>
</clipPath>
</defs>
</svg>
