<svg width="80" height="80" viewBox="0 0 80 80" fill="none" xmlns="http://www.w3.org/2000/svg">
<g clip-path="url(#clip0)">
<g clip-path="url(#clip1)">
<path d="M44.9274 49.9524C40.841 49.9524 37.5242 53.2374 37.5242 57.3032C37.5242 61.3544 40.8386 64.6491 44.9274 64.6491C49.0162 64.6491 52.3282 61.3641 52.3282 57.3032C52.3282 53.2398 49.0138 49.9524 44.9274 49.9524ZM44.9444 61.3037C42.6748 61.3037 40.8337 59.4762 40.8337 57.2234C40.8337 54.9657 42.6748 53.1407 44.9444 53.1407C47.2141 53.1407 49.0552 54.9681 49.0552 57.2234C49.0552 59.4762 47.2117 61.3037 44.9444 61.3037Z" fill="#00023B"/>
<path d="M128.384 49.2974C127.893 48.8115 127.267 48.1831 127.267 47.4941C127.267 46.8004 127.267 40.5567 126.149 39.5874C125.029 38.6181 117.199 39.5874 114.406 38.8937C111.61 38.1999 103.36 32.6258 99.2975 31.1513C90.5573 27.9847 71.7619 30.7017 67.846 31.5332C63.9325 32.3648 50.2122 41.2142 48.1324 41.5236C35.1305 43.4671 27.021 47.2137 26.4634 48.461C25.9033 49.7132 25.482 50.4069 24.3642 50.8227C23.2464 51.2433 24.3642 53.878 24.2254 54.7071C24.0865 55.5435 25.2043 54.7071 25.2043 55.4057C25.2043 56.0995 25.2043 58.1807 25.2043 58.1807H35.9707C35.9707 58.1807 36.6672 49.0218 44.6402 49.0218C53.4486 49.0218 53.7238 58.0381 53.7238 58.0381V59.7035H98.4622V57.6199C98.4622 57.6199 99.4436 49.4328 107.619 49.3627C115.801 49.2974 115.943 57.6199 116.364 57.6199C116.783 57.6199 126.709 56.0946 127.549 55.1229C128.384 54.156 128.871 49.7784 128.384 49.2974ZM28.7014 50.3682C27.4424 51.0305 26.5997 51.2384 26.8822 50.2329C27.1647 49.2273 28.7014 48.4635 28.7014 48.4635H29.2591C30.6569 48.461 29.9556 49.7132 28.7014 50.3682ZM76.2233 46.6578C73.1305 46.7956 74.28 45.5483 74.9789 45.5483C75.6802 45.5483 78.0571 45.5483 78.0571 45.5483C79.1724 45.5483 79.3137 46.5224 76.2233 46.6578ZM79.4549 41.8016C79.5937 42.3576 62.6759 42.3576 62.6759 42.3576V38.7511C62.6759 38.7511 67.5708 34.7288 70.6441 33.8924C73.7174 33.0585 79.4549 32.6427 80.9916 32.6427C80.9891 32.6427 79.3137 41.248 79.4549 41.8016ZM98.7447 41.526C98.7447 41.526 83.7848 42.0796 83.7848 41.526C83.7848 40.9725 84.625 32.6452 84.625 32.6452C84.625 32.6452 91.3342 32.6452 92.5908 32.6452C93.8547 32.6452 96.6479 33.0633 97.9045 34.8642C99.1611 36.6674 98.7447 41.526 98.7447 41.526ZM126.29 46.3846C126.219 47.2863 124.052 47.7721 123.628 46.3846C123.207 44.9972 125.306 41.1103 125.306 41.1103C126.353 41.1078 126.353 45.4806 126.29 46.3846Z" fill="#00023B"/>
<path d="M48.5 41.8889L28.9062 29.8889" stroke="#00023B" stroke-width="2" stroke-linecap="round"/>
</g>
<path d="M5.33354 31.3732C5.20522 30.4138 3.92414 30.6782 3.52195 30.0028C1.95329 27.3651 12.9505 26.875 14.3219 27.0241C14.6728 27.0627 14.9199 27.3025 15.1917 27.4597C15.4399 28.7703 14.3556 28.7506 14.4664 29.9234C15.2683 31.1201 17.2623 30.1994 19.1059 30.0689C22.2978 29.8439 26.559 30.7337 26.6437 32.5327C26.7063 33.8331 25.2667 34.0683 25.0498 34.8533C27.1904 35.5153 30.4346 35.5638 31.3508 37.9464C31.5294 38.409 31.3596 38.9427 31.5266 39.3811C32.0205 40.6822 35.2668 40.2895 34.9796 42.3078C34.357 42.3117 33.7896 41.7457 33.2907 41.4173C32.5637 40.9374 31.8363 40.6541 31.0052 40.4927C30.3629 40.3672 29.1971 40.2006 29.2161 39.3375C28.0082 39.0249 26.9398 39.3044 25.7483 39.0942C25.2329 39.0035 24.2679 38.8921 24.785 38.242C25.0174 37.9495 25.5521 38.075 25.6295 37.6071C24.1579 37.3912 22.2956 37.1589 20.1212 37.3174C17.8417 37.4837 15.6877 38.5915 14.0319 38.4772C13.1051 38.4129 11.6261 37.9435 11.8575 36.4477C12.6717 35.7168 14.7023 36.2005 15.6265 35.5779C11.695 34.2226 6.26096 36.0261 2.00004 34.8533C2.06157 32.5232 5.60354 33.3877 5.33354 31.3732Z" fill="#17C86B"/>
</g>
<defs>
<clipPath id="clip0">
<rect width="80" height="80" fill="white"/>
</clipPath>
<clipPath id="clip1">
<rect width="114" height="48" fill="white" transform="translate(20 29)"/>
</clipPath>
</defs>
</svg>
