<svg width="80" height="80" viewBox="0 0 80 80" fill="none" xmlns="http://www.w3.org/2000/svg">
<g clip-path="url(#clip0)">
<path d="M31.8202 32.3374L12.9953 15.1533L4.62556 22.6497V19.1638H0.154187V26.6546L-6 32.1671L-3.09926 35.4044L0.154994 32.4916V34.1106H0.171943L0.175172 54.44L5.62879 54.4392V42.6797H10.7152V54.4376H25.6297L25.6281 32.5699L28.888 35.5473L31.8202 32.3374ZM10.7136 37.1599H5.91289V32.2083H10.7136V37.1599ZM20.1414 37.1599H15.3407V32.2083H20.1414V37.1599Z" fill="#00023B"/>
<path d="M23.0412 17.3858L21.2874 16.7781L24.6724 7L26.4262 7.60694L23.0412 17.3858Z" fill="#17C86B"/>
<path d="M28.8751 20.2864L27.6072 18.9313L37.3853 9.78516L38.6532 11.1411L28.8751 20.2864Z" fill="#17C86B"/>
<path d="M31.8549 25.4916L31.0986 23.7967L41.3618 19.2156L42.1181 20.9105L31.8549 25.4916Z" fill="#17C86B"/>
<path d="M69.9764 33.7967C72.3477 33.3213 73.8933 30.9863 73.4122 28.5868C72.9296 26.1824 70.6083 24.6279 68.2338 25.1033C65.8577 25.5795 64.3194 27.9056 64.8012 30.3108C65.2798 32.7087 67.5978 34.2721 69.9764 33.7967Z" fill="#00023B"/>
<path d="M44.316 30.0927C38.5097 31.9886 36.1448 35.9095 37.2917 39.4188C38.4378 42.9289 42.5315 44.2825 48.3386 42.3866C54.1449 40.4866 61.5186 33.8619 60.902 31.9749C60.22 29.8893 50.1223 28.192 44.316 30.0927Z" fill="#17C86B"/>
<path d="M72.305 38.4698C71.2388 37.9259 69.9304 38.3472 69.3848 39.4134L68.4841 41.1737L67.4865 35.7305C67.3986 35.2503 66.8142 34.5021 66.8142 34.5021C66.2 33.8435 65.426 33.511 64.5002 33.511C63.6197 33.511 62.8699 33.8435 62.2524 34.5021L52.664 44.0244C52.2677 44.4231 49.4848 46.8153 49.0296 49.5216L47.5123 58.5079L39.22 57.3521C37.8657 57.2036 36.4565 57.8251 36.2676 59.1285C35.898 61.6677 38.9747 62.0325 38.9747 62.0325C38.9747 62.0325 48.1523 63.5023 50.3904 63.5023C52.1467 63.3998 53.0498 61.8864 53.2371 61.039C53.8198 58.4005 55.0224 53.4586 55.0224 53.4586C55.0224 53.4586 58.978 57.4143 60.4744 59.4167L62.4566 70.2133C62.5075 70.4805 62.5842 70.7339 62.6818 70.9696H41.2063V72.717H64.9538V72.7041C65.1306 72.7089 65.3138 72.6944 65.5019 72.6581C67.1225 72.3506 67.5761 71.0285 67.3743 69.3643L65.8295 58.7339C65.7682 57.9857 65.5713 56.7331 65.0273 55.9607C65.0273 55.9607 61.3929 51.2649 60.108 49.6676L64.7674 44.9719L65.3679 48.2463C65.5357 49.1608 66.267 49.867 67.1871 50.0018C67.2936 50.0171 67.3994 50.0252 67.5035 50.0252C68.309 50.0252 69.0596 49.5756 69.4357 48.8428L73.2493 41.3908C73.7941 40.3238 73.3728 39.0163 72.305 38.4698Z" fill="#00023B"/>
</g>
<defs>
<clipPath id="clip0">
<rect width="80" height="80" fill="white"/>
</clipPath>
</defs>
</svg>
