<svg width="80" height="80" viewBox="0 0 80 80" fill="none" xmlns="http://www.w3.org/2000/svg">
<g clip-path="url(#clip0)">
<path d="M46.6135 55.9938L45.3227 54.2727L47.2589 53.2687L49.3386 52.2647L50.3426 50.4002L48.98 47.1015L52.9959 43.6593L59.0915 38.496C59.7369 37.9223 60.7408 37.9223 61.3863 38.496L70.8523 47.1015L63.4659 33.3327C63.0356 32.4721 63.3225 31.3965 64.2547 30.8945C65.1153 30.4642 66.191 30.8228 66.693 31.6833L76.8044 51.2608C77.2347 52.1213 76.9478 53.197 76.0156 53.699C75.7287 53.8424 75.4419 53.9141 75.2267 53.9141C74.8682 53.9141 74.5096 53.7707 74.2228 53.6273V68.902C74.2228 69.906 73.4339 70.6948 72.4299 70.6948H48.0478C47.0438 70.6948 46.255 69.906 46.255 68.902V64.2407V63.5953L49.3386 59.5794L46.6135 55.9938ZM50.486 53.7707L56.4381 56.926L59.5934 50.9739L53.6413 47.8186L50.486 53.7707ZM60.956 52.3365L57.5855 58.5754C57.4421 58.7906 57.2987 58.934 57.0835 59.0057C57.0118 59.0057 56.9401 59.0774 56.7967 59.0774C56.6532 59.0774 56.5098 59.0774 56.3664 59.0057L55.7927 58.7188V61.0853C55.7927 61.1571 55.8644 61.3005 56.0078 61.3005H64.5416C64.6133 61.3005 64.7567 61.2288 64.7567 61.0853V52.5516C64.7567 52.4799 64.685 52.3365 64.5416 52.3365H60.956Z" fill="#00023B"/>
<path d="M64.8294 29.1014L44.8934 37.2766C44.6783 37.3483 44.4631 37.42 44.248 37.42C43.5309 37.42 42.8854 36.9897 42.5986 36.2726C42.24 35.3403 42.6703 34.3364 43.6026 33.9061L63.4669 25.8026C64.3991 25.444 65.4031 25.8743 65.8334 26.8066C66.1202 27.6671 65.69 28.7428 64.8294 29.1014Z" fill="#00023B"/>
<path d="M59.8782 33.9776C60.1651 34.3362 60.1651 34.9099 59.7348 35.2684L48.1891 44.7345C48.0457 44.8779 47.8305 44.9496 47.6154 44.9496C47.3286 44.9496 47.1134 44.8062 46.8983 44.591C46.6114 44.2325 46.6114 43.6588 47.0417 43.3002L58.6591 33.9059C59.0177 33.5473 59.5914 33.6191 59.8782 33.9776Z" fill="#00023B"/>
<path d="M35.7366 53.7826L34.8156 60.043L41.5894 61.4946L40.4953 54.3636L35.7366 53.7826Z" fill="#00023B"/>
<path d="M31.2143 70.4909L28.8817 66.4508L30.5495 62.4431L35.3711 63.2896L35.4202 68.6482L31.2143 70.4909Z" fill="#00023B"/>
<path d="M45.847 70.1362L42.6641 73.5415L38.1061 69.2812L41.2891 65.8759L45.847 70.1362Z" fill="#00023B"/>
<path d="M13.9783 55.0798L35.441 46.093C37.4498 47.4674 40.3574 49.4234 42.3662 50.745C44.9037 52.3837 46.701 52.0666 47.494 50.7978C48.3398 49.5291 47.864 47.8375 45.3266 46.1987C43.3177 44.8771 40.3574 42.9211 38.2957 41.6524L37.7142 26.5333C37.7142 26.5333 36.3926 29.0179 33.115 27.432C32.5864 28.4364 31.3176 28.6479 31.3176 28.6479L29.3088 36.1545L18.366 29.8637L18.0488 22.6743L15.9343 21.2998L13.6611 28.8593L7.6875 33.9343L9.80205 35.3087L16.5158 32.6655L26.7714 40.0136L10.4364 52.7538L13.5025 54.7098" fill="#17C86B"/>
<path d="M24.813 15.9604C25.1302 16.3834 25.2359 16.5948 25.5531 17.282C25.9232 18.075 26.0289 18.2865 26.1346 18.9208C26.2932 19.5552 26.3461 20.2424 26.2403 20.7711C26.1875 21.0354 26.1346 21.2468 26.0818 21.2468C25.976 21.2468 25.7646 21.0354 25.5531 20.7711C25.4474 20.6653 25.3417 20.5067 25.3417 20.5067C25.3417 20.4539 25.2359 21.4054 25.2888 21.9869C25.3417 22.9385 25.5002 23.6786 25.8703 24.4715C26.0818 24.9473 26.2403 25.1588 26.5575 25.5288C27.3505 26.4275 28.4606 27.0619 29.6765 27.2733C30.0994 27.379 30.6809 27.3262 30.8924 27.2204C30.9981 27.1676 30.9452 27.1147 30.7866 27.009C30.4694 26.7447 30.0994 26.3218 29.8879 25.9517C29.6765 25.5817 29.3593 24.9473 29.2536 24.4715C29.095 23.89 29.095 23.2557 29.1479 22.6213C29.1479 22.4098 29.3064 21.7226 29.3593 21.564C29.3593 21.5112 29.4122 21.564 29.5708 21.6169C30.5223 21.9869 31.3681 22.9385 31.7382 23.9958C32.0025 24.683 32.1611 25.4231 32.1611 26.216C32.1611 26.4275 32.1611 26.6389 32.1611 26.6389C32.214 26.6389 32.5311 26.216 32.6897 26.0046C32.7426 25.8989 32.8483 25.7931 32.8483 25.7931C32.8483 25.7931 32.9012 25.7931 32.9541 25.8989C33.5356 26.4275 34.3814 26.7975 35.4387 26.7975C35.5972 26.7975 35.703 26.7975 35.703 26.7975C35.703 26.7447 35.5972 26.6918 35.4915 26.5861C35.2272 26.3746 34.91 26.0574 34.6986 25.7931C34.4871 25.4759 34.2228 24.8416 34.1171 24.5773C34.0113 24.1015 34.0642 23.5728 34.1171 23.2557L34.1699 23.0971L34.3285 23.1499C34.54 23.2028 34.91 23.52 35.1743 23.6786C35.9673 24.2601 36.4431 25.053 36.5488 26.0574C36.6017 26.2689 36.6017 26.4275 36.6017 26.4275C36.6545 26.4275 36.866 26.2689 37.0246 26.0574C37.1832 25.7931 37.3418 25.5288 37.5003 25.2116C37.7647 24.5244 37.7647 23.8372 37.6061 23.0971C37.5003 22.7799 37.236 22.1984 37.0774 21.9341C36.7074 21.3526 36.1787 20.8768 35.5444 20.5067L35.3858 20.4539V20.5596C35.3858 20.6125 35.3858 20.7182 35.4387 20.7711C35.4915 20.9825 35.4915 21.1411 35.4387 21.194C35.3858 21.2468 35.1743 21.0882 34.9629 20.9297C34.54 20.7182 34.1699 20.2424 33.8527 19.7666C33.6941 19.5023 33.2712 18.7094 33.1655 18.3393C33.1655 18.1807 33.0598 18.0221 33.0598 18.0221C33.0598 18.0221 32.9541 18.1807 32.8483 18.4451C32.6897 18.868 32.4783 19.5023 32.3725 19.9252L32.3197 20.0838L32.1611 19.9252C32.0554 19.8724 31.8968 19.7138 31.7382 19.5552C30.2051 18.1807 27.8263 16.912 24.813 15.9604H24.6016H24.813Z" fill="#00023B"/>
<path d="M2.76953 13.1586L14.3996 21.934L14.7696 20.7181L2.98099 13L2.76953 13.1586Z" fill="#17C86B"/>
<path d="M-5 24.5244L6.63005 33.2998L7.68732 32.5069L-4.78854 24.4187L-5 24.5244Z" fill="#17C86B"/>
<path d="M2.13867 20.9295L11.9185 28.3304L12.4471 28.0661L12.6057 27.5374L2.35013 20.8237L2.13867 20.9295Z" fill="#17C86B"/>
<path d="M3.72266 38.2162L15.3527 46.9916L16.41 46.1986L3.93411 38.0576L3.72266 38.2162Z" fill="#17C86B"/>
</g>
<defs>
<clipPath id="clip0">
<rect width="80" height="80" fill="white" transform="matrix(-1 0 0 1 80 0)"/>
</clipPath>
</defs>
</svg>
