<svg width="59" height="59" fill="none" xmlns="http://www.w3.org/2000/svg"><g clip-path="url(#clip0_32:2922)"><path d="M29.05.358C13.033.345.04 13.318.027 29.336c-.013 16.017 12.96 29.009 28.978 29.022 16.015-.013 28.998-12.984 29.022-29 0-16.008-12.969-28.986-28.977-29zm-.045 53.175c-13.35 0-24.174-10.824-24.174-24.175 0-13.35 10.823-24.174 24.174-24.174 13.346.014 24.16 10.828 24.174 24.174 0 13.351-10.823 24.174-24.174 24.174z" fill="url(#paint0_linear_32:2922)"/><path d="M36.838 27.944a5.299 5.299 0 002.627-5.477c-.45-3.389-4.49-4.668-7.677-4.938v-5.095h-3.142v5.05h-2.11v-5.05h-3.143v5.05h-6.33v3.255h2.357c1.055 0 1.571.314 1.571 1.167V35.89c0 1.167-.583 1.526-1.212 1.526h-2.401v3.322h6.105v5.163h3.165v-5.163h2.11v5.163h3.075v-5.163h.673c6.465 0 8.62-3.164 8.62-7.474a5.588 5.588 0 00-4.288-5.32zm-10.302-7.003h2.244c1.571 0 4.669.27 4.669 2.828a3.166 3.166 0 01-2.761 3.345h-4.152V20.94zm3.479 16.161v-.022h-3.48v-6.734h4.04c.944 0 4.49.314 4.49 2.828s-1.683 3.928-5.05 3.928z" fill="url(#paint1_linear_32:2922)"/></g><defs><linearGradient id="paint0_linear_32:2922" x1="31.927" y1="-8.771" x2="35.2" y2="93.974" gradientUnits="userSpaceOnUse"><stop stop-color="#FD749B"/><stop offset="1" stop-color="#281AC8"/></linearGradient><linearGradient id="paint1_linear_32:2922" x1="30.298" y1="7.166" x2="32.921" y2="66.396" gradientUnits="userSpaceOnUse"><stop stop-color="#FD749B"/><stop offset="1" stop-color="#281AC8"/></linearGradient><clipPath id="clip0_32:2922"><path fill="#fff" transform="translate(.027 .358)" d="M0 0h58v58H0z"/></clipPath></defs></svg>