<?xml version="1.0" encoding="UTF-8"?>
<!DOCTYPE svg PUBLIC "-//W3C//DTD SVG 1.1//EN" "http://www.w3.org/Graphics/SVG/1.1/DTD/svg11.dtd">
<svg xmlns="http://www.w3.org/2000/svg" version="1.1" width="1456px" height="765px" style="shape-rendering:geometricPrecision; text-rendering:geometricPrecision; image-rendering:optimizeQuality; fill-rule:evenodd; clip-rule:evenodd" xmlns:xlink="http://www.w3.org/1999/xlink">
<g><path style="opacity:0.993" fill="#fdfdfd" d="M 236.5,-0.5 C 269.833,-0.5 303.167,-0.5 336.5,-0.5C 415.594,180.947 494.594,362.447 573.5,544C 533.835,544.5 494.168,544.667 454.5,544.5C 399.286,412.533 343.286,280.866 286.5,149.5C 264.575,199.687 242.909,250.02 221.5,300.5C 173.41,324.295 125.244,347.961 77,371.5C 79.3743,363.391 82.3743,355.391 86,347.5C 136.454,231.595 186.621,115.595 236.5,-0.5 Z"/></g>
<g><path style="opacity:0.979" fill="#fdfdfd" d="M 934.5,-0.5 C 970.167,-0.5 1005.83,-0.5 1041.5,-0.5C 1041.5,35.1667 1041.5,70.8333 1041.5,106.5C 1005.83,106.5 970.167,106.5 934.5,106.5C 934.5,70.8333 934.5,35.1667 934.5,-0.5 Z"/></g>
<g><path style="opacity:0.987" fill="#fdfdfd" d="M 814.5,153.5 C 830.662,152.555 846.162,155.221 861,161.5C 861.667,196.833 861.667,232.167 861,267.5C 860.667,267.833 860.333,268.167 860,268.5C 834.852,258.636 809.352,257.469 783.5,265C 762.297,273.87 747.464,289.037 739,310.5C 734.806,321.471 732.139,332.804 731,344.5C 730.5,411.166 730.333,477.833 730.5,544.5C 694.833,544.5 659.167,544.5 623.5,544.5C 623.5,416.5 623.5,288.5 623.5,160.5C 659.167,160.5 694.833,160.5 730.5,160.5C 730.333,179.503 730.5,198.503 731,217.5C 747.668,181.584 775.501,160.251 814.5,153.5 Z"/></g>
<g><path style="opacity:0.992" fill="#fdfdfd" d="M 1455.5,276.5 C 1455.5,365.833 1455.5,455.167 1455.5,544.5C 1421.17,544.5 1386.83,544.5 1352.5,544.5C 1352.67,529.163 1352.5,513.83 1352,498.5C 1328.24,531.803 1295.74,549.637 1254.5,552C 1225.14,554.9 1196.81,550.9 1169.5,540C 1127.52,519.76 1106.86,486.094 1107.5,439C 1107.8,396.709 1126.14,365.043 1162.5,344C 1187.69,331.159 1214.36,323.159 1242.5,320C 1253.47,318.67 1264.47,317.67 1275.5,317C 1300.83,316.5 1326.16,316.333 1351.5,316.5C 1358.02,244.509 1326.35,217.342 1256.5,235C 1236.88,244.8 1225.55,260.633 1222.5,282.5C 1189.17,283.5 1155.84,283.833 1122.5,283.5C 1128.11,222.394 1160.11,182.561 1218.5,164C 1265.58,151.206 1312.91,150.206 1360.5,161C 1418.75,177.674 1450.41,216.174 1455.5,276.5 Z M 1287.5,378.5 C 1308.83,378.5 1330.17,378.5 1351.5,378.5C 1351.88,393.873 1351.38,409.206 1350,424.5C 1344.3,448.531 1329.8,464.698 1306.5,473C 1285.12,480.32 1263.45,481.32 1241.5,476C 1218.23,466.691 1208.4,449.524 1212,424.5C 1213.96,410.728 1220.79,400.228 1232.5,393C 1249.92,384.289 1268.25,379.456 1287.5,378.5 Z"/></g>
<g><path style="opacity:0.991" fill="#fdfdfd" d="M 934.5,160.5 C 970.167,160.5 1005.83,160.5 1041.5,160.5C 1041.5,288.5 1041.5,416.5 1041.5,544.5C 1005.83,544.5 970.167,544.5 934.5,544.5C 934.5,416.5 934.5,288.5 934.5,160.5 Z"/></g>
<g><path style="opacity:0.991" fill="#0aa660" d="M 284.5,279.5 C 304.388,289.027 324.222,298.694 344,308.5C 364.704,357.406 385.538,406.24 406.5,455C 366.275,435.89 325.942,416.723 285.5,397.5C 192.686,441.495 100.186,486.161 8,531.5C 7.67533,529.447 8.00867,527.447 9,525.5C 29.5049,478.491 50.0049,431.491 70.5,384.5C 141.925,349.453 213.258,314.453 284.5,279.5 Z"/></g>
<g><path style="opacity:0.977" fill="#fcfcfc" d="M 144.5,474.5 C 145.552,474.351 146.552,474.517 147.5,475C 137.5,498 127.5,521 117.5,544C 78.8333,544.667 40.1667,544.667 1.5,544C 49.258,520.786 96.9247,497.62 144.5,474.5 Z"/></g>
<g><path style="opacity:0.954" fill="#fcfcfc" d="M -0.5,716.5 C -0.5,714.833 -0.5,713.167 -0.5,711.5C 4.83333,711.5 10.1667,711.5 15.5,711.5C 16.056,717.225 19.056,721.058 24.5,723C 33.0988,726.21 40.2655,724.377 46,717.5C 47.5809,711.938 46.0809,707.438 41.5,704C 34.3197,700.94 26.9864,698.273 19.5,696C 2.26813,687.936 -2.5652,675.103 5,657.5C 15.743,646.243 28.5763,643.077 43.5,648C 54.4942,652.494 60.1609,660.66 60.5,672.5C 55.4889,672.666 50.4889,672.499 45.5,672C 40.4793,661.324 32.4793,658.324 21.5,663C 16.2682,668.299 16.2682,673.632 21.5,679C 31.5118,683.001 41.5118,687.001 51.5,691C 61.3147,698.436 64.8147,708.269 62,720.5C 56.5752,733.387 46.7418,739.72 32.5,739.5C 16.1496,739.103 5.14962,731.436 -0.5,716.5 Z"/></g>
<g><path style="opacity:0.953" fill="#fdfdfd" d="M 702.5,645.5 C 707.167,645.5 711.833,645.5 716.5,645.5C 716.333,657.838 716.5,670.171 717,682.5C 719.778,679.193 723.278,677.026 727.5,676C 743.834,672.404 754.001,678.57 758,694.5C 758.5,708.829 758.667,723.163 758.5,737.5C 753.833,737.5 749.167,737.5 744.5,737.5C 744.906,723.782 744.406,710.115 743,696.5C 741.3,691.134 737.634,688.467 732,688.5C 724.721,688.774 720.054,692.44 718,699.5C 716.58,712.106 716.08,724.772 716.5,737.5C 711.833,737.5 707.167,737.5 702.5,737.5C 702.5,706.833 702.5,676.167 702.5,645.5 Z"/></g>
<g><path style="opacity:0.955" fill="#fdfdfd" d="M 774.5,645.5 C 779.5,645.5 784.5,645.5 789.5,645.5C 789.333,662.837 789.5,680.17 790,697.5C 796.833,690.667 803.667,683.833 810.5,677C 816.833,676.333 823.167,676.333 829.5,677C 820.457,685.708 811.79,694.708 803.5,704C 813.791,715.292 824.458,726.292 835.5,737C 829.167,737.667 822.833,737.667 816.5,737C 807.667,728.167 798.833,719.333 790,710.5C 789.5,719.494 789.334,728.494 789.5,737.5C 784.5,737.5 779.5,737.5 774.5,737.5C 774.5,706.833 774.5,676.167 774.5,645.5 Z"/></g>
<g><path style="opacity:0.933" fill="#f7f7f7" d="M 847.5,645.5 C 856.732,646.628 859.899,651.628 857,660.5C 850.912,666.111 845.245,665.778 840,659.5C 838.101,652.291 840.601,647.624 847.5,645.5 Z"/></g>
<g><path style="opacity:0.952" fill="#fdfdfd" d="M 873.5,645.5 C 878.167,645.5 882.833,645.5 887.5,645.5C 887.5,676.167 887.5,706.833 887.5,737.5C 882.833,737.5 878.167,737.5 873.5,737.5C 873.5,706.833 873.5,676.167 873.5,645.5 Z"/></g>
<g><path style="opacity:0.93" fill="#fafafa" d="M 1031.5,645.5 C 1040.03,645.858 1043.53,650.191 1042,658.5C 1039.6,664.092 1035.43,665.925 1029.5,664C 1023.6,660.454 1022.26,655.62 1025.5,649.5C 1027.29,647.684 1029.29,646.351 1031.5,645.5 Z"/></g>
<g><path style="opacity:0.91" fill="#fafafa" d="M 231.5,656.5 C 233.179,658 234.512,659.833 235.5,662C 230.442,664.82 227.775,669.153 227.5,675C 229.81,675.497 232.143,675.663 234.5,675.5C 234.5,680.5 234.5,685.5 234.5,690.5C 229.833,690.5 225.167,690.5 220.5,690.5C 220.13,682.097 220.63,673.764 222,665.5C 224.406,661.592 227.572,658.592 231.5,656.5 Z"/></g>
<g><path style="opacity:0.96" fill="#fdfdfd" d="M 373.5,659.5 C 378.167,659.5 382.833,659.5 387.5,659.5C 387.5,665.167 387.5,670.833 387.5,676.5C 393.167,676.5 398.833,676.5 404.5,676.5C 404.5,680.833 404.5,685.167 404.5,689.5C 398.833,689.5 393.167,689.5 387.5,689.5C 387.334,699.506 387.5,709.506 388,719.5C 388.833,722.333 390.667,724.167 393.5,725C 397.203,725.579 400.869,725.412 404.5,724.5C 404.5,728.833 404.5,733.167 404.5,737.5C 396.634,740.363 388.967,739.863 381.5,736C 377.619,733.072 375.119,729.239 374,724.5C 373.5,712.838 373.333,701.171 373.5,689.5C 369.167,689.5 364.833,689.5 360.5,689.5C 360.5,685.167 360.5,680.833 360.5,676.5C 364.833,676.5 369.167,676.5 373.5,676.5C 373.5,670.833 373.5,665.167 373.5,659.5 Z"/></g>
<g><path style="opacity:0.947" fill="#fcfcfc" d="M 524.5,659.5 C 529.167,659.5 533.833,659.5 538.5,659.5C 538.5,665.167 538.5,670.833 538.5,676.5C 544.5,676.5 550.5,676.5 556.5,676.5C 556.5,680.833 556.5,685.167 556.5,689.5C 550.5,689.5 544.5,689.5 538.5,689.5C 538.097,700.231 538.597,710.898 540,721.5C 541.319,723.487 543.152,724.654 545.5,725C 549.188,725.45 552.854,725.283 556.5,724.5C 556.5,728.833 556.5,733.167 556.5,737.5C 546.337,741.033 537.17,739.367 529,732.5C 527.092,729.785 525.759,726.785 525,723.5C 524.5,712.172 524.333,700.838 524.5,689.5C 520.167,689.5 515.833,689.5 511.5,689.5C 511.5,685.167 511.5,680.833 511.5,676.5C 515.833,676.5 520.167,676.5 524.5,676.5C 524.5,670.833 524.5,665.167 524.5,659.5 Z"/></g>
<g><path style="opacity:0.959" fill="#fcfcfc" d="M 982.5,659.5 C 987.167,659.5 991.833,659.5 996.5,659.5C 996.5,665.167 996.5,670.833 996.5,676.5C 1002.5,676.5 1008.5,676.5 1014.5,676.5C 1014.5,680.833 1014.5,685.167 1014.5,689.5C 1008.5,689.5 1002.5,689.5 996.5,689.5C 996.071,700.245 996.571,710.912 998,721.5C 999.319,723.487 1001.15,724.654 1003.5,725C 1007.19,725.45 1010.85,725.283 1014.5,724.5C 1014.67,728.514 1014.5,732.514 1014,736.5C 1003.56,741.146 994.229,739.48 986,731.5C 984.438,729.043 983.438,726.376 983,723.5C 982.5,712.172 982.333,700.838 982.5,689.5C 978.167,689.5 973.833,689.5 969.5,689.5C 969.5,685.167 969.5,680.833 969.5,676.5C 973.833,676.5 978.167,676.5 982.5,676.5C 982.5,670.833 982.5,665.167 982.5,659.5 Z"/></g>
<g><path style="opacity:0.951" fill="#fcfcfc" d="M 179.5,764.5 C 176.5,764.5 173.5,764.5 170.5,764.5C 156.747,763.277 148.08,755.943 144.5,742.5C 149.456,741.506 154.456,741.173 159.5,741.5C 160.885,746.056 163.885,749.222 168.5,751C 184.757,753.077 192.257,745.911 191,729.5C 183.917,736.637 175.417,739.137 165.5,737C 150.562,732.146 142.896,721.813 142.5,706C 144.044,687.391 154.044,676.891 172.5,674.5C 179.571,675.133 185.738,677.8 191,682.5C 191.495,680.527 191.662,678.527 191.5,676.5C 196.167,676.5 200.833,676.5 205.5,676.5C 205.958,699.553 205.458,722.553 204,745.5C 199.408,756.535 191.241,762.869 179.5,764.5 Z M 169.5,688.5 C 186.897,688.063 194.064,696.396 191,713.5C 181.834,726.541 171.501,727.541 160,716.5C 154.364,703.902 157.531,694.568 169.5,688.5 Z"/></g>
<g><path style="opacity:0.954" fill="#fdfdfd" d="M 345.5,675.5 C 349.167,675.5 352.833,675.5 356.5,675.5C 356.5,680.5 356.5,685.5 356.5,690.5C 347.436,687.949 340.936,690.949 337,699.5C 335.559,712.092 335.059,724.759 335.5,737.5C 330.833,737.5 326.167,737.5 321.5,737.5C 321.5,717.167 321.5,696.833 321.5,676.5C 326.167,676.5 330.833,676.5 335.5,676.5C 335.337,678.857 335.503,681.19 336,683.5C 338.772,680.217 341.939,677.55 345.5,675.5 Z"/></g>
<g><path style="opacity:0.953" fill="#fcfcfc" d="M 433.5,675.5 C 443.513,673.74 452.346,676.073 460,682.5C 460.495,680.527 460.662,678.527 460.5,676.5C 465.167,676.5 469.833,676.5 474.5,676.5C 474.5,696.833 474.5,717.167 474.5,737.5C 469.833,737.5 465.167,737.5 460.5,737.5C 460.662,735.473 460.495,733.473 460,731.5C 448.827,740.998 436.994,741.831 424.5,734C 409.884,719.908 407.718,704.075 418,686.5C 422.127,681.202 427.294,677.535 433.5,675.5 Z M 438.5,688.5 C 454.575,687.742 462.075,695.408 461,711.5C 456.263,724.785 447.43,728.618 434.5,723C 426.588,716.472 424.422,708.306 428,698.5C 430.354,693.916 433.854,690.583 438.5,688.5 Z"/></g>
<g><path style="opacity:0.959" fill="#fcfcfc" d="M 584.5,675.5 C 589.844,675.334 595.177,675.501 600.5,676C 604.51,677.343 608.01,679.509 611,682.5C 611.495,680.527 611.662,678.527 611.5,676.5C 616.5,676.5 621.5,676.5 626.5,676.5C 626.5,696.833 626.5,717.167 626.5,737.5C 621.5,737.5 616.5,737.5 611.5,737.5C 611.662,735.473 611.495,733.473 611,731.5C 596.577,742.605 582.91,741.605 570,728.5C 559.287,711.493 560.787,695.66 574.5,681C 577.767,678.87 581.1,677.037 584.5,675.5 Z M 589.5,688.5 C 608.061,688.254 615.228,697.254 611,715.5C 604.799,725.734 596.299,728.234 585.5,723C 576.799,715.034 575.299,705.867 581,695.5C 583.441,692.546 586.275,690.213 589.5,688.5 Z"/></g>
<g><path style="opacity:0.95" fill="#fbfbfb" d="M 662.5,674.5 C 673.108,674.049 680.941,678.383 686,687.5C 686.662,689.813 687.162,692.146 687.5,694.5C 682.5,694.5 677.5,694.5 672.5,694.5C 671.752,689.424 668.752,686.757 663.5,686.5C 657.097,686.395 654.597,689.395 656,695.5C 657.255,696.211 658.421,697.044 659.5,698C 665.5,699.667 671.5,701.333 677.5,703C 689.546,708.952 692.713,718.119 687,730.5C 681.239,736.702 674.073,739.702 665.5,739.5C 654.222,739.616 645.722,734.95 640,725.5C 639.338,723.187 638.838,720.854 638.5,718.5C 643.511,718.334 648.511,718.501 653.5,719C 656.32,725.579 661.32,728.245 668.5,727C 675.139,725.236 676.473,721.736 672.5,716.5C 664.462,713.765 656.462,710.932 648.5,708C 640.238,701.39 638.404,693.223 643,683.5C 648.311,677.685 654.811,674.685 662.5,674.5 Z"/></g>
<g><path style="opacity:0.95" fill="#fbfbfb" d="M 924.5,675.5 C 948.522,672.702 962.188,683.202 965.5,707C 963.342,726.492 952.508,737.325 933,739.5C 912.575,737.909 901.742,726.909 900.5,706.5C 901.828,690.856 909.828,680.522 924.5,675.5 Z M 928.5,688.5 C 944.083,688.25 951.249,695.917 950,711.5C 945.262,724.638 936.429,728.471 923.5,723C 915.942,717.257 913.442,709.757 916,700.5C 918.208,694.337 922.375,690.337 928.5,688.5 Z"/></g>
<g><path style="opacity:0.949" fill="#fdfdfd" d="M 74.5,676.5 C 79.5,676.5 84.5,676.5 89.5,676.5C 89.3334,689.837 89.5001,703.171 90,716.5C 91.2898,722.46 94.9565,725.46 101,725.5C 107.909,725.543 112.242,722.209 114,715.5C 115.401,702.552 115.901,689.552 115.5,676.5C 120.167,676.5 124.833,676.5 129.5,676.5C 129.5,696.833 129.5,717.167 129.5,737.5C 124.833,737.5 120.167,737.5 115.5,737.5C 115.662,735.473 115.495,733.473 115,731.5C 103.997,741.783 92.664,742.116 81,732.5C 77.4244,727.775 75.4244,722.442 75,716.5C 74.5001,703.171 74.3334,689.837 74.5,676.5 Z"/></g>
<g><path style="opacity:0.952" fill="#fcfcfc" d="M 249.5,676.5 C 254.167,676.5 258.833,676.5 263.5,676.5C 263.333,689.504 263.5,702.504 264,715.5C 267.414,725.615 273.914,728.115 283.5,723C 286.463,720.125 288.296,716.625 289,712.5C 289.5,700.505 289.667,688.505 289.5,676.5C 294.167,676.5 298.833,676.5 303.5,676.5C 303.5,696.833 303.5,717.167 303.5,737.5C 298.833,737.5 294.167,737.5 289.5,737.5C 289.662,735.473 289.495,733.473 289,731.5C 280.338,740.082 270.505,741.582 259.5,736C 254.692,732.211 251.525,727.378 250,721.5C 249.5,706.504 249.333,691.504 249.5,676.5 Z"/></g>
<g><path style="opacity:0.947" fill="#f9f9f9" d="M 841.5,676.5 C 846.5,676.5 851.5,676.5 856.5,676.5C 856.5,696.833 856.5,717.167 856.5,737.5C 851.5,737.5 846.5,737.5 841.5,737.5C 841.5,717.167 841.5,696.833 841.5,676.5 Z"/></g>
<g><path style="opacity:0.948" fill="#fdfdfd" d="M 1026.5,676.5 C 1031.17,676.5 1035.83,676.5 1040.5,676.5C 1040.5,696.833 1040.5,717.167 1040.5,737.5C 1035.83,737.5 1031.17,737.5 1026.5,737.5C 1026.5,717.167 1026.5,696.833 1026.5,676.5 Z"/></g>
</svg>
