<?xml version="1.0" standalone="no"?>
<!DOCTYPE svg PUBLIC "-//W3C//DTD SVG 20010904//EN"
 "http://www.w3.org/TR/2001/REC-SVG-20010904/DTD/svg10.dtd">
<svg version="1.0" xmlns="http://www.w3.org/2000/svg"
 width="689.000000pt" height="362.000000pt" viewBox="0 0 689.000000 362.000000"
 preserveAspectRatio="xMidYMid meet">

<g transform="translate(0.000000,362.000000) scale(0.100000,-0.100000)"
fill="#000000" stroke="none">
<path d="M1111 3603 c-5 -10 -52 -117 -104 -238 -52 -121 -226 -523 -386 -894
-160 -370 -290 -675 -289 -676 2 -2 95 42 208 97 113 55 264 128 336 163 l130
64 169 395 c92 218 171 396 176 396 4 0 21 -33 37 -72 17 -40 92 -216 166
-391 75 -175 136 -322 136 -327 0 -4 9 -27 19 -51 10 -24 72 -168 136 -319 64
-151 134 -311 154 -355 21 -44 64 -142 96 -217 l58 -138 275 0 c257 0 274 1
269 18 -3 9 -77 181 -164 382 -88 201 -337 773 -553 1273 l-394 907 -233 0
c-211 0 -233 -2 -242 -17z"/>
<path d="M4437 3613 c-4 -3 -7 -111 -7 -240 l0 -233 245 0 245 0 0 240 0 240
-238 0 c-131 0 -242 -3 -245 -7z"/>
<path d="M5930 2875 c-113 -18 -223 -54 -307 -100 -84 -47 -188 -150 -230
-230 -34 -64 -73 -191 -73 -237 l0 -28 234 0 234 0 7 37 c9 52 37 103 77 139
60 57 93 68 214 72 97 4 117 1 161 -18 106 -45 142 -114 150 -282 l6 -108
-149 0 c-449 -1 -717 -73 -876 -235 -88 -91 -128 -198 -128 -347 0 -167 37
-266 140 -369 114 -115 246 -162 460 -162 150 -1 218 12 328 63 65 31 97 54
157 115 l75 76 0 -111 0 -110 241 0 240 0 -4 673 c-4 749 -1 720 -75 862 -65
122 -179 214 -330 265 -143 47 -377 62 -552 35z m470 -1148 c0 -63 -6 -123
-15 -155 -21 -70 -96 -151 -172 -185 -111 -50 -266 -58 -358 -18 -128 56 -166
233 -73 345 65 80 200 114 456 115 l162 1 0 -103z"/>
<path d="M3820 2869 c-128 -22 -267 -119 -335 -233 l-35 -60 0 137 0 137 -250
0 -250 0 0 -905 0 -905 249 0 250 0 3 503 c4 450 6 508 22 557 41 126 111 211
215 258 76 35 205 41 309 14 l72 -18 0 252 0 252 -32 6 c-69 12 -165 14 -218
5z"/>
<path d="M4430 1945 l0 -905 245 0 245 0 0 905 0 905 -245 0 -245 0 0 -905z"/>
<path d="M580 1376 c-69 -33 -220 -107 -335 -163 -193 -92 -212 -104 -228
-137 l-17 -36 274 0 273 0 83 195 c46 107 81 197 79 199 -2 2 -60 -24 -129
-58z"/>
<path d="M85 548 c-62 -34 -88 -92 -65 -147 17 -43 40 -59 122 -90 58 -21 75
-32 82 -54 14 -39 -14 -67 -69 -67 -40 0 -85 27 -85 50 0 6 -16 10 -35 10 -39
0 -42 -8 -20 -50 43 -83 175 -106 244 -41 39 36 49 87 26 136 -18 37 -55 61
-130 85 -51 16 -75 37 -75 65 0 54 87 69 124 22 16 -19 31 -27 55 -27 29 0 32
2 25 23 -12 39 -34 65 -69 81 -38 18 -101 20 -130 4z"/>
<path d="M3350 345 l0 -215 35 0 35 0 0 93 c0 114 12 137 70 137 53 0 60 -17
60 -134 l0 -96 35 0 35 0 0 78 c-1 100 -13 159 -37 184 -28 27 -92 34 -131 14
l-32 -17 0 86 0 85 -35 0 -35 0 0 -215z"/>
<path d="M3700 345 l0 -215 30 0 30 0 0 65 c0 36 3 65 7 65 4 0 35 -30 69 -66
57 -61 65 -65 99 -62 l38 3 -32 35 c-18 19 -51 54 -74 78 l-41 42 64 65 64 65
-38 0 c-32 0 -46 -8 -97 -57 l-59 -56 0 126 0 127 -30 0 -30 0 0 -215z"/>
<path d="M4021 546 c-8 -10 -11 -26 -7 -42 5 -20 12 -25 33 -22 14 2 31 11 37
21 23 36 -36 76 -63 43z"/>
<path d="M4170 345 l0 -215 30 0 30 0 0 215 0 215 -30 0 -30 0 0 -215z"/>
<path d="M4901 546 c-7 -8 -11 -25 -9 -38 2 -18 9 -23 32 -23 36 0 56 27 40
53 -14 22 -48 27 -63 8z"/>
<path d="M1082 487 c-15 -15 -25 -42 -29 -75 l-6 -52 32 0 c28 0 31 3 31 30 0
17 -4 30 -10 30 -16 0 -12 48 5 57 8 5 11 13 6 21 -5 9 -13 6 -29 -11z"/>
<path d="M1787 494 c-4 -4 -7 -22 -7 -40 0 -28 -4 -33 -27 -36 -22 -2 -29 -9
-31 -30 -3 -25 0 -28 27 -28 l31 0 0 -67 c0 -95 14 -140 50 -158 52 -27 100
-17 100 21 0 20 -5 24 -28 24 -44 0 -52 16 -52 102 l0 78 41 0 c38 0 40 1 37
28 -3 23 -8 27 -40 30 -35 3 -37 5 -40 40 -3 31 -7 37 -28 40 -14 2 -29 0 -33
-4z"/>
<path d="M2507 494 c-4 -4 -7 -22 -7 -41 0 -29 -3 -33 -25 -33 -21 0 -25 -5
-25 -30 0 -25 4 -30 24 -30 22 0 23 -3 28 -92 5 -88 7 -93 37 -120 46 -41 111
-37 111 8 0 20 -5 24 -28 24 -44 0 -52 16 -52 102 l0 78 40 0 c38 0 40 2 40
30 0 28 -2 30 -39 30 -39 0 -40 1 -43 38 -3 31 -7 37 -28 40 -14 2 -29 0 -33
-4z"/>
<path d="M4697 493 c-4 -3 -7 -21 -7 -40 0 -30 -3 -33 -30 -33 -27 0 -30 -3
-30 -30 0 -27 3 -30 30 -30 l30 0 0 -89 c0 -73 3 -93 20 -114 37 -47 120 -48
120 -1 0 19 -5 24 -24 24 -43 0 -56 24 -56 106 l0 74 40 0 c38 0 40 2 40 30 0
28 -2 30 -40 30 l-40 0 0 40 c0 35 -3 40 -23 40 -13 0 -27 -3 -30 -7z"/>
<path d="M367 413 c-4 -3 -7 -52 -7 -107 0 -83 4 -107 20 -134 33 -54 97 -68
144 -31 21 17 26 18 26 5 0 -12 10 -16 35 -16 l36 0 -3 143 -3 142 -30 0 -30
0 -5 -103 c-6 -116 -17 -136 -75 -130 -43 4 -55 36 -55 146 0 90 -1 92 -23 92
-13 0 -27 -3 -30 -7z"/>
<path d="M752 400 c-34 -21 -72 -87 -72 -125 0 -11 9 -39 20 -62 34 -77 119
-105 189 -62 l33 20 -7 -38 c-8 -45 -20 -62 -54 -74 -29 -11 -87 5 -95 26 -8
21 -66 20 -66 -1 0 -24 55 -70 91 -78 50 -10 70 -7 115 15 65 31 75 69 72 249
l-3 145 -27 3 c-20 2 -28 -1 -28 -12 0 -19 -8 -20 -40 -1 -36 20 -90 18 -128
-5z m147 -66 c47 -60 10 -144 -64 -144 -74 0 -111 84 -64 144 16 21 29 26 64
26 35 0 48 -5 64 -26z"/>
<path d="M1194 405 c-3 -8 -4 -59 -2 -114 4 -117 20 -150 83 -166 31 -8 44 -6
76 12 30 17 39 18 39 7 0 -9 11 -14 30 -14 l31 0 -3 143 -3 142 -27 3 -28 3 0
-73 c0 -130 -29 -180 -93 -164 -34 8 -47 51 -47 152 0 83 0 84 -25 84 -14 0
-28 -7 -31 -15z"/>
<path d="M1540 275 l0 -145 30 0 30 0 0 90 c0 84 2 93 26 117 17 17 33 24 50
20 22 -4 24 -1 24 29 0 29 -3 34 -24 34 -13 0 -35 -9 -49 -20 -25 -20 -25 -20
-30 0 -3 14 -14 20 -31 20 l-26 0 0 -145z"/>
<path d="M2060 412 c-112 -53 -122 -208 -18 -272 42 -25 84 -25 126 0 26 16
32 17 32 5 0 -10 10 -15 30 -15 l30 0 0 145 0 145 -30 0 c-24 0 -30 -4 -30
-22 0 -20 -1 -20 -20 -3 -21 19 -95 29 -120 17z m117 -74 c33 -31 32 -100 -2
-133 -58 -59 -153 -6 -142 79 4 25 14 48 27 58 31 25 88 23 117 -4z"/>
<path d="M2780 413 c-48 -19 -90 -83 -90 -138 0 -112 103 -186 192 -137 30 16
38 17 38 6 0 -9 11 -14 30 -14 l30 0 0 145 0 145 -26 0 c-18 0 -28 -6 -31 -20
-5 -20 -7 -20 -24 -4 -19 17 -93 28 -119 17z m121 -79 c35 -37 33 -98 -4 -130
-39 -33 -81 -31 -118 5 -33 33 -37 67 -14 111 17 33 27 38 76 39 26 1 42 -6
60 -25z"/>
<path d="M3105 408 c-31 -16 -45 -39 -45 -70 0 -40 36 -73 103 -92 49 -14 57
-20 57 -41 0 -18 -7 -26 -26 -31 -28 -7 -74 9 -74 26 0 5 -16 10 -35 10 -42 0
-44 -12 -7 -50 82 -81 235 -25 202 74 -11 35 -30 48 -98 67 -52 15 -70 33 -52
54 7 8 23 15 35 15 12 0 28 -7 35 -15 7 -8 28 -15 46 -15 32 0 33 1 22 26 -22
47 -111 71 -163 42z"/>
<path d="M4020 275 l0 -145 30 0 30 0 0 145 0 145 -30 0 -30 0 0 -145z"/>
<path d="M4380 402 c-107 -53 -107 -204 1 -260 105 -55 219 16 219 136 0 75
-71 142 -150 142 -19 0 -51 -8 -70 -18z m122 -56 c10 -7 22 -25 28 -41 33 -86
-62 -160 -133 -105 -46 36 -45 111 2 147 21 16 82 16 103 -1z"/>
<path d="M4900 275 l0 -145 30 0 30 0 0 145 0 145 -30 0 -30 0 0 -145z"/>
</g>
</svg>
